<?xml version="1.0" encoding="utf-8"?>
<!-- Generator: Adobe Illustrator 25.2.1, SVG Export Plug-In . SVG Version: 6.00 Build 0)  -->
<svg version="1.1" id="Layer_1" xmlns="http://www.w3.org/2000/svg" xmlns:xlink="http://www.w3.org/1999/xlink" x="0px" y="0px"
	 viewBox="0 0 214.8 83" style="enable-background:new 0 0 214.8 83;" xml:space="preserve">
<style type="text/css">
	.st0{fill:#FFFFFF;}
</style>
<g>
	<g>
		<path class="st0" d="M16.9,48.3V28.5h5.8v6.7c0.6-0.6,1.2-1.1,2-1.5c0.7-0.4,1.6-0.4,2.5-0.4c1,0,1.8,0.2,2.5,0.4
			c0.7,0.3,1.3,0.7,1.8,1.3c0.4,0.5,0.7,1.1,1,1.9s0.3,2,0.3,3.7v7.6h-5.8v-7.6c0-1.1-0.2-1.9-0.4-2.3c-0.3-0.4-0.8-0.6-1.5-0.6
			c-0.7,0-1.3,0.3-1.7,0.7c-0.4,0.4-0.5,1.3-0.5,2.3v7.5L16.9,48.3L16.9,48.3z"/>
		<path class="st0" d="M34,40.9c0-2.4,0.7-4.3,2.2-5.7s3.5-2.1,6.1-2.1c2.6,0,4.6,0.7,6.1,2.1c1.5,1.4,2.2,3.3,2.2,5.7
			s-0.7,4.3-2.2,5.7s-3.4,2.1-6,2.1c-2.6,0-4.6-0.7-6.1-2.1C34.7,45.3,34,43.4,34,40.9z M39.8,40.9c0,1.3,0.2,2.3,0.5,2.9
			s1,0.9,1.9,0.9s1.5-0.3,1.9-0.9s0.5-1.6,0.5-2.9S44.4,38.6,44,38c-0.4-0.6-1-0.9-1.9-0.9s-1.5,0.3-1.9,0.9
			C39.9,38.7,39.8,39.6,39.8,40.9z"/>
		<path class="st0" d="M51.9,48.3V33.7h5.4v2.6c0.4-1.1,1-1.9,1.7-2.3c0.7-0.5,1.7-0.7,2.9-0.7h0.5v5.8c-0.2,0-0.4,0-0.6-0.1
			c-0.2,0-0.4,0-0.5,0c-1.1,0-2,0.3-2.6,0.8c-0.5,0.5-0.8,1.3-0.8,2.5v6C57.9,48.3,51.9,48.3,51.9,48.3z"/>
		<path class="st0" d="M73.9,48.3l-0.4-1.4c-0.7,0.6-1.5,1.1-2.4,1.4c-0.9,0.4-1.9,0.4-2.9,0.4c-1.7,0-2.9-0.4-3.8-1.2
			s-1.3-1.9-1.3-3.4c0-1.4,0.4-2.5,1.3-3.2c0.9-0.7,2.6-1.1,5-1.5c0.4-0.1,0.7-0.1,1.2-0.2c1.9-0.2,2.7-0.7,2.7-1.4
			c0-0.4-0.2-0.7-0.5-0.9c-0.4-0.2-0.9-0.3-1.6-0.3c-0.6,0-1.1,0.1-1.4,0.4c-0.4,0.3-0.5,0.6-0.5,1.1h-5.6c0-1.7,0.7-2.9,2-3.7
			s3.3-1.2,5.8-1.2c1.2,0,2.3,0.1,3.3,0.4c1.1,0.3,1.8,0.5,2.4,0.9c0.7,0.4,1.1,1,1.4,1.6c0.3,0.6,0.4,1.4,0.4,2.6v8.1
			c0,0.3,0.1,0.5,0.2,0.7c0.1,0.2,0.3,0.4,0.4,0.5v0.4H73.9z M73.3,41.7c-0.5,0.2-1.3,0.4-2.2,0.7c-1.4,0.4-2.2,0.9-2.2,1.5
			c0,0.4,0.2,0.7,0.4,1c0.3,0.3,0.7,0.4,1.2,0.4c1,0,1.7-0.3,2.1-0.7c0.4-0.4,0.7-1.1,0.7-2.1c0-0.2,0-0.4,0-0.4
			C73.3,41.9,73.3,41.8,73.3,41.7z"/>
		<path class="st0" d="M100.1,48.3H95v-1.8c-0.6,0.8-1.3,1.3-2.1,1.8c-0.8,0.4-1.7,0.5-2.6,0.5c-1.9,0-3.3-0.7-4.5-2.1
			S84,43.5,84,41.1c0-2.3,0.6-4.2,1.8-5.6c1.1-1.4,2.6-2.1,4.5-2.1c0.9,0,1.7,0.2,2.4,0.5c0.7,0.4,1.3,0.8,1.9,1.5v-6.7h5.6
			L100.1,48.3L100.1,48.3z M92.2,44.5c0.7,0,1.3-0.3,1.8-0.9c0.4-0.6,0.6-1.4,0.6-2.5c0-1.1-0.2-2-0.6-2.6c-0.4-0.5-1-0.8-1.8-0.8
			s-1.4,0.3-1.8,0.8c-0.4,0.5-0.6,1.4-0.6,2.6c0,1.1,0.2,1.9,0.6,2.5C90.9,44.3,91.4,44.5,92.2,44.5z"/>
		<path class="st0" d="M101.6,40.9c0-2.4,0.7-4.3,2.2-5.7c1.5-1.4,3.4-2.1,6.1-2.1c2.6,0,4.6,0.7,6.1,2.1c1.5,1.4,2.2,3.3,2.2,5.7
			s-0.7,4.3-2.2,5.7c-1.5,1.4-3.4,2.1-6,2.1s-4.6-0.7-6.1-2.1C102.3,45.3,101.6,43.4,101.6,40.9z M107.5,40.9c0,1.3,0.2,2.3,0.5,2.9
			c0.4,0.6,1,0.9,1.9,0.9s1.5-0.3,1.9-0.9c0.4-0.6,0.5-1.6,0.5-2.9s-0.2-2.3-0.5-2.9c-0.4-0.6-1-0.9-1.9-0.9s-1.5,0.3-1.9,0.9
			C107.6,38.7,107.5,39.6,107.5,40.9z"/>
		<path class="st0" d="M137.7,48.3h-5.1v-1.8c-0.6,0.8-1.3,1.3-2.1,1.8c-0.8,0.4-1.7,0.5-2.6,0.5c-1.9,0-3.3-0.7-4.5-2.1
			c-1.1-1.4-1.8-3.3-1.8-5.6c0-2.3,0.6-4.2,1.8-5.6c1.1-1.4,2.6-2.1,4.5-2.1c0.9,0,1.7,0.2,2.4,0.5c0.7,0.4,1.3,0.8,1.9,1.5v-6.7
			h5.6L137.7,48.3L137.7,48.3z M129.7,44.5c0.7,0,1.3-0.3,1.8-0.9c0.4-0.6,0.6-1.4,0.6-2.5c0-1.1-0.2-2-0.6-2.6
			c-0.4-0.5-1-0.8-1.8-0.8s-1.4,0.3-1.8,0.8c-0.4,0.5-0.6,1.4-0.6,2.6c0,1.1,0.2,1.9,0.6,2.5C128.3,44.3,129,44.5,129.7,44.5z"/>
		<path class="st0" d="M140,32.2v-4.1h5.8v4.1H140z M140,48.3V33.7h5.8v14.5L140,48.3L140,48.3z"/>
		<path class="st0" d="M158.7,48.3l-0.4-1.4c-0.7,0.6-1.6,1.1-2.4,1.4c-0.9,0.4-1.9,0.4-2.9,0.4c-1.7,0-2.9-0.4-3.8-1.2
			c-0.9-0.8-1.3-1.9-1.3-3.4c0-1.4,0.4-2.5,1.3-3.2c0.9-0.7,2.6-1.1,5-1.5c0.4-0.1,0.7-0.1,1.2-0.2c1.9-0.2,2.7-0.7,2.7-1.4
			c0-0.4-0.2-0.7-0.5-0.9c-0.4-0.2-0.9-0.3-1.6-0.3c-0.6,0-1.1,0.1-1.4,0.4c-0.4,0.3-0.5,0.6-0.5,1.1h-5.6c0-1.7,0.7-2.9,2-3.7
			s3.3-1.2,5.8-1.2c1.2,0,2.3,0.1,3.3,0.4c1.1,0.3,1.8,0.5,2.4,0.9c0.7,0.4,1.1,1,1.4,1.6c0.3,0.6,0.4,1.4,0.4,2.6v8.1
			c0,0.3,0.1,0.5,0.2,0.7c0.1,0.2,0.3,0.4,0.4,0.5v0.4H158.7z M158,41.7c-0.5,0.2-1.3,0.4-2.2,0.7c-1.4,0.4-2.2,0.9-2.2,1.5
			c0,0.4,0.2,0.7,0.4,1c0.3,0.3,0.7,0.4,1.2,0.4c1,0,1.7-0.3,2.1-0.7c0.4-0.4,0.7-1.1,0.7-2.1c0-0.2,0-0.4,0-0.4
			S158.1,41.8,158,41.7z"/>
	</g>
	<g>
		<path class="st0" d="M173.7,65.9c-8.9,0-17.1-4.9-21.4-12.8c-0.2-0.5-0.1-1.1,0.4-1.4c0.5-0.2,1.1-0.1,1.4,0.4
			c4.3,8,12.9,12.6,21.9,11.6c5.9-0.6,11.2-3.5,15-8.1s5.5-10.5,4.9-16.4s-3.5-11.3-8.1-15c-4.6-3.8-10.4-5.5-16.3-4.9
			c-6.6,0.7-12.6,4.3-16.3,9.9c-0.3,0.5-0.9,0.6-1.4,0.3s-0.6-0.9-0.3-1.4c4.1-6.1,10.5-10,17.7-10.8c6.4-0.7,12.8,1.2,17.8,5.3
			s8.2,9.9,8.8,16.4c0.7,6.5-1.2,12.8-5.3,17.8s-9.9,8.2-16.4,8.9C175.4,65.8,174.5,65.9,173.7,65.9z"/>
	</g>
	<g>
		<g>
			<circle class="st0" cx="169.3" cy="42.2" r="3.3"/>
		</g>
		<g>
			<line class="st0" x1="170.1" y1="41.8" x2="185.4" y2="32.5"/>
			<path class="st0" d="M170.1,43.3c-0.5,0-1-0.3-1.3-0.7c-0.4-0.7-0.2-1.6,0.5-2.1l15.3-9.3c0.7-0.4,1.6-0.2,2.1,0.5
				c0.4,0.7,0.2,1.6-0.5,2.1l-15.3,9.3C170.6,43.2,170.4,43.3,170.1,43.3z"/>
		</g>
		<g>
			<line class="st0" x1="177.3" y1="51.9" x2="170.3" y2="44"/>
			<path class="st0" d="M177.3,53.4c-0.4,0-0.8-0.2-1.1-0.5l-7-7.9c-0.5-0.6-0.5-1.6,0.1-2.1c0.6-0.5,1.6-0.5,2.1,0.1l7,7.9
				c0.5,0.6,0.5,1.6-0.1,2.1C178,53.2,177.7,53.4,177.3,53.4z"/>
		</g>
	</g>
</g>
</svg>
