<?xml version="1.0" encoding="utf-8"?>
<!-- Generator: Adobe Illustrator 25.2.1, SVG Export Plug-In . SVG Version: 6.00 Build 0)  -->
<svg version="1.1" id="Layer_1" xmlns="http://www.w3.org/2000/svg" xmlns:xlink="http://www.w3.org/1999/xlink" x="0px" y="0px"
	 viewBox="0 0 1920 1080" style="enable-background:new 0 0 1920 1080;" xml:space="preserve">
<style type="text/css">
	.st0{fill:url(#SVGID_1_);}
	.st1{fill:url(#SVGID_2_);}
	.st2{fill:none;}
	.st3{fill:url(#SVGID_3_);}
	.st4{fill:url(#SVGID_4_);}
	.st5{fill:url(#SVGID_5_);}
	.st6{fill:url(#SVGID_6_);}
	.st7{fill:url(#SVGID_7_);}
	.st8{fill:url(#SVGID_8_);}
	.st9{fill:url(#SVGID_9_);}
	.st10{fill:url(#SVGID_10_);}
	.st11{fill:url(#SVGID_11_);}
	.st12{opacity:0.33;fill:url(#SVGID_12_);enable-background:new    ;}
	.st13{fill:url(#SVGID_13_);}
	.st14{fill:url(#SVGID_14_);}
	.st15{fill:url(#SVGID_15_);}
	.st16{fill:url(#SVGID_16_);}
	.st17{fill:url(#SVGID_17_);}
	.st18{fill:url(#SVGID_18_);}
	.st19{fill:url(#SVGID_19_);}
	.st20{fill:url(#SVGID_20_);}
	.st21{fill:url(#SVGID_21_);}
	.st22{opacity:0.47;}
	.st23{fill:url(#SVGID_22_);}
	.st24{fill:url(#SVGID_23_);}
	.st25{fill:url(#SVGID_24_);}
	.st26{fill:url(#SVGID_25_);}
	.st27{opacity:0.34;fill:url(#SVGID_26_);}
	.st28{fill:url(#SVGID_27_);}
	.st29{fill:url(#SVGID_28_);}
	.st30{fill:url(#SVGID_29_);}
	.st31{fill:url(#SVGID_30_);}
	.st32{fill:url(#SVGID_31_);}
	.st33{fill:url(#SVGID_32_);}
	.st34{fill:url(#SVGID_33_);}
	.st35{fill:url(#SVGID_34_);}
	.st36{fill:url(#SVGID_35_);}
	.st37{fill:url(#SVGID_36_);}
	.st38{fill:url(#SVGID_37_);}
	.st39{fill:url(#SVGID_38_);}
	.st40{fill:#1C274C;}
	.st41{fill:url(#SVGID_39_);}
	.st42{fill:#FF5555;}
	.st43{fill:url(#SVGID_40_);}
	.st44{fill:#E24444;}
	.st45{fill:url(#SVGID_41_);}
	.st46{fill:url(#SVGID_42_);}
	.st47{fill:url(#SVGID_43_);}
	.st48{fill:url(#SVGID_44_);}
	.st49{fill:none;stroke:#FF5555;stroke-width:0.8549;stroke-linecap:round;stroke-linejoin:round;stroke-miterlimit:10;}
	.st50{fill:url(#SVGID_45_);}
</style>
<g>
	<g>
		
			<linearGradient id="SVGID_1_" gradientUnits="userSpaceOnUse" x1="961.3928" y1="-379.4024" x2="948.5593" y2="-936.3934" gradientTransform="matrix(1 0 0 1 0 980)">
			<stop  offset="0" style="stop-color:#A6B0DD"/>
			<stop  offset="0.9846" style="stop-color:#E1D0E9"/>
		</linearGradient>
		<rect class="st0" width="1920" height="1080.3"/>
		
			<linearGradient id="SVGID_2_" gradientUnits="userSpaceOnUse" x1="921.8295" y1="116.3816" x2="964.9642" y2="-150.5164" gradientTransform="matrix(1 0 0 1 0 980)">
			<stop  offset="0" style="stop-color:#4B51A3"/>
			<stop  offset="0.9897" style="stop-color:#7989CC"/>
		</linearGradient>
		<rect y="640.1" class="st1" width="1920" height="440.2"/>
		<rect x="107.1" class="st2" width="1675.4" height="1080.3"/>
	</g>
	<g>
		
			<linearGradient id="SVGID_3_" gradientUnits="userSpaceOnUse" x1="1445.8704" y1="-562.6673" x2="1445.8704" y2="-667.6453" gradientTransform="matrix(1 0 0 1 0 980)">
			<stop  offset="5.128210e-03" style="stop-color:#4B76C6;stop-opacity:0"/>
			<stop  offset="0.9846" style="stop-color:#8EA2D7"/>
		</linearGradient>
		<path class="st3" d="M1563.3,405.7c-10.6,0.3-20.4-3.4-26.8-8.2c-6.4-4.8-9.8-10.5-13.1-16.1c-8.7-14.7-16.6-29.3-26.1-43.8
			c-2-3-4-6.1-8.2-8.3c-6.9-3.7-18.4-3.6-26.4-0.8c-8,2.9-12.8,8-14.4,13.3c-0.8,2.4-1.2,5.1-4.5,6.7c-2,0.9-4.7,1.2-6.8,2.1
			c-3.4,1.3-4.7,3.7-5.9,6c-5.7,11-11.3,22-17,33c-6.3,3.1-14.9,6.2-21.3,3.2c-2.8-1.3-3.9-3.5-5.3-5.4c-5-6.7-15.5-11.4-25.2-16.1
			c-11.1,0.6-22.6,0.4-33.7,1c-6.8,0.4-14.3,0.9-18.6,3.5c-3.3,2-3.8,4.8-3.9,7.3c-0.9,14.1,3.3,28.2,7.5,42.1
			c5.7,18.9,11.4,37.9,17.1,56.8c3.5,11.6,7.7,24,24.3,32.5c12,6.1,28.9,9.4,45.4,12c47.6,7.6,97.5,12,147.6,12.8
			c5.3,0.1,11,0.1,15.3-1.4c4.9-1.6,6.7-4.6,8.2-7.4C1593.5,488.2,1589.5,447.5,1563.3,405.7z"/>
		
			<linearGradient id="SVGID_4_" gradientUnits="userSpaceOnUse" x1="161.2645" y1="-465.7869" x2="151.0302" y2="-736.9919" gradientTransform="matrix(1 0 0 1 0 980)">
			<stop  offset="5.128210e-03" style="stop-color:#4B76C6;stop-opacity:0"/>
			<stop  offset="0.9846" style="stop-color:#8EA2D7"/>
		</linearGradient>
		<path class="st4" d="M261.7,396.6c-9.3,0.2-18.1-3-23.7-7.2c-5.6-4.2-8.7-9.3-11.6-14.3c-7.7-13-14.7-25.9-23.1-38.8
			c-1.7-2.6-3.6-5.4-7.2-7.3c-6.1-3.2-16.3-3.2-23.4-0.7c-7.1,2.5-11.3,7.1-12.8,11.8c-0.7,2.1-1.1,4.5-4,5.9
			c-1.8,0.8-4.1,1.1-6,1.8c-3,1.2-4.2,3.3-5.2,5.3c-5,9.7-10,19.5-15.1,29.2c-5.6,2.7-13.2,5.5-18.9,2.9c-2.5-1.2-3.4-3.1-4.7-4.7
			c-4.4-5.9-13.7-10.1-22.3-14.2c-9.8,0.5-20,0.3-29.8,0.9c-6,0.3-12.7,0.8-16.5,3.1c-2.9,1.8-3.3,4.2-3.5,6.5
			c-0.8,12.5,2.9,24.9,6.6,37.3c5,16.8,10.1,33.5,15.1,50.3c3.1,10.3,6.8,21.2,21.5,28.8c10.6,5.4,25.6,8.3,40.2,10.6
			c42.2,6.7,86.3,10.6,130.7,11.4c4.7,0.1,9.7,0.1,13.6-1.2c4.3-1.4,6-4.1,7.3-6.6C288.4,469.7,284.9,433.7,261.7,396.6z"/>
		
			<linearGradient id="SVGID_5_" gradientUnits="userSpaceOnUse" x1="1357.5625" y1="-359.206" x2="1367.769" y2="-622.0203" gradientTransform="matrix(1 0 0 1 0 980)">
			<stop  offset="0" style="stop-color:#4B76C6"/>
			<stop  offset="0.9846" style="stop-color:#8EA2D7"/>
		</linearGradient>
		<path class="st5" d="M1475.5,406.9c-10,0.4-19.4-5.8-25.4-13.9s-9.3-17.9-12.5-27.5c-8.3-25-15.8-49.8-24.8-74.6
			c-1.9-5.1-3.8-10.4-7.7-14.1c-6.6-6.2-17.5-6.2-25.1-1.3c-7.6,4.9-12.1,13.7-13.7,22.6c-0.7,4.1-1.1,8.7-4.3,11.4
			c-1.9,1.6-4.4,2.1-6.4,3.5c-3.2,2.3-4.5,6.4-5.6,10.1c-5.4,18.7-10.8,37.4-16.1,56.1c-5.9,5.2-14.1,10.6-20.2,5.5
			c-2.7-2.3-3.7-5.9-5-9.1c-4.7-11.3-14.7-19.4-23.9-27.4c-10.5,1-21.5,0.6-32,1.6c-6.4,0.6-13.6,1.6-17.6,6
			c-3.1,3.4-3.6,8.1-3.7,12.5c-0.9,24,3.1,47.9,7.1,71.7c5.4,32.2,10.8,64.4,16.2,96.7c3.3,19.7,7.3,40.8,23.1,55.3
			c11.4,10.4,27.4,15.9,43.1,20.4c45.2,13,92.5,20.3,140.1,21.9c5,0.2,10.4,0.2,14.5-2.3c4.6-2.8,6.4-7.9,7.8-12.7
			C1504.2,547.3,1500.4,478.1,1475.5,406.9z"/>
		
			<linearGradient id="SVGID_6_" gradientUnits="userSpaceOnUse" x1="614.6229" y1="-82.0121" x2="627.4073" y2="-514.1368" gradientTransform="matrix(1 0 0 1 0 980)">
			<stop  offset="0" style="stop-color:#4B76C6"/>
			<stop  offset="9.168250e-02" style="stop-color:#517AC8"/>
			<stop  offset="0.9846" style="stop-color:#8EA2D7"/>
		</linearGradient>
		<path class="st6" d="M732.2,441.8c-3.7-1.8-6-4.9-8.2-7.8c-8.8-12-16.7-24.4-23.8-37c-2.4-4.3-5.4-9.1-11.1-10.7
			c-6.8-1.9-14.5,1.9-17.9,6.8s-3.8,10.7-4.7,16.2c-1.8,10.7-6.8,21.4-16.9,28.9c-6.4,4.7-15-0.2-21.2-5.1
			c-5.7-17.3-11.3-34.5-17-51.8c-1.1-3.5-2.5-7.3-5.9-9.4c-2.1-1.3-4.8-1.8-6.8-3.3c-3.3-2.4-3.8-6.7-4.5-10.5
			c-1.7-8.3-6.4-16.4-14.4-20.9s-19.4-4.5-26.3,1.2c-4.1,3.4-6.2,8.3-8.1,13c-9.5,22.9-17.3,45.8-26,68.8
			c-3.3,8.9-6.8,17.9-13.2,25.5c-17,20-40,30.6-45.5,55c-5.5,24.4-2.7,49.6,0.1,74.3c1.4,12.2,2.9,24.9,10.4,35.4
			c6.9,9.7,23.1-0.8,36.1-1.3c149.5-5.4,153.1,8.5,236.2,2.6c8.2-0.6,37.9,6.4,43.7,1.3c3.9-3.5-8.8-4.5-7.3-9.2
			C801.6,534,804.4,477.3,732.2,441.8z"/>
		
			<linearGradient id="SVGID_7_" gradientUnits="userSpaceOnUse" x1="1738.5762" y1="-508.4177" x2="1736.0176" y2="-605.6496" gradientTransform="matrix(1 0 0 1 0 980)">
			<stop  offset="0" style="stop-color:#4B76C6"/>
			<stop  offset="0.9846" style="stop-color:#8EA2D7"/>
		</linearGradient>
		<path class="st7" d="M1926,424.1c-16.9,0.3-32.7-3.6-42.9-8.7c-10.2-5.1-15.7-11.2-21-17.3c-13.9-15.7-26.6-31.3-41.8-46.9
			c-3.1-3.2-6.5-6.5-13.1-8.9c-11.1-3.9-29.5-3.9-42.3-0.8s-20.4,8.6-23.1,14.2c-1.2,2.6-1.9,5.5-7.3,7.2c-3.2,1-7.5,1.3-10.8,2.2
			c-5.4,1.4-7.5,4-9.4,6.4c-9.1,11.8-18.1,23.5-27.2,35.3c-10,3.3-23.8,6.7-34.1,3.5c-4.5-1.4-6.2-3.7-8.5-5.7
			c-8-7.1-24.8-12.2-40.3-17.2c-17.8,0.6-36.2,0.4-53.9,1c-10.9,0.4-22.9,1-29.7,3.8c-5.3,2.2-6,5.1-6.3,7.9
			c-1.4,15.1,5.3,30.2,12,45.1c9.1,20.3,18.2,40.5,27.3,60.8c5.6,12.4,12.4,25.7,38.9,34.8c19.2,6.6,46.2,10,72.7,12.9
			c76.2,8.1,156,12.8,236.2,13.8c8.5,0.1,17.6,0.1,24.5-1.5c7.8-1.8,10.8-5,13.1-8C1974.4,512.4,1968,468.9,1926,424.1z"/>
		
			<linearGradient id="SVGID_8_" gradientUnits="userSpaceOnUse" x1="688.5889" y1="-392.0464" x2="692.4149" y2="-556.5738" gradientTransform="matrix(1 0 0 1 0 980)">
			<stop  offset="0" style="stop-color:#4B76C6"/>
			<stop  offset="0.9846" style="stop-color:#8EA2D7"/>
		</linearGradient>
		<path class="st8" d="M940.4,518.8c-22.5,0.3-43.7-3.6-57.2-8.7c-13.6-5.1-20.9-11.2-28.1-17.3c-18.6-15.7-35.5-31.3-55.7-46.9
			c-4.2-3.2-8.6-6.5-17.4-8.9c-14.8-3.9-39.3-3.9-56.4-0.8c-17.1,3.1-27.3,8.6-30.9,14.2c-1.6,2.6-2.5,5.5-9.7,7.2
			c-4.2,1-10,1.3-14.5,2.2c-7.2,1.4-10.1,4-12.5,6.4c-12.1,11.8-24.2,23.5-36.3,35.3c-13.4,3.3-31.8,6.7-45.5,3.5
			c-6-1.4-8.3-3.7-11.3-5.7c-10.6-7.1-33-12.2-53.9-17.2c-23.7,0.6-48.3,0.4-72,1c-14.5,0.4-30.6,1-39.7,3.8
			c-7.1,2.2-8.1,5.1-8.4,7.9c-1.9,15.1,7.1,30.2,16,45.1c12.2,20.3,24.3,40.5,36.5,60.8c7.4,12.4,16.5,25.7,52,34.8
			c25.6,6.6,61.7,10,97,12.9c101.8,8.1,208.2,12.8,315.3,13.8c11.3,0.1,23.4,0.1,32.7-1.5c10.4-1.8,14.4-5,17.5-8
			C1005,607.1,996.5,563.6,940.4,518.8z"/>
		
			<linearGradient id="SVGID_9_" gradientUnits="userSpaceOnUse" x1="961.648" y1="-480.1237" x2="964.3713" y2="-793.3074" gradientTransform="matrix(1 0 0 1 0 980)">
			<stop  offset="0" style="stop-color:#4B76C6"/>
			<stop  offset="0.9846" style="stop-color:#8EA2D7"/>
		</linearGradient>
		<path class="st9" d="M1923.6,466.9c-1-24.2-7.7-88.6-28.6-106.6c-18-15.4-19.1-40.4-25.4-61.8c-2.1-7.1-4.9-15-12.3-18.3
			c-7.8-3.5-17.8-0.1-23.5,5.7c-5.7,5.8-8.1,13.5-10.4,20.8c-4.4,14.2-7.9,29.4-16.6,42.1c-5.3,7.7-12.1,14.6-16.9,22.7
			c-6.5,10.9-8.7,23.4-10.8,35.5c-3.5,19.8-1.5,56.6-17.2,71.8c-11.4-10.9-18.8,4.6-31.1,1.2c-21.9-6.1-39-44.9-47.8-61
			c-13.5-24.5-24.7-50.1-33.3-76.2c-3-9.1-6.1-18.9-14.3-25.1c-2.1-1.6-4.4-2.8-6.3-4.6c-2.5-2.3-4-5.1-5.4-8
			c-6.2-12.6-6.5-28.1-16.2-39.3c-17.7-20.6-35.5-1.7-42.5,16.2c-10.6,27.3-25.1,43.4-41.5,67.6c-14.2,20.9-15.3,47.7-20.7,71.1
			c-14.1,62-31.8,123.8-62.2,181.4c-4.2,8-9.7,16.7-19.4,19.1c-6.4,1.6-13.4,0.1-19.5-2.3c-29.5-11.6-43.8-40.5-56-66.7
			c-57.5-123.5-132.5-238.4-200.7-357.1c-8-14-19.3-29.8-35.2-29c-9.3,0.5-17.3,6.8-23.8,13.4c-29.7,30.1-44.2,71.6-63.1,109.5
			c-9.5,19-20.2,37.3-31.8,55c-10.6,16.2-22.2,32.1-37.2,44.3c-7.1,5.8-15.8,10.9-24.8,9.6c-12.7-1.9-20.1-15.2-25.6-27
			c-10-21.7-19.9-43.3-29.9-65c-3.1-6.8-6.7-14.1-13.4-17.5c-9.4-4.7-21.1,0.7-27.4,9.2c-21.5,29.1-24,71.5-34.7,104.4
			c-12,36.9-26,73.3-41.1,109.4c-15.7,37.4-36.1,77.7-77.5,94.5c-43.9,17.8-98,1.6-132.9-27.7c-34.8-29.3-54.7-69.3-73.6-108.1
			c-18.2-37.3-36.4-74.6-54.6-111.8c-8.8-18.1-15.8-39.1-27.3-56c-6.5-9.5-18.4-17.8-20.5-29.2c-1-5.1,0.3-10.4-1.2-15.5
			c-4.6-15.9-31.8-19.8-45.6-9.2c-16.4,12.6-19.1,43.9-23.7,60.5c-9,32.9-20.3,65.5-33.7,97.5c-9.8,23.5-23.4,54.9-61.9,58.1
			c-16.9,1.4-32.8-8.1-40.5-19.7c-11-16.5-16.6-35.2-21.5-53.6c-1.4-5.1-3.2-10.7-8.3-13.4c-6.4-3.3-15.2-0.5-21.9-3.3
			c-10.9-4.6-8.6-19-15.5-27.8c-6.5-8.2-19.6-9.6-31-10.2c-7.8-0.4-15.8-0.8-23.5,0.9C5.3,346,1.3,424.1,0,451.1v107.6v81.5h1922.5
			L1923.6,466.9z"/>
		<g>
			
				<linearGradient id="SVGID_10_" gradientUnits="userSpaceOnUse" x1="966.7237" y1="-457.793" x2="964.0946" y2="-363.1408" gradientTransform="matrix(1 0 0 1 0 980)">
				<stop  offset="0" style="stop-color:#1E3A95"/>
				<stop  offset="0.9846" style="stop-color:#011878"/>
			</linearGradient>
			<path class="st10" d="M1922.5,457.8c-1.6-0.5-3.1-1.1-4.7-1.6c0.1,2,0.2,4,0.2,6c-3.7-1.8-8.8-1-11.6,1.9
				c-2.8,2.9-2.9,7.5-0.4,10.5c-3.5-1.4-8.1,0-10,3s-0.7,7.2,2.5,9.2c-4.9-2.6-12-1.6-15.6,2.4c-3.7,4-3.5,10.3,0.3,14.1
				c-6.5-2.3-14.8,2.2-15.5,8.4c-1.3-1-3.5-0.9-4.7,0.2s-1.2,3.1,0,4.2c-1.9-3.4-8.6-3.1-10,0.5c-1.7-1.8-6.3-1.4-9.8-0.1
				c0.6-1.1,0.8-2.4,0.3-3.5c-1.1-2.5-4.9-3.6-7.4-2.1c1.9-1.3,1.9-4.2,0-5.6c-1.8-1.4-5-0.8-6.1,1.1c2.2-1.9,2.8-5.2,1.3-7.7
				c-1.5-2.4-4.9-3.8-7.9-3.3c2.2-3.1,1.1-7.8-2.4-9.9s-8.7-1.2-11.1,1.9c-3.1-3.2-8.8-4.2-13-2.1c-4.2,2-6.3,6.9-4.9,10.9
				c-2.8-0.8-6.1,0.4-7.5,2.7c-1.4,2.3-0.7,5.5,1.6,7.1c-4.8,0.7-9.6,11.6-6.4,14.8c-1.1-0.4-2.5,0.6-2.4,1.6
				c-0.5-2.1-3-3.8-5.4-3.6c-2.5,0.1-4.7,2-4.9,4.2c-4.5-3.1-12.3-0.4-13.2,4.7c-1.9-1.3-4.9-1.2-6.6,0.3s-1.9,4.2-0.5,5.9
				c-3.1-1-7.7,2.1-8.8,4.9c-1.2-1.8-4.2-2.5-6.2-1.3s-2.5,3.9-1,5.6c-2.8-1.3-6.6-0.3-8.1,2.2s-0.4,5.9,2.3,7.3
				c-4.5-2.2-10.8-0.3-13,3.8s0.3,9.7,5,11.3c-3.6-1.2-8,0.4-9.7,3.4s-0.6,7.1,2.6,9c-2.3-1.7-5.9-1.7-8.3-0.2s-3.5,4.6-2.5,7.1
				c-4.6-3.2-13.8-0.5-14.1,4.7c0.5-5.3,0.9-10.5,1.4-15.8c-3,0.7-6,1.3-9,2c2.9-1.4,3.1-5.7,0.4-7.3c-1.8-1.1-4.4-0.6-5.9,0.8
				c0.6-2.2-0.2-4.8-2.2-6.3c-2.9-2-7.7-1.4-9.7,1.3c1.7-2.8,1-6.7-1.7-8.9s-9.2-3.2-12.2-1.4c1.6-2.4-0.1-6-3.2-6.6
				c-2.5-0.5-5.2,1.2-5.9,3.4c-0.2-1.6-1.7-3.2-3.5-3.3s-3.5,1.1-4.1,2.6c-0.1-1.3-0.8-2.5-2-3.2c-1.1-0.7-2.9-1.3-4.4-1.2
				c2.9-0.8,5.6-2.5,7-5c1.7-2.9,1.4-6.8-1.2-9.1c-2.5-2.4-7.2-2.8-9.9-0.6c3.6-2.6,3.9-8.1,0.5-11s-9.5-2.4-12.3,0.9
				c0.4-3.5-3.5-6.8-7.3-6.2c-3.9,0.5-6.4,4.8-4.8,8c-0.3-2-2.9-3.5-5.1-3c-1.4,0.3-3.4,2.4-4.5,4.3c0.1-2.7-1-5.4-3.2-7.3
				c-0.1,0-0.1,0.1-0.2,0.2c-0.6-0.9-1.1-1.9-1.6-2.8c-0.8-1.4-2.1-2.8-3.8-2.9c-1.1-0.1-2.2,0.7-2.5,1.6c-1.1-3.2-4.5-5.7-8.3-5.7
				c0.6,1.9,1.2,3.8,1.8,5.7c-2.1-4.2-8-6.5-12.8-4.9c0,0.7,0,1.4,0,2c-1.6,1.9-1.5,4.6-0.2,6.6c-1.9-1.1-4.4-1.4-6.4-0.5
				c-1.3,0.6-2.7,1.8-3.6,3.2c-0.3-0.5-0.7-0.9-1.2-1.2c-1.3-0.8-3.1-0.6-4.5,0.1c0.4-1.3,0.1-2.8-1.1-3.6c-2-1.4-5.5-0.1-5.9,2.1
				c0.7-2.1,1.4-4.2,2.1-6.3c-3.7-0.6-7.6,1.7-8.6,4.8c0.5-1.6,0.9-3.2,1.4-4.8c-3.7,0.7-7.4,2.9-8,6.3c1.2-3.3-0.6-7.3-4-8.9
				c0,0.6-0.1,1.2-0.1,1.8c-0.8-2.9-3.3-5.4-6.5-6.3c0.5,1.7,1,3.4,1.4,5.1c-0.9-4-5.6-6.9-10.1-6.2c0.5,1.5,0.9,3.1,1.4,4.6
				c-0.6,0.2-1.1,0.5-1.7,0.7c0.3,1,0.6,2,0.9,3c-1.1-0.9-2.3-1.8-3.4-2.7c0.3,4-0.7,8.1-2.8,11.6c0.1-2.8,0.2-5.5,0.3-8.3
				c-1.1,1.2-2.2,2.4-3.2,3.7c0.7-2.2,1.3-4.4,2-6.7c-2.1,0-4.1,1.2-4.8,2.9c1.1-2.5,2.2-5,3.3-7.4c-7.3,2.9-12.7,10.1-10.6,17
				c-2.4-5.5-4.8-11-7.3-16.5c-2.7,5.9-5.3,11.8-8,17.8c0.6-2.7,1.1-5.3,1.7-8c-4,1.4-7.2,4.3-8.5,7.9c0-1.8-0.1-3.7-0.1-5.5
				c-1.4,1.7-2.7,3.4-4.1,5c0.4-2.3,0.9-4.7,1.3-7c-5.9,3.3-10.3,8.8-10.7,14.9c-0.1-0.6-0.2-1.6,0-1.4c0.2-2.5,0.4-5,0.6-7.5
				c-1.4,1.2-2.7,2.4-4.1,3.5c-0.1-2-0.1-4-0.2-6c-1.4,0.8-2.3,2.1-2.7,3.5c1-7,2-14,3.1-21c-7.2,5.9-11.9,14.2-13,22.8
				c-3-0.6-5.9,2.6-4.7,5.1c-0.7-1.4-1.3-2.9-2-4.3c-1.1,2.5-3.3,5.9-4.4,8.4c-1.9-6.3-7.2-11.6-14-14.1c1.1,3.1,2.2,6.2,3.3,9.2
				c-1.1-0.7-2.3-1.4-3.4-2.1c0,2.3,0.1,4.6,0.1,7c-2.4-6.2-11.2-9.7-18-7.2c2.5,3.5,4.1,8.2,6.4,11.9c-0.7-0.6-1.8-1-2.7-0.5
				c-1.3,0.6-1.7,2.5-0.6,3.4c-1.1-1.7-3.9-2.4-5.8-1.4s-2,3.2-0.8,4.9c-1.9-2.9-6.9-3.9-9.9-1.9c-3.1,2-3.6,6.5-1.1,9
				c-1.9-1.1-4.7-0.8-6.2,0.8c-1.5,1.5-1.5,4-0.1,5.6c-1.7-1-4.2-0.8-5.7,0.4c-0.7,0.6-1.8,1.4-2.6,2.3c0-1.2-0.3-2.3-1.1-3.3
				c-1.6-1.8-4.6-2.4-6.9-1.4c0.9-3.7-3.7-7.4-7.7-6.4c-4,1.1-5.5,6.5-2.4,9.1c-3.2-2-8.1-1-10,2.1c-1.9,3-0.1,7.3,3.5,8.6
				c-2.6-1.6-6.5-1.2-8.6,0.9c-2.1,2.1-2.1,5.7,0.1,7.7c-1.5-2.3-5.4-2.9-7.7-1.3c-2.3,1.6-2.5,5.1-0.4,7c-2-1.6-5.3-1.6-7.3-0.2
				c-0.9,0.6-1.6,1.5-2.1,2.5c-0.7-2-2.4-3.8-4.7-4.4c-0.2,0.8-0.3,1.7-0.5,2.5c0.7-1.8-0.6-3.9-2.6-4.4c-1.5-0.4-3.2,0.3-4.1,1.5
				c0.2-1.2-0.6-2.6-2-2.9c-1.9-0.5-4,1.2-3.7,2.9c0.1-3.3,0.1-6.8-2.1-9.5c-2.2-2.6-7.6-3.2-9.2-0.3c-0.1-2.5-0.3-5-1.6-7.2
				c-1.3-2.2-3.8-3.9-6.6-3.8c-2.4,0.1-4.5,2.1-4.5,4.1c-0.4-1.8-2.1-3.3-4.2-3.6c-1.8-0.2-3.7,1.1-4.7,2.6c0.1-1.1-0.3-2.2-1.2-2.8
				c-1.6-1-4.1-0.4-4.9,1.2c2-2.5,1.6-6.2-0.9-8.3c-2.4-2.1-6.6-2.3-9.3-0.5c-0.1-3.4-4.1-6.3-7.9-5.7s-6.4,4.5-5.2,7.8
				c-1.5-1.6-4.2-2.1-6.3-1.1c-2,1-3.1,3.3-2.5,5.3c-0.6-1.7-2.6-3-4.7-2.8c-2,0.2-4.2,1.9-4.4,3.7c0.9-2.6,1.7-5.3,1.3-8
				c-0.4-2.7-2.6-5.4-5.6-5.7c-2.1-0.3-4.3,1.2-5,2.9c-0.6-1.5-2.3-2.8-4.1-2.7c-2.7,0.1-4.7,3.1-3.6,5.3c-1.6-1.8-4.4-2.7-7-2.1
				c-0.8,0.2-1.8,0.2-2.7,0.3c2.2-1.9,3.5-4.8,2.7-7.5c-0.4-1.2-1.7-2.5-2.9-2.3c1.9-0.9,2.4-3.6,0.8-4.9c-1.2-1-3.2-0.9-4.5,0
				c0.4-1.4-0.2-3.1-1.7-3.7c-2.2-0.9-5.1,1.1-4.8,3.2c-0.8-1.8-2.8-3.2-5-3.3c-1.1-0.1-2.9,0.1-4.4,0.5c1.4-1.4,2-3.4,1.4-5.2
				c-0.5-1.5-1.8-2.8-3.5-3.2c-1.1-0.3-2.3,0-3.3,0.6c0.6-1.3,0.1-3-1.2-3.8c-1.8-1.1-4.4-0.7-6.2,0.5c-1.8,1.2-3.2,2.1-4.3,3.9
				c1.1-1.3,1.1-3.2,0.1-4.5s-3-2-4.7-1.6c-3.6,0.8-4.5,5.1-7.3,7.4c-3,2.5-8.4,2.6-10.6-0.4c1.8,1.5,5.3,0.8,6.2-1.3
				c0.9-2.1-1.3-4.7-3.8-4.5c2.2-1.3,4.2-3.5,3.8-5.9c-0.3-2-3.1-3.6-5.1-2.8c1.8-1.5,1.2-4.9-1.1-6c-2.7-1.3-6.2,0-8,2.1
				c-1.4,1.7-2.9,3.5-3.5,5.5c-0.1-1-0.8-1.9-1.8-2.1c-0.9-0.2-1.8,0-2.5,0.5c0.1-1-0.2-2-1.2-2.6c-1.2-0.7-2.9-0.3-3.8,0.7
				c1.6-3.5,1-7.9-2.4-10.2c-3-2-7.6-1.5-10,1.1c-2.4,2.5-2.2,6.7,0.5,9c-1.1-0.9-2.8-1.3-4.2-0.9c1.9-1.5,2.5-4.4,0.8-6.2
				c-2-2.2-6.6-1.8-8.1,0.7c1-1.9-0.4-4.4-2.7-4.8c-1.5-0.3-4,0.6-5.4,1.8c1.1-2.6,0.8-5.7-1.1-8c-2.4-2.8-7-4-10.7-2.7
				c-0.9-2.1-4.1-3-6.2-1.7c-1.3,0.8-1.8,2.3-1.5,3.7c-0.9-0.8-2.1-1.4-3.4-1.3c-2.2,0.2-4,2.1-3.7,4.1c-1.4-3.6-4.7-6.8-8.9-7.5
				c-4.2-0.7-9,1.5-10.1,5.2s2.5,8,6.8,7.6c-2.8,0.8-4.9,3.2-4.2,5.3c-1.5-2-4.6-2.9-7-1.9c-0.8-3-4.7-5-7.9-4.1
				c0.4,0.6,0.8,1.3,1.2,1.9c-2-2.1-4.1-4.3-6.8-5.8s-6.1-2.2-9-1.2s-5,4.1-3.9,6.8c-2.8-1.2-6.6,0.4-7.4,3.1
				c-0.7,2.7,1.8,5.7,4.9,5.8c-3.1,1.1-3.9,6-1.2,7.6c-2.7-1.2-5.4-2.4-8.1-3.5c-0.5,0.9-0.9,1.9-1.1,3c0-1.6-2-3-3.7-2.6
				c-1.8,0.5-2.6,2.6-1.6,4c-1.8-2-4.3-3.8-7.1-4.3c-2.9-0.6-6.2,0.3-7.8,2.5s-0.7,5.7,2,6.6c-1.6-0.4-3.5,0.2-4.4,1.5
				s-0.6,3.1,0.6,4.1c-1.8-0.1-3.7,0.9-4.4,2.5c-0.6,1.5,0,3.4,1.5,4.4c-2.4-0.3-5.3,0.3-6.8,1.9c0.5-1.4,0.3-3-0.7-4.2
				c-1.3-1.7-3.9-2.5-6.1-1.9c1.4-0.8,2.1-2.6,1.5-4s-2.3-2.4-4-2.2c2.7-1.8,2.4-6.1-0.5-7.6s-7.2,0.5-7.6,3.4
				c-2.8,1.4-2.2,5.8,0.8,6.6c-1.4-0.1-2.8,0.9-3.1,2.1c-0.3,1.2,0.5,2.6,1.9,3.1c-0.7,0.2-1.5,0.4-2.2,0.7c0.6-0.9,0.3-2.1-0.6-2.7
				c-0.9-0.6-2.3-0.5-3.1,0.2c-0.1-2.9-3.4-5.3-6.6-4.8c-3.2,0.5-5.3,3.9-4.2,6.6c-1.3-0.8-3.3-0.4-4.2,0.8s-0.4,3,0.9,3.7
				c-2.1,0.2-2.9,3-1.6,4.3c-1.6-0.8-4.1,0.2-4.7,1.9c-0.7,1.9,0.7,4,2.5,5.1c1.9,1.1,4.2,1.4,6.4,1.7c-2.6-0.6-5.1,2.4-3.7,4.5
				c-0.5-1.5-2.2-2.5-3.9-2.4s-3.3,1.4-3.5,2.9c0-1.1-1.1-2.2-2.3-2.3c-1.3-0.1-3.6,1-3.8,2.1c-0.2-4.1-6.2-6.8-10.1-4.6
				c0.3-1.2-0.8-2.5-2.1-2.7c-1.4-0.2-2.8,0.7-3,2c-1.7-3.3-3.5-6.6-6.6-9s-7.7-3.4-11.2-1.6c-2.2,1.2-3.3,3.8-2.8,6
				c-1.9-1.4-4.7-1.9-7-1c-3.5,1.4-5,5.9-2.8,8.8c-1.8-1.8-5.7-1.3-6.8,0.9c-0.9,1.8,0.3,4,2.2,4.8c-3-0.3-6.1,1.6-6.8,4.2
				c-7.9-6.7-21.5-8-30.5-2.3c-2.3-1.9-6.7-1.3-8.2,1.1c-4.1-2-10,0.6-10.8,4.7c-3-5.2-9.1-8.6-15.5-9.5c-0.6-1.7-2.2-3.2-4.2-3.5
				c-3.1-0.5-6.4,1.8-6.6,4.6c-0.1,0-0.1,0-0.2,0.1c-0.8-0.6-2.1-0.7-3-0.1c-0.7,0.5-1,1.3-0.9,2.1c-0.2,0.1-0.4,0.3-0.6,0.4
				c-0.5-0.1-0.9-0.3-1.4-0.4c1.3-0.5,2.2-1.8,1.9-3.1c-0.3-1.2-1.7-2.2-3.1-2.1c3-0.8,3.6-5.2,0.8-6.6c-0.4-3-4.7-4.9-7.6-3.4
				c-2.9,1.5-3.2,5.8-0.5,7.6c-1.7-0.2-3.4,0.8-4,2.2s0.1,3.2,1.5,4c-2.2-0.6-4.8,0.2-6.1,1.9c-0.9,1.2-1.1,2.8-0.7,4.2
				c-1.4-1.6-4.3-2.2-6.8-1.9c1.5-1,2.1-2.9,1.5-4.4s-2.5-2.6-4.4-2.5c1.2-1.1,1.5-2.9,0.6-4.1c-0.9-1.3-2.8-1.9-4.4-1.5
				c2.7-1,3.6-4.4,2-6.6c-1.6-2.2-4.9-3.1-7.8-2.5c-2.9,0.6-5.3,2.3-7.1,4.3c1-1.4,0.2-3.5-1.6-4s-3.8,0.9-3.7,2.6
				c-0.2-1-0.6-2-1.1-3c-2.7,1.2-5.4,2.4-8.1,3.5c2.7-1.7,1.9-6.6-1.2-7.6c3.1-0.1,5.7-3.1,4.9-5.8c-0.7-2.7-4.6-4.3-7.4-3.1
				c1.1-2.6-1-5.7-3.9-6.8c-2.9-1-6.4-0.3-9,1.2c-2.7,1.5-4.8,3.7-6.8,5.8c0.4-0.6,0.8-1.3,1.2-1.9c-3.3-0.9-7.2,1.1-7.9,4.1
				c-2.4-1.1-5.6-0.1-7,1.9c0.6-2.2-1.5-4.5-4.2-5.3c4.3,0.4,7.9-4,6.8-7.6c-1.1-3.7-5.9-5.9-10.1-5.2c-4.2,0.7-7.5,3.9-8.9,7.5
				c0.2-1.9-1.6-3.9-3.7-4.1c-1.3-0.1-2.5,0.5-3.4,1.3c0.2-1.4-0.2-2.9-1.5-3.7c-2.1-1.3-5.3-0.3-6.2,1.7c-3.7-1.3-8.3-0.1-10.7,2.7
				c-1.9,2.2-2.3,5.4-1.1,8c-1.4-1.2-3.9-2.1-5.4-1.8c-2.3,0.4-3.7,3-2.7,4.8c-1.5-2.5-6.1-2.9-8.1-0.7c-1.6,1.8-1.1,4.7,0.8,6.2
				c-1.4-0.3-3.1,0.1-4.2,0.9c2.6-2.3,2.9-6.5,0.5-9s-7.1-3-10-1.1c-3.4,2.2-3.9,6.6-2.4,10.2c-0.9-1-2.6-1.4-3.8-0.7
				c-1,0.5-1.3,1.6-1.2,2.6c-0.7-0.5-1.6-0.8-2.5-0.5c-1,0.3-1.7,1.2-1.8,2.1c-0.6-2-2.1-3.8-3.5-5.5c-1.8-2.2-5.3-3.4-8-2.1
				c-2.4,1.1-2.9,4.5-1.1,6c-1.9-0.7-4.7,0.8-5.1,2.8c-0.4,2.4,1.5,4.6,3.8,5.9c-2.5-0.1-4.6,2.4-3.8,4.5c0.9,2.1,4.4,2.8,6.2,1.3
				c-2.2,3.1-7.6,2.9-10.6,0.4c-2.8-2.3-3.6-6.5-7.3-7.4c-1.7-0.4-3.7,0.3-4.7,1.6s-1,3.2,0.1,4.5c-1.1-1.7-2.5-2.7-4.3-3.9
				s-4.4-1.6-6.2-0.5c-1.3,0.8-1.8,2.6-1.2,3.8c-0.9-0.6-2.1-0.9-3.3-0.6c-1.7,0.4-3,1.7-3.5,3.2c-0.6,1.8,0,3.8,1.4,5.2
				c-1.6-0.4-3.3-0.5-4.4-0.5c-2.2,0.1-4.2,1.5-5,3.3c0.3-2.1-2.6-4.1-4.8-3.2c-1.5,0.6-2.1,2.3-1.7,3.7c-1.3-0.9-3.3-1-4.5,0
				c-1.6,1.3-1,4,0.8,4.9c-1.2-0.2-2.6,1.1-2.9,2.3c-0.8,2.7,0.4,5.6,2.7,7.5c-0.9-0.1-1.8-0.1-2.7-0.3c-2.5-0.5-5.3,0.4-7,2.1
				c1.1-2.2-0.9-5.1-3.6-5.3c-1.9-0.1-3.5,1.2-4.1,2.7c-0.6-1.7-2.8-3.2-5-2.9c-3,0.4-5.1,3-5.6,5.7c-0.4,2.7,0.4,5.4,1.3,8
				c-0.2-1.8-2.4-3.6-4.4-3.7c-2-0.2-4.1,1.1-4.7,2.8c0.7-2-0.4-4.3-2.5-5.3c-2-1-4.8-0.5-6.3,1.1c1.2-3.3-1.4-7.2-5.2-7.8
				c-3.8-0.6-7.8,2.3-7.9,5.7c-2.7-1.8-6.9-1.6-9.3,0.5s-2.8,5.8-0.9,8.3c-0.8-1.6-3.3-2.2-4.9-1.2c-1,0.6-1.4,1.7-1.2,2.8
				c-1.1-1.5-3-2.8-4.7-2.6c-2.1,0.2-3.7,1.8-4.2,3.6c0-2-2.1-4-4.5-4.1c-2.8-0.2-5.3,1.6-6.6,3.8c-1.3,2.2-1.5,4.7-1.6,7.2
				c-1.7-2.9-7-2.3-9.2,0.3s-2.2,6.2-2.1,9.5c0.3-1.7-1.8-3.3-3.7-2.9c-1.4,0.3-2.1,1.7-2,2.9c-0.9-1.2-2.6-1.9-4.1-1.5
				c-2,0.5-3.3,2.7-2.6,4.4c-0.2-0.8-0.3-1.7-0.5-2.5c-2.3,0.6-4,2.4-4.7,4.4c-0.5-1-1.2-1.9-2.1-2.5c-2.1-1.5-5.3-1.4-7.3,0.2
				c2.1-1.8,1.9-5.3-0.4-7c-2.3-1.6-6.2-1-7.7,1.3c2.1-2.1,2.2-5.6,0.1-7.7c-2.1-2.1-6-2.6-8.6-0.9c3.6-1.3,5.3-5.6,3.5-8.6
				c-1.9-3-6.8-4.1-10-2.1c3-2.6,1.6-8-2.4-9.1s-8.6,2.7-7.7,6.4c-2.3-1-5.3-0.4-6.9,1.4c-0.8,0.9-1.2,2.1-1.1,3.3
				c-0.8-0.9-1.9-1.7-2.6-2.3c-1.5-1.2-4-1.4-5.7-0.4c1.5-1.5,1.4-4-0.1-5.5s-4.3-1.8-6.2-0.8c2.5-2.5,2-7-1.1-9s-8-1.1-9.9,1.9
				c1.2-1.7,1.1-3.9-0.8-4.9s-4.7-0.3-5.8,1.4c1.1-0.9,0.8-2.8-0.6-3.4c-0.9-0.4-2-0.1-2.7,0.5c2.3-3.7,3.9-8.4,6.4-11.9
				c-6.8-2.5-15.6,1-18,7.2c0-2.3,0.1-4.6,0.1-7c-1.1,0.7-2.3,1.4-3.4,2.1c1.1-3.1,2.2-6.2,3.3-9.2c-6.7,2.5-12.1,7.9-14,14.1
				c-1.1-2.5-3.3-5.9-4.4-8.4c-0.7,1.4-1.3,2.9-2,4.3c1.2-2.5-1.7-5.7-4.7-5.1c-1.1-8.7-5.8-16.9-13-22.8c1,7,2,14,3.1,21
				c-0.4-1.4-1.4-2.7-2.7-3.5c-0.1,2-0.1,4-0.2,6c-1.4-1.2-2.7-2.4-4.1-3.5c0.2,2.5,0.4,5,0.6,7.5c0.2-0.1,0,0.8,0,1.4
				c-0.3-6.2-4.7-11.6-10.7-14.9c0.4,2.3,0.9,4.7,1.3,7c-1.4-1.7-2.7-3.4-4.1-5c0,1.8-0.1,3.7-0.1,5.5c-1.4-3.6-4.6-6.5-8.5-7.9
				c0.6,2.7,1.1,5.3,1.7,8c-2.7-5.9-5.3-11.8-8-17.8c-2.4,5.5-4.8,11-7.3,16.5c2.1-6.9-3.3-14.1-10.6-17c1.1,2.5,2.2,5,3.3,7.4
				c-0.8-1.7-2.8-2.9-4.8-2.9c0.7,2.2,1.3,4.4,2,6.7c-1.1-1.2-2.2-2.4-3.2-3.7c0.1,2.8,0.2,5.5,0.3,8.3c-2.1-3.5-3.1-7.6-2.8-11.6
				c-1.1,0.9-2.3,1.8-3.4,2.7c0.3-1,0.6-2,0.9-3c-0.6-0.2-1.1-0.5-1.7-0.7c0.5-1.5,0.9-3.1,1.4-4.6c-4.5-0.7-9.3,2.3-10.1,6.2
				c0.5-1.7,1-3.4,1.4-5.1c-3.2,0.9-5.7,3.4-6.5,6.3c0-0.6-0.1-1.2-0.1-1.8c-3.4,1.7-5.2,5.6-4,8.9c-0.6-3.4-4.2-5.6-8-6.3
				c0.5,1.6,0.9,3.2,1.4,4.8c-1-3.2-4.9-5.4-8.6-4.8c0.7,2.1,1.4,4.2,2.1,6.3c-0.4-2.3-3.9-3.5-5.9-2.1c-1.2,0.8-1.5,2.3-1.1,3.6
				c-1.4-0.7-3.1-0.9-4.5-0.1c-0.5,0.3-0.9,0.7-1.2,1.2c-1-1.4-2.3-2.6-3.6-3.2c-2-0.9-4.5-0.6-6.4,0.5c1.3-2,1.3-4.7-0.2-6.6
				c0-0.7,0-1.4,0-2c-4.8-1.5-10.7,0.8-12.8,4.9c0.6-1.9,1.2-3.8,1.8-5.7c-3.7,0.1-7.2,2.6-8.3,5.7c-0.3-0.9-1.4-1.7-2.5-1.6
				c-1.7,0.1-3,1.5-3.8,2.9c-0.5,0.9-1,1.9-1.6,2.8c-0.1-0.1-0.1-0.2-0.2-0.2c-2.2,1.9-3.3,4.6-3.2,7.3c-1.1-1.9-3.1-3.9-4.5-4.3
				c-2.2-0.5-4.8,1-5.1,3c1.6-3.2-0.9-7.4-4.8-8c-3.9-0.5-7.8,2.8-7.3,6.2c-2.8-3.3-8.9-3.8-12.3-0.9c-3.4,2.9-3.1,8.4,0.5,11
				c-2.7-2.2-7.4-1.8-9.9,0.6c-2.5,2.4-2.9,6.2-1.2,9.1c1.4,2.4,4,4.1,7,5c-1.5-0.1-3.2,0.5-4.4,1.2s-1.9,2-2,3.2
				c-0.6-1.5-2.3-2.7-4.1-2.6c-1.9,0.1-3.3,1.7-3.5,3.3c-0.7-2.2-3.3-3.9-5.9-3.4c-3.1,0.6-4.8,4.2-3.2,6.6c-3-1.8-9.5-0.8-12.2,1.4
				s-3.4,6-1.7,8.9c-2.1-2.7-6.8-3.4-9.7-1.3c-2.1,1.4-2.8,4-2.2,6.3c-1.6-1.3-4.1-1.8-5.9-0.8c-2.8,1.6-2.5,5.9,0.4,7.3
				c-3-0.7-6-1.3-9-2c0.5,5.3,0.9,10.5,1.4,15.8c-0.7,0.6-1.9,0.3-2.6,1v20.2c6.5,0,1925.6-5.6,1925.6-5.6v-181
				C1925.1,454.5,1921.9,457.8,1922.5,457.8z"/>
			
				<linearGradient id="SVGID_11_" gradientUnits="userSpaceOnUse" x1="1923.0634" y1="-433.9871" x2="1920.5104" y2="-342.0757" gradientTransform="matrix(1 0 0 1 0 980)">
				<stop  offset="0" style="stop-color:#1E3A95"/>
				<stop  offset="0.9846" style="stop-color:#011878"/>
			</linearGradient>
			<path class="st11" d="M1925.6,453.3v0.3C1925.7,453.4,1925.7,453.3,1925.6,453.3z"/>
		</g>
	</g>
	
		<linearGradient id="SVGID_12_" gradientUnits="userSpaceOnUse" x1="1391.7914" y1="-737.2272" x2="1397.5376" y2="-785.113" gradientTransform="matrix(1 0 0 1 0 980)">
		<stop  offset="0" style="stop-color:#F684AC"/>
		<stop  offset="0.9897" style="stop-color:#FDA4B9"/>
	</linearGradient>
	<path class="st12" d="M1416.9,223L1416.9,223c-11.2,11.2-29.4,11.2-40.6,0l0,0c-11.2-11.2-11.2-29.4,0-40.6l0,0
		c11.2-11.2,29.4-11.2,40.6,0l0,0C1428.1,193.6,1428.1,211.8,1416.9,223z"/>
	<g>
		
			<linearGradient id="SVGID_13_" gradientUnits="userSpaceOnUse" x1="962.968" y1="-393.9197" x2="947.4204" y2="69.9167" gradientTransform="matrix(1 0 0 1 0 980)">
			<stop  offset="5.128210e-03" style="stop-color:#1E3A95"/>
			<stop  offset="0.9897" style="stop-color:#8EA2D7"/>
		</linearGradient>
		<path class="st13" d="M1920.3,718.1c-1,10.9-7.7,39.9-28.6,47.9c-18,6.9-19.1,18.2-25.3,27.8c-2.1,3.2-4.9,6.7-12.3,8.2
			c-7.8,1.6-17.8,0-23.5-2.6s-8.1-6.1-10.4-9.4c-4.4-6.4-7.9-13.2-16.6-19c-5.3-3.5-12.1-6.6-16.8-10.2c-6.5-4.9-8.7-10.5-10.8-16
			c-3.5-8.9-1.5-25.4-17.1-32.3c-11.4,4.9-18.8-2.1-31-0.5c-21.9,2.8-38.9,20.2-47.8,27.4c-13.5,11-24.6,22.5-33.2,34.3
			c-3,4.1-6.1,8.5-14.3,11.3c-2.1,0.7-4.4,1.3-6.3,2c-2.5,1-4,2.3-5.4,3.6c-6.2,5.7-6.5,12.6-16.1,17.7c-17.7,9.3-35.5,0.8-42.4-7.3
			c-10.6-12.3-25-19.5-41.5-30.4c-14.2-9.4-15.3-21.4-20.6-32c-14.1-27.9-31.7-55.7-62.1-81.6c-4.2-3.6-9.7-7.5-19.4-8.6
			c-6.4-0.7-13.4,0-19.4,1c-29.5,5.2-43.7,18.2-55.9,30c-57.4,55.6-132.3,107.3-200.4,160.6c-8,6.3-19.2,13.4-35.2,13.1
			c-9.3-0.2-17.2-3-23.8-6c-29.6-13.5-44.1-32.2-63-49.3c-9.5-8.5-20.2-16.8-31.8-24.7c-10.6-7.3-22.2-14.4-37.1-19.9
			c-7.1-2.6-15.8-4.9-24.8-4.3c-12.7,0.8-20.1,6.8-25.5,12.1c-10,9.7-19.9,19.5-29.9,29.2c-3.1,3.1-6.7,6.3-13.4,7.9
			c-9.3,2.1-21.1-0.3-27.3-4.1c-21.5-13.1-23.9-32.1-34.6-47c-12-16.6-25.9-33-41-49.2c-15.6-16.8-36-35-77.4-42.5
			c-43.8-8-97.9-0.7-132.7,12.5S491,699,472.1,716.4c-18.2,16.8-36.3,33.5-54.5,50.3c-8.8,8.1-15.8,17.6-27.3,25.2
			c-6.5,4.3-18.4,8-20.5,13.1c-0.9,2.3,0.3,4.7-1.2,7c-4.6,7.2-31.7,8.9-45.6,4.1c-16.4-5.7-19.1-19.7-23.7-27.2
			c-9-14.8-20.2-29.5-33.6-43.9c-9.8-10.6-23.3-24.7-61.8-26.1c-16.9-0.6-32.7,3.6-40.5,8.9c-11,7.4-16.5,15.8-21.5,24.1
			c-1.4,2.3-3.2,4.8-8.3,6c-6.4,1.5-15.2,0.2-21.9,1.5c-10.9,2.1-8.6,8.6-15.5,12.5c-6.5,3.7-19.5,4.3-31,4.6
			c-7.8,0.2-15.8,0.4-23.4-0.4c-37.1-3.7-41.1-38.9-42.4-51v-48.4v-36.6h1919.8L1920.3,718.1z"/>
		<g>
			
				<linearGradient id="SVGID_14_" gradientUnits="userSpaceOnUse" x1="961.9323" y1="1863.3762" x2="958.8576" y2="1974.0635" gradientTransform="matrix(1 0 0 -0.6257 0 1895.1976)">
				<stop  offset="0" style="stop-color:#1E3A95"/>
				<stop  offset="0.9846" style="stop-color:#011878"/>
			</linearGradient>
			<path class="st14" d="M1555.8,715.1c41-12.9,81.5-29.7,123.3-37.1c0-0.2-0.1-0.4-0.1-0.7c0,0.2,0.2,0.4,0.2,0.6
				c27.7-4.9,55.9-5.7,85.2,1.6c28.8,7.1,53.9,22,82.4,29.8c23.7,6.5,48.1,9.3,72.8,9.7v-74.5c0,0-1916.3-4.3-1922.8-4.3
				c0,9,9.9,67.9,2.8,68.8c27-3.5,54.3,1.2,81.3,4.8c54.9,7.3,110.7,9.8,166.1,7.5c17.9-0.7,39.1-2.5,52.3-14.4
				c12.5-11.4,9-21.3,27.6-26.6c0.7,1.2,7.3,6,8.2,3.2c-0.9,2.8,3.7,5.7,7.7,4.9s5.5-5,2.4-7c3.2,1.5,8.1,0.7,10-1.6
				c1.8-2.3,0.1-5.6-3.4-6.6c2.6,1.2,6.5,0.9,8.6-0.7c2.1-1.6,2.1-4.3-0.1-6c1.5,1.7,5.4,2.2,7.7,1c2.3-1.3,2.5-4,0.4-5.4
				c2,1.2,5.3,1.3,7.3,0.1c0.9-0.5,1.6-1.2,2.1-2c0.7,1.5,2.4,2.9,4.7,3.4c0.2-0.7,0.3-1.3,0.5-2c-0.7,1.4,0.6,3,2.6,3.4
				c1.5,0.3,3.2-0.3,4.1-1.1c-0.2,0.9,0.6,2,2,2.3c1.9,0.4,3.9-0.9,3.7-2.2c-0.1,2.5-0.1,5.3,2.1,7.3s7.5,2.5,9.2,0.2
				c0.1,1.9,0.3,3.8,1.6,5.5c1.3,1.7,3.8,3,6.6,2.9c2.4-0.1,4.5-1.6,4.5-3.2c0.4,1.4,2.1,2.6,4.2,2.7c1.8,0.1,3.7-0.8,4.7-2
				c-0.1,0.8,0.3,1.7,1.2,2.1c1.6,0.8,4.1,0.3,4.9-0.9c-2,1.9-1.6,4.8,0.9,6.4c2.4,1.6,6.6,1.8,9.3,0.4c0.1,2.6,4.1,4.9,7.9,4.4
				s6.4-3.5,5.2-6c1.5,1.2,4.2,1.6,6.3,0.8c2-0.7,3.1-2.5,2.5-4.1c0.6,1.3,2.6,2.3,4.7,2.2c2-0.1,4.2-1.5,4.4-2.9
				c-0.9,2-1.7,4.1-1.3,6.2c0.4,2.1,2.6,4.1,5.6,4.4c2.1,0.2,4.3-0.9,5-2.2c0.6,1.2,2.3,2.2,4.1,2.1c2.7-0.1,4.7-2.4,3.6-4
				c1.6,1.4,4.4,2,6.9,1.6c0.8-0.1,1.8-0.2,2.7-0.2c-2.2,1.5-3.4,3.7-2.7,5.8c0.4,1,1.7,1.9,2.9,1.8c-1.9,0.7-2.4,2.8-0.8,3.8
				c1.2,0.8,3.2,0.7,4.5,0c-0.4,1.1,0.2,2.4,1.7,2.9c2.2,0.7,5.1-0.8,4.8-2.5c0.8,1.4,2.8,2.4,5,2.5c1.1,0.1,2.9-0.1,4.4-0.4
				c-1.4,1.1-2,2.6-1.4,4c0.5,1.1,1.8,2.1,3.5,2.4c1.1,0.2,2.3,0,3.3-0.5c-0.6,1-0.1,2.3,1.2,2.9c1.8,0.9,4.4,0.5,6.2-0.4
				s3.2-1.6,4.3-3c-1.1,1-1.1,2.4-0.1,3.5c1,1,3,1.5,4.7,1.2c3.6-0.7,4.5-3.9,7.3-5.7c3-1.9,8.4-2,10.6,0.3c-1.8-1.2-5.3-0.6-6.2,1
				s1.3,3.6,3.8,3.5c-2.2,1-4.1,2.7-3.8,4.5c0.3,1.6,3.1,2.7,5.1,2.2c-1.8,1.2-1.2,3.7,1.1,4.6c2.7,1,6.2,0,8-1.6
				c1.4-1.3,2.9-2.7,3.5-4.2c0.1,0.7,0.8,1.4,1.8,1.7c0.9,0.2,1.8,0,2.5-0.4c-0.1,0.8,0.2,1.6,1.2,2c1.2,0.5,2.9,0.2,3.8-0.5
				c-1.6,2.7-1,6.1,2.4,7.8c3,1.5,7.6,1.1,10-0.8c2.4-1.9,2.2-5.1-0.5-6.9c1.1,0.7,2.8,1,4.2,0.7c-1.9,1.1-2.5,3.4-0.8,4.7
				c2,1.7,6.6,1.4,8.1-0.5c-1,1.4,0.4,3.4,2.7,3.7c1.5,0.2,4-0.5,5.4-1.4c-1.1,2-0.8,4.4,1.1,6.1c2.4,2.2,7,3,10.7,2.1
				c0.9,1.6,4.1,2.3,6.2,1.3c1.3-0.6,1.8-1.8,1.5-2.8c0.9,0.7,2.1,1.1,3.4,1c2.2-0.1,4-1.6,3.7-3.1c1.4,2.8,4.7,5.2,8.9,5.8
				s9-1.1,10.1-4c1.1-2.8-2.5-6.2-6.7-5.9c2.8-0.7,4.9-2.4,4.2-4.1c1.5,1.5,4.6,2.2,7,1.4c0.8,2.3,4.6,3.8,7.9,3.2
				c-0.4-0.5-0.8-1-1.2-1.5c2,1.6,4.1,3.3,6.8,4.5c2.7,1.1,6.1,1.7,9,0.9s5-3.2,3.9-5.2c2.8,0.9,6.6-0.3,7.4-2.4
				c0.7-2.1-1.8-4.4-4.9-4.5c3.1-0.8,3.9-4.6,1.2-5.9c2.7,0.9,5.4,1.8,8.1,2.7c0.5-0.7,0.9-1.5,1.1-2.3c0,1.3,2,2.3,3.7,2
				c1.8-0.4,2.6-2,1.6-3c1.8,1.6,4.3,2.9,7.1,3.3c2.9,0.4,6.2-0.2,7.8-1.9s0.7-4.4-2-5.1c1.6,0.3,3.5-0.2,4.4-1.2s0.6-2.4-0.6-3.2
				c1.8,0.1,3.7-0.7,4.4-1.9c0.6-1.2,0-2.6-1.5-3.4c2.4,0.2,5.3-0.2,6.8-1.5c-0.5,1.1-0.3,2.3,0.7,3.3c1.3,1.3,3.9,1.9,6.1,1.5
				c-1.4,0.6-2.1,2-1.5,3.1s2.3,1.8,4,1.7c-2.7,1.4-2.4,4.7,0.5,5.8c2.9,1.2,7.2-0.3,7.6-2.6c2.8-1,2.2-4.5-0.8-5.1
				c1.4,0.1,2.8-0.7,3.1-1.6c0.3-1-0.5-2-1.9-2.4c0.5-0.1,0.9-0.2,1.4-0.3c0.2,0.1,0.4,0.2,0.6,0.3c-0.1,0.6,0.2,1.2,0.9,1.6
				c0.9,0.5,2.2,0.4,3-0.1c0.1,0,0.1,0,0.2,0c0.2,2.2,3.5,4,6.6,3.6c2-0.3,3.6-1.4,4.2-2.7c6.4-0.7,12.5-3.3,15.5-7.3
				c0.8,3.2,6.7,5.2,10.8,3.6c1.6,1.9,5.9,2.4,8.2,0.9c9,4.4,22.5,3.4,30.5-1.7c0.7,2,3.9,3.5,6.8,3.3c-1.9,0.6-3.1,2.3-2.2,3.7
				c1.1,1.7,5,2.1,6.8,0.7c-2.2,2.2-0.7,5.7,2.8,6.7c2.3,0.7,5,0.3,7-0.8c-0.4,1.7,0.6,3.7,2.8,4.6c3.5,1.4,8.1,0.6,11.2-1.2
				c3-1.8,4.8-4.4,6.6-6.9c0.2,0.9,1.6,1.7,3,1.5s2.4-1.2,2.1-2.1c3.8,1.7,9.8-0.4,10.1-3.5c0.2,0.9,2.5,1.7,3.8,1.6
				c1.3-0.1,2.3-0.9,2.3-1.7c0.3,1.2,1.8,2.1,3.5,2.2c1.7,0.1,3.4-0.7,3.9-1.9c-1.3,1.6,1.1,3.9,3.7,3.4c-2.2,0.2-4.5,0.5-6.4,1.3
				s-3.2,2.5-2.5,3.9c0.6,1.3,3,2,4.7,1.4c-1.3,1-0.5,3.1,1.6,3.3c-1.3,0.6-1.8,1.9-0.9,2.9c0.9,0.9,2.8,1.2,4.2,0.6
				c-1.1,2.1,1.1,4.6,4.2,5.1c3.2,0.4,6.5-1.5,6.6-3.7c0.8,0.6,2.2,0.6,3.1,0.1c0.9-0.5,1.2-1.4,0.6-2.1c0.7,0.2,1.5,0.3,2.2,0.5
				c-1.3,0.4-2.2,1.4-1.9,2.4s1.7,1.7,3.1,1.6c-3,0.6-3.6,4-0.8,5.1c0.4,2.3,4.7,3.8,7.6,2.6c2.9-1.2,3.2-4.5,0.5-5.8
				c1.7,0.1,3.4-0.6,4-1.7c0.6-1.1-0.1-2.4-1.5-3.1c2.2,0.5,4.8-0.2,6.1-1.5c0.9-0.9,1.1-2.2,0.7-3.3c1.4,1.2,4.3,1.7,6.8,1.5
				c-1.5,0.8-2.1,2.2-1.5,3.4s2.5,2,4.4,1.9c-1.2,0.8-1.5,2.2-0.6,3.2s2.8,1.5,4.4,1.2c-2.7,0.8-3.6,3.4-2,5.1
				c1.6,1.7,4.9,2.4,7.8,1.9c2.9-0.4,5.3-1.8,7.1-3.3c-1,1-0.2,2.7,1.6,3.1c1.8,0.4,3.8-0.7,3.7-2c0.2,0.8,0.6,1.5,1.1,2.3
				c2.7-0.9,5.4-1.8,8.1-2.7c-2.7,1.3-1.9,5,1.2,5.9c-3.1,0.1-5.7,2.4-4.9,4.5c0.7,2.1,4.6,3.3,7.4,2.4c-1.1,2,1,4.4,3.9,5.2
				s6.3,0.3,9-0.9c2.7-1.1,4.8-2.8,6.8-4.5c-0.4,0.5-0.8,1-1.2,1.5c3.3,0.7,7.2-0.9,7.9-3.2c2.4,0.8,5.5,0.1,7-1.4
				c-0.6,1.7,1.5,3.4,4.2,4.1c-4.3-0.3-7.9,3-6.7,5.9c1.1,2.8,5.9,4.5,10.1,4c4.2-0.6,7.5-3,8.9-5.8c-0.2,1.5,1.6,3,3.7,3.1
				c1.3,0.1,2.5-0.4,3.4-1c-0.2,1.1,0.2,2.2,1.5,2.8c2.1,1,5.3,0.3,6.2-1.3c3.7,1,8.3,0.1,10.7-2.1c1.9-1.7,2.3-4.1,1.1-6.1
				c1.4,0.9,3.9,1.6,5.4,1.4c2.3-0.3,3.7-2.3,2.7-3.7c1.5,1.9,6.1,2.2,8.1,0.5c1.6-1.4,1.1-3.6-0.8-4.7c1.4,0.3,3.1,0,4.2-0.7
				c-2.6,1.8-2.9,5-0.5,6.9s7,2.3,10,0.8c3.4-1.7,3.9-5.1,2.4-7.8c0.9,0.7,2.6,1.1,3.8,0.5c1-0.4,1.3-1.2,1.2-2
				c0.7,0.4,1.6,0.6,2.5,0.4c1-0.2,1.7-0.9,1.8-1.7c0.6,1.6,2.1,2.9,3.5,4.2c1.8,1.7,5.3,2.6,8,1.6c2.4-0.9,2.9-3.4,1.1-4.6
				c1.9,0.6,4.7-0.6,5.1-2.2c0.4-1.8-1.5-3.5-3.8-4.5c2.5,0.1,4.6-1.9,3.8-3.5c-0.9-1.6-4.3-2.2-6.2-1c2.2-2.4,7.6-2.2,10.6-0.3
				c2.8,1.7,3.6,5,7.3,5.7c1.7,0.3,3.7-0.2,4.7-1.2s1-2.5-0.1-3.5c1.1,1.3,2.5,2.1,4.3,3s4.4,1.3,6.2,0.4c1.3-0.6,1.8-2,1.2-2.9
				c0.9,0.5,2.1,0.7,3.3,0.5c1.7-0.3,3-1.3,3.5-2.4c0.6-1.4,0-2.9-1.4-4c1.6,0.3,3.3,0.4,4.4,0.4c2.2-0.1,4.2-1.1,5-2.5
				c-0.3,1.6,2.6,3.1,4.8,2.5c1.5-0.5,2.1-1.8,1.7-2.9c1.3,0.7,3.3,0.8,4.5,0c1.6-1,1-3.1-0.8-3.8c1.2,0.2,2.6-0.8,2.9-1.8
				c0.8-2.1-0.4-4.3-2.7-5.8c0.9,0.1,1.8,0.1,2.7,0.2c2.5,0.4,5.3-0.3,6.9-1.6c-1.1,1.7,0.9,3.9,3.6,4c1.9,0.1,3.5-0.9,4.1-2.1
				c0.6,1.3,2.8,2.4,5,2.2c3-0.3,5.1-2.3,5.6-4.4c0.4-2.1-0.4-4.2-1.3-6.2c0.2,1.4,2.4,2.7,4.4,2.9c2,0.1,4.1-0.8,4.7-2.2
				c-0.7,1.5,0.4,3.3,2.5,4.1c2,0.7,4.8,0.4,6.3-0.8c-1.2,2.5,1.4,5.5,5.2,6c3.8,0.5,7.8-1.8,7.9-4.4c2.7,1.4,6.9,1.3,9.3-0.4
				c2.4-1.6,2.8-4.5,0.9-6.4c0.8,1.2,3.3,1.7,4.9,0.9c1-0.5,1.4-1.3,1.2-2.1c1.1,1.2,3,2.1,4.7,2c2.1-0.2,3.7-1.4,4.2-2.7
				c0,1.6,2.1,3.1,4.5,3.2c2.8,0.1,5.3-1.2,6.6-2.9c1.3-1.7,1.5-3.6,1.6-5.5c1.7,2.2,7,1.8,9.2-0.2s2.2-4.8,2.1-7.3
				c-0.3,1.3,1.8,2.6,3.7,2.2c1.4-0.3,2.1-1.3,2-2.3c0.6,0.6,1.6,1,2.6,1.2c1.4-0.7,2.7-1.4,4.2-2.1c0.1-0.4,0.2-0.9-0.1-1.3
				c0.1,0.4,0.2,0.8,0.3,1.2c1.4-0.6,2.8-1.2,4.3-1.7c0.2-0.3,0.4-0.6,0.6-0.9c0.1,0.2,0.3,0.3,0.4,0.5c8-2.7,16.9-4,26.7-3.5
				c26,1.1,48.4,12.2,71.7,21.1C1445.6,716.9,1504.2,723.2,1555.8,715.1z"/>
			
				<linearGradient id="SVGID_15_" gradientUnits="userSpaceOnUse" x1="1139.6" y1="-300.1823" x2="1454.816" y2="-300.1823" gradientTransform="matrix(1 0 0 1 0 980)">
				<stop  offset="0" style="stop-color:#1E3A95"/>
				<stop  offset="0.9846" style="stop-color:#011878"/>
			</linearGradient>
			<path class="st15" d="M1139.6,686.1c15-4.6,34.7-2.9,50.5,0.9s29.6,9.6,45.6,13.3c34.5,8.1,74.7,6,112.5,3.8
				c31.2-1.9,62.7-3.8,91.9-9.6c6.3-1.3,13.2-3.2,14.5-6.5c1.9-4.9-9.1-8.4-18.4-10.2c-59.2-11.5-121.1-19.4-183.9-23.5
				c-23.2-1.5-50.9-1.6-64.7,7.8"/>
		</g>
		<g>
			
				<linearGradient id="SVGID_16_" gradientUnits="userSpaceOnUse" x1="883.5989" y1="-251.6593" x2="2068.6736" y2="-251.6593" gradientTransform="matrix(1 0 0 1 0 980)">
				<stop  offset="0" style="stop-color:#1E3A95"/>
				<stop  offset="0.9846" style="stop-color:#011878"/>
			</linearGradient>
			<path class="st16" d="M890.3,716.7c-1.4,0.4-2.1,1.3-1.5,2s2.3,1.2,4,1.1c-2.7,0.9-2.4,3.1,0.5,3.9c2.9,0.8,7.2-0.2,7.6-1.8
				c2.8-0.7,2.2-3-0.8-3.4c1.4,0,2.8-0.5,3.1-1.1s-0.5-1.4-1.9-1.6c0.5-0.1,0.9-0.1,1.4-0.2c0.2,0.1,0.4,0.1,0.6,0.2
				c-0.1,0.4,0.2,0.8,0.9,1.1c0.9,0.3,2.2,0.3,3-0.1c0.1,0,0.1,0,0.2,0c0.2,1.4,3.5,2.6,6.6,2.4c2-0.2,3.6-0.9,4.2-1.8
				c6.4-0.5,12.5-2.2,15.5-4.9c0.8,2.1,6.7,3.4,10.8,2.4c1.6,1.3,5.9,1.6,8.2,0.6c9,3,22.5,2.3,30.4-1.2c0.7,1.3,3.9,2.3,6.8,2.2
				c-1.9,0.4-3.1,1.6-2.2,2.5c1.1,1.1,5,1.4,6.8,0.5c-2.2,1.5-0.7,3.8,2.8,4.5c2.3,0.5,5,0.2,7-0.5c-0.4,1.1,0.6,2.5,2.8,3.1
				c3.5,0.9,8.1,0.4,11.2-0.8c3-1.2,4.8-2.9,6.6-4.6c0.2,0.6,1.6,1.1,3,1s2.4-0.8,2.1-1.4c3.8,1.1,9.8-0.3,10.1-2.4
				c0.2,0.6,2.5,1.1,3.8,1.1s2.3-0.6,2.3-1.2c0.3,0.8,1.8,1.4,3.5,1.5s3.4-0.5,3.9-1.2c-1.3,1,1.1,2.6,3.7,2.3
				c-2.2,0.1-4.5,0.3-6.4,0.9c-1.9,0.6-3.2,1.6-2.5,2.6c0.6,0.9,3,1.4,4.7,1c-1.3,0.7-0.5,2.1,1.6,2.2c-1.3,0.4-1.8,1.3-0.9,1.9
				c0.9,0.6,2.8,0.8,4.2,0.4c-1.1,1.4,1.1,3.1,4.2,3.4c3.2,0.3,6.5-1,6.6-2.4c0.8,0.4,2.2,0.4,3.1,0.1c0.9-0.3,1.2-1,0.6-1.4
				c0.7,0.1,1.5,0.2,2.2,0.3c-1.3,0.2-2.2,0.9-1.9,1.6c0.3,0.6,1.7,1.1,3.1,1.1c-3,0.4-3.6,2.7-0.8,3.4c0.4,1.5,4.7,2.5,7.6,1.8
				c2.9-0.8,3.2-3,0.5-3.9c1.7,0.1,3.4-0.4,4-1.1c0.6-0.7-0.1-1.6-1.5-2c2.2,0.3,4.8-0.1,6.1-1c0.9-0.6,1.1-1.4,0.7-2.2
				c1.4,0.8,4.3,1.1,6.8,1c-1.5,0.5-2.1,1.5-1.5,2.3s2.5,1.3,4.4,1.3c-1.2,0.5-1.5,1.5-0.6,2.1c0.9,0.7,2.8,1,4.4,0.8
				c-2.7,0.5-3.6,2.3-2,3.4c1.6,1.1,4.9,1.6,7.8,1.3s5.3-1.2,7.1-2.2c-1,0.7-0.2,1.8,1.6,2c1.8,0.2,3.8-0.5,3.7-1.3
				c0.2,0.5,0.6,1,1.1,1.5c2.7-0.6,5.4-1.2,8.1-1.8c-2.7,0.9-1.9,3.4,1.2,3.9c-3.1,0-5.7,1.6-4.9,3c0.7,1.4,4.6,2.2,7.4,1.6
				c-1.1,1.4,1,2.9,3.9,3.5c2.9,0.5,6.3,0.2,9-0.6s4.8-1.9,6.8-3c-0.4,0.3-0.8,0.7-1.2,1c3.3,0.5,7.2-0.6,7.9-2.1c2.4,0.5,5.5,0,7-1
				c-0.6,1.1,1.5,2.3,4.2,2.7c-4.3-0.2-7.9,2-6.7,3.9c1.1,1.9,5.9,3,10.1,2.6s7.5-2,8.9-3.9c-0.2,1,1.6,2,3.7,2.1
				c1.3,0.1,2.5-0.2,3.4-0.7c-0.2,0.7,0.2,1.5,1.5,1.9c2.1,0.6,5.3,0.2,6.2-0.9c3.7,0.7,8.3,0.1,10.7-1.4c1.9-1.2,2.3-2.8,1.1-4.1
				c1.4,0.6,3.9,1.1,5.4,0.9c2.3-0.2,3.7-1.5,2.7-2.5c1.5,1.3,6.1,1.5,8.1,0.3c1.6-0.9,1.1-2.4-0.8-3.2c1.4,0.2,3.1,0,4.2-0.5
				c-2.6,1.2-2.9,3.3-0.5,4.6s7,1.5,10,0.5c3.4-1.1,3.9-3.4,2.4-5.2c0.9,0.5,2.6,0.7,3.8,0.4c1-0.3,1.3-0.8,1.2-1.3
				c0.7,0.3,1.6,0.4,2.5,0.3c1-0.1,1.7-0.6,1.8-1.1c0.6,1,2.1,1.9,3.5,2.8c1.8,1.1,5.3,1.7,8,1.1c2.4-0.6,2.9-2.3,1.1-3.1
				c1.9,0.4,4.7-0.4,5.1-1.4c0.4-1.2-1.5-2.3-3.8-3c2.5,0.1,4.6-1.2,3.8-2.3c-0.9-1.1-4.3-1.4-6.2-0.7c2.2-1.6,7.6-1.5,10.6-0.2
				c2.8,1.2,3.6,3.4,7.3,3.8c1.7,0.2,3.7-0.1,4.7-0.8s1-1.7-0.1-2.3c1.1,0.9,2.5,1.4,4.3,2s4.4,0.8,6.2,0.3c1.3-0.4,1.8-1.3,1.2-2
				c0.9,0.3,2.1,0.4,3.3,0.3c1.7-0.2,3-0.9,3.5-1.6c0.6-0.9,0-2-1.4-2.7c1.6,0.2,3.3,0.3,4.4,0.2c2.2-0.1,4.2-0.8,5-1.7
				c-0.3,1.1,2.6,2.1,4.8,1.6c1.5-0.3,2.1-1.2,1.7-1.9c1.3,0.5,3.3,0.5,4.5,0c1.6-0.7,1-2.1-0.8-2.5c1.2,0.1,2.6-0.5,2.9-1.2
				c0.8-1.4-0.4-2.9-2.7-3.9c0.9,0,1.8,0.1,2.7,0.2c2.5,0.3,5.3-0.2,6.9-1.1c-1.1,1.1,0.9,2.6,3.6,2.7c1.9,0,3.5-0.6,4.1-1.4
				c0.6,0.9,2.8,1.6,5,1.5c3-0.2,5.1-1.6,5.6-2.9c0.4-1.4-0.4-2.8-1.3-4.1c0.2,0.9,2.4,1.8,4.4,1.9c2,0.1,4.1-0.6,4.7-1.5
				c-0.7,1,0.4,2.2,2.5,2.7c2,0.5,4.8,0.2,6.3-0.6c-1.2,1.7,1.4,3.7,5.2,4c3.8,0.3,7.8-1.2,7.9-2.9c2.7,0.9,6.9,0.8,9.3-0.2
				c2.4-1.1,2.8-3,0.9-4.3c0.8,0.8,3.3,1.1,4.9,0.6c1-0.3,1.4-0.9,1.2-1.4c1.1,0.8,3,1.4,4.7,1.3c2.1-0.1,3.7-0.9,4.2-1.8
				c0,1,2.1,2,4.5,2.1c2.8,0.1,5.3-0.8,6.6-1.9c1.3-1.1,1.5-2.4,1.6-3.7c1.7,1.5,7,1.2,9.2-0.2c2.2-1.3,2.2-3.2,2.1-4.8
				c-0.3,0.9,1.8,1.7,3.7,1.5c1.4-0.2,2.1-0.9,2-1.5c0.9,0.6,2.6,1,4.1,0.8c2-0.2,3.3-1.4,2.6-2.3c0.2,0.4,0.3,0.9,0.5,1.3
				c1.6-0.2,2.9-0.7,3.8-1.4c-285.3,3.6-562.1,7.2-565.2,7.2L890.3,716.7z"/>
			
				<linearGradient id="SVGID_17_" gradientUnits="userSpaceOnUse" x1="883.3497" y1="-258.6" x2="2068.4233" y2="-258.6" gradientTransform="matrix(1 0 0 1 0 980)">
				<stop  offset="0" style="stop-color:#1E3A95"/>
				<stop  offset="0.9846" style="stop-color:#011878"/>
			</linearGradient>
			<path class="st17" d="M1920.3,697.1c-119.7,1.5-296.2,3.8-469.8,6c0.3,0.2,0.6,0.4,1,0.5c2.1,0.8,5.3,0.7,7.3-0.1
				c-2.1,0.9-1.9,2.7,0.4,3.6c2.3,0.8,6.2,0.5,7.7-0.6c-2.1,1.1-2.2,2.9-0.1,4s6,1.3,8.6,0.5c-3.6,0.7-5.3,2.9-3.4,4.4
				c1.8,1.5,6.8,2.1,10,1.1c-3,1.3-1.6,4.1,2.4,4.7c4,0.6,8.6-1.4,7.7-3.3c2.3,0.5,5.3,0.2,6.8-0.7c0.8-0.5,1.2-1.1,1.1-1.7
				c0.8,0.5,1.9,0.9,2.6,1.2c1.5,0.6,4,0.7,5.7,0.2c-1.5,0.8-1.4,2.1,0.1,2.8c1.5,0.8,4.3,0.9,6.2,0.4c-2.5,1.3-2,3.6,1.1,4.6
				s8,0.5,9.9-1c-1.2,0.9-1.1,2,0.8,2.5s4.7,0.2,5.8-0.7c-1.1,0.5-0.8,1.4,0.6,1.7c0.9,0.2,2,0.1,2.7-0.3c-2.3,1.9-3.9,4.3-6.4,6.1
				c6.8,1.3,15.6-0.5,17.9-3.7c0,1.2-0.1,2.4-0.1,3.6c1.1-0.4,2.3-0.7,3.4-1.1c-1.1,1.6-2.2,3.2-3.3,4.7c6.7-1.3,12.1-4,14-7.2
				c1.1,1.3,3.3,3,4.3,4.3c0.7-0.7,1.3-1.5,2-2.2c-1.2,1.3,1.7,2.9,4.7,2.6c1.1,4.4,5.8,8.7,13,11.7c-1-3.6-2-7.2-3.1-10.8
				c0.4,0.7,1.4,1.4,2.7,1.8c0.1-1,0.1-2.1,0.2-3.1l4.1,1.8c-0.2-1.3-0.4-2.6-0.6-3.8c-0.2,0.1,0-0.4,0-0.7c0.3,3.2,4.7,6,10.6,7.7
				c-0.4-1.2-0.9-2.4-1.3-3.6c1.4,0.9,2.7,1.7,4.1,2.6c0-0.9,0.1-1.9,0.1-2.8c1.4,1.8,4.6,3.4,8.5,4.1c-0.6-1.4-1.1-2.7-1.7-4.1
				c2.7,3,5.3,6.1,8,9.1c2.4-2.8,4.8-5.6,7.2-8.5c-2.1,3.5,3.3,7.2,10.6,8.7c-1.1-1.3-2.2-2.5-3.3-3.8c0.8,0.9,2.8,1.5,4.8,1.5
				c-0.7-1.1-1.3-2.3-2-3.4c1.1,0.6,2.2,1.3,3.2,1.9c-0.1-1.4-0.2-2.8-0.3-4.3c2.1,1.8,3.1,3.9,2.8,5.9c1.1-0.5,2.3-0.9,3.4-1.4
				c-0.3,0.5-0.6,1-0.9,1.5c0.6,0.1,1.1,0.2,1.7,0.4c-0.5,0.8-0.9,1.6-1.4,2.4c4.5,0.4,9.3-1.2,10.1-3.2c-0.5,0.9-1,1.7-1.4,2.6
				c3.2-0.5,5.7-1.7,6.5-3.2c0,0.3,0.1,0.6,0.1,0.9c3.4-0.9,5.2-2.9,4-4.6c0.6,1.7,4.2,2.9,8,3.2l-1.4-2.5c1,1.6,4.9,2.8,8.6,2.5
				c-0.7-1.1-1.4-2.1-2.1-3.2c0.4,1.2,3.9,1.8,5.9,1.1c1.2-0.4,1.5-1.2,1.1-1.8c1.4,0.4,3.1,0.4,4.5,0c0.5-0.2,0.9-0.4,1.2-0.6
				c1,0.7,2.3,1.3,3.6,1.7c2,0.5,4.5,0.3,6.4-0.2c-1.3,1-1.3,2.4,0.2,3.4c0,0.3,0,0.7,0,1c4.8,0.8,10.7-0.4,12.8-2.5
				c-0.6,1-1.2,2-1.7,2.9c3.7,0,7.2-1.3,8.3-2.9c0.3,0.5,1.4,0.9,2.5,0.8c1.7-0.1,3-0.8,3.8-1.5c0.5-0.5,1-1,1.6-1.5
				c0.1,0,0.1,0.1,0.2,0.1c2.2-1,3.3-2.4,3.2-3.7c1.1,1,3.1,2,4.5,2.2c2.2,0.3,4.8-0.5,5.1-1.5c-1.6,1.6,0.9,3.8,4.8,4.1
				s7.8-1.4,7.3-3.2c2.8,1.7,8.9,1.9,12.3,0.5c3.4-1.5,3.1-4.3-0.5-5.6c2.7,1.1,7.4,0.9,9.9-0.3s2.8-3.2,1.2-4.7
				c-1.4-1.2-4-2.1-7-2.5c1.5,0,3.2-0.2,4.4-0.6c1.2-0.4,1.8-1,2-1.6c0.6,0.8,2.3,1.4,4.1,1.3c1.9-0.1,3.3-0.9,3.5-1.7
				c0.7,1.1,3.3,2,5.9,1.7c3.1-0.3,4.8-2.2,3.2-3.4c3,0.9,9.5,0.4,12.2-0.7c2.7-1.1,3.4-3.1,1.7-4.5c2.1,1.4,6.8,1.7,9.7,0.7
				c2.1-0.7,2.8-2.1,2.2-3.2c1.6,0.7,4.1,0.9,5.9,0.4c2.7-0.8,2.5-3-0.4-3.7c3,0.3,6,0.7,9,1c-0.5-2.7-0.9-5.4-1.4-8.1
				c0.3,2.7,9.5,4,14.1,2.4c-1,1.3,0.1,2.8,2.5,3.6s6,0.7,8.3-0.1c-3.1,1-4.3,3.1-2.6,4.6c1.7,1.5,6.1,2.3,9.7,1.7
				c-4.7,0.9-7.2,3.7-5,5.8s8.5,3.1,13,1.9c-2.7,0.7-3.8,2.5-2.3,3.7c1.5,1.3,5.3,1.8,8.1,1.1c-1.5,0.9-0.9,2.3,1,2.9
				c2,0.6,5,0.3,6.2-0.7c1.1,1.4,5.6,3,8.8,2.5c-1.5,0.9-1.2,2.3,0.5,3c1.7,0.8,4.7,0.8,6.6,0.2c0.9,2.6,8.7,4,13.2,2.4
				c0.3,1.1,2.5,2.1,4.9,2.1c2.5,0.1,4.9-0.8,5.4-1.9c0,0.1,0,0.2,0.1,0.3v-38.6L1920.3,697.1L1920.3,697.1z"/>
		</g>
		
			<linearGradient id="SVGID_18_" gradientUnits="userSpaceOnUse" x1="862.6663" y1="-335.1426" x2="1762.5778" y2="-295.6343" gradientTransform="matrix(1 0 0 1 0 980)">
			<stop  offset="0" style="stop-color:#1E3A95"/>
			<stop  offset="0.9846" style="stop-color:#011878"/>
		</linearGradient>
		<path class="st18" d="M840.5,659.4L1203,659c4.6,0,8.4,2.2,8.4,5l0,0c0,2.8-3.8,5-8.4,5h-137.6c-2.6,0-4.2,1.8-2.7,3.1l1.5,1.3
			c0.6,0.5,1.6,0.9,2.7,0.9H1294c3.3,0,5.9,1.6,6,3.5l0,0c0.1,1.9,2.7,3.5,6,3.5h164.5c6.5,0,11.7-3.1,11.7-7l0,0
			c0-3.9,5.2-7,11.7-7H1615c1.8,0,3.3,0.9,3.3,2v0.4c0,1.1-1.5,2-3.3,2h-16.5c-1.9,0-3.5,1-3.3,2.1l0.9,5.7c0.2,1,1.6,1.8,3.3,1.8
			h315.5c1.8,0,3.3-0.9,3.3-2v-35.1c0-1.1,4.9-9.6,3-9.6L1.6,642.2c-1.8,0-3.3,0.9-3.3,2v10.7c0,1.1,1.5,2,3.3,2h264.2
			c1.8,0,3.3,0.9,3.3,2v1c0,1.1-1.5,2-3.3,2h-72.4c-1.8,0-3.3,0.9-3.3,2v6.3c0,1.1,1.5,2,3.3,2h217.3c1.8,0,3.3-0.9,3.3-2v-2.5
			c0-1.1-1.5-2-3.3-2H369c-1.8,0-3.3-0.9-3.3-2v-3.9c0-1.1,1.5-2,3.3-2h201.2c1.8,0,3.3,0.9,3.3,2v4.8c0,1.1-1.5,2-3.3,2h-31.5
			c-1.8,0-3.3,0.9-3.3,2v1.6c0,1.1,1.5,2,3.3,2h104.6c1.8,0,3.3-0.9,3.3-2v-0.7c0-1.1-1.5-2-3.3-2h-20.6V664H742
			c1.8,0,3.3,0.9,3.3,2v7.9c0,1.1-1.5,2-3.3,2h-43.2c-1.8,0-3.3,0.9-3.3,2v1.7c0,1.1,1.5,2,3.3,2h223.1c1.8,0,3.3-0.9,3.3-2v-2.2
			c0-1.1-1.5-2-3.3-2H812.3c-1.8,0-3.3-0.9-3.3-2v-3.5c0-1.1,1.5-2,3.3-2h35.8c1.8,0,3.3-0.9,3.3-2l0,0c0-1.1-1.5-2-3.3-2h-24.9
			c-1.8,0-3.3-0.9-3.3-2v-0.1c0-1.1,1.4-1.9,3.2-2L840.5,659.4z"/>
		
			<linearGradient id="SVGID_19_" gradientUnits="userSpaceOnUse" x1="1208.2313" y1="-287.5474" x2="1539.66" y2="-273.1376" gradientTransform="matrix(1 0 0 1 0 980)">
			<stop  offset="0" style="stop-color:#1E3A95"/>
			<stop  offset="0.9846" style="stop-color:#011878"/>
		</linearGradient>
		<path class="st19" d="M877.9,708.4c0.1-2.5,2.2-4.6,4.8-4.6c8.5,0,17,0,25.5,0c19.8,0,39.5,0,59.3,0c12.1,0,24.2,0,36.3,0
			c1,0,1.8-0.6,1.8-1.2V702c0-0.7-0.8-1.2-1.8-1.2h-40.1c-1,0-1.8-0.6-1.8-1.2v-4c0-0.7,0.8-1.2,1.8-1.2H1084c1,0,1.8,0.6,1.8,1.2
			v1.6c0,0.7-0.8,1.2-1.8,1.2h-23.1c-1,0-1.8,0.6-1.8,1.2v2.5c0,0.7,0.8,1.2,1.8,1.2h111.5c1,0,1.8-0.6,1.8-1.2v-3
			c0-0.7-0.8-1.2-1.8-1.2H1155c-1,0-1.8-0.6-1.8-1.2v-1c0-0.7,0.8-1.2,1.8-1.2h58c1,0,1.8,0.6,1.8,1.2v0.5c0,0.7-0.8,1.2-1.8,1.2
			h-11.4v2.2h66.1c1,0,1.8-0.6,1.8-1.2v-5c0-0.7-0.8-1.2-1.8-1.2h-23.9c-1,0-1.8-0.6-1.8-1.2v-1.1c0-0.7,0.8-1.2,1.8-1.2h123.6
			c1,0,1.8,0.6,1.8,1.2v1.4c0,0.7-0.8,1.2-1.8,1.2h-60.8c-1,0-1.8,0.6-1.8,1.2v2.2c0,0.7,0.8,1.2,1.8,1.2h19.9c1,0,1.8,0.6,1.8,1.2
			c0,0.7-0.8,1.2-1.8,1.2h-13.8c-1,0-1.8,0.6-1.8,1.3s0.8,1.2,1.8,1.2l9.6,0.2l200.8,0.3c2.6,0,4.7-1.4,4.7-3.2s-2.1-3.2-4.7-3.2
			h-76.2c-1.5,0-2.3-1.1-1.5-1.9l0.8-0.8c0.3-0.3,0.9-0.6,1.5-0.6h125.8c1.8,0,3.3-1,3.3-2.2s1.5-2.2,3.3-2.2h91.1
			c3.6,0,6.5,2,6.5,4.4s2.9,4.4,6.5,4.4h67.1c1,0,1.8-0.6,1.8-1.2v-0.3c0-0.7-0.8-1.2-1.8-1.2h-9.1c-1.1,0-1.9-0.6-1.8-1.4l0.5-3.6
			c0.1-0.6,0.9-1.1,1.8-1.1h174.8c1,0,1.8,0.6,1.8,1.2v22.2c0,0.7,2.7,6.1,1.7,6.1c0,0-876.8-4-1038.1-4.7
			C880,713.1,877.9,711,877.9,708.4L877.9,708.4z"/>
		<g>
			
				<linearGradient id="SVGID_20_" gradientUnits="userSpaceOnUse" x1="-6" y1="-250.8614" x2="489.8" y2="-250.8614" gradientTransform="matrix(1 0 0 1 0 980)">
				<stop  offset="0" style="stop-color:#1E3A95"/>
				<stop  offset="0.9846" style="stop-color:#011878"/>
			</linearGradient>
			<path class="st20" d="M482.8,717l7-6.4c-2.9,0-236.7-3-495.8-6.3v17.6c1.3,0.3,2.8,0.5,4.3,0.4c3.8-0.3,6.4-2.3,5.2-4
				c1.5,0.8,4.2,1.1,6.3,0.6c2-0.5,3.1-1.7,2.5-2.7c0.6,0.9,2.6,1.5,4.7,1.5c2-0.1,4.2-1,4.4-1.9c-0.9,1.3-1.7,2.7-1.3,4.1
				c0.4,1.4,2.6,2.7,5.6,2.9c2.1,0.1,4.3-0.6,5-1.5c0.6,0.8,2.3,1.4,4.1,1.4c2.7-0.1,4.7-1.6,3.6-2.7c1.6,0.9,4.4,1.4,6.9,1.1
				c0.8-0.1,1.8-0.1,2.7-0.2c-2.2,1-3.4,2.5-2.7,3.9c0.4,0.6,1.7,1.3,2.9,1.2c-1.9,0.5-2.4,1.8-0.8,2.5c1.2,0.5,3.2,0.4,4.5,0
				c-0.4,0.7,0.2,1.6,1.7,1.9c2.2,0.5,5.1-0.5,4.8-1.6c0.8,0.9,2.8,1.6,5,1.7c1.1,0,2.9,0,4.4-0.2c-1.4,0.7-2,1.8-1.4,2.7
				c0.5,0.8,1.8,1.4,3.5,1.6c1.1,0.1,2.3,0,3.3-0.3c-0.6,0.6-0.1,1.5,1.2,2c1.8,0.6,4.4,0.3,6.2-0.3c1.8-0.6,3.2-1.1,4.3-2
				c-1.1,0.7-1.1,1.6-0.1,2.3s3,1,4.7,0.8c3.6-0.4,4.5-2.6,7.3-3.8c3-1.3,8.4-1.3,10.6,0.2c-1.8-0.8-5.3-0.4-6.2,0.7
				c-0.9,1.1,1.3,2.4,3.8,2.3c-2.2,0.7-4.1,1.8-3.8,3c0.3,1,3.1,1.8,5.1,1.4c-1.8,0.8-1.2,2.5,1.1,3.1c2.7,0.6,6.2,0,8-1.1
				c1.4-0.9,2.9-1.8,3.5-2.8c0.1,0.5,0.8,1,1.8,1.1c0.9,0.1,1.8,0,2.5-0.3c-0.1,0.5,0.2,1,1.2,1.3c1.2,0.3,2.9,0.1,3.8-0.4
				c-1.6,1.8-1,4.1,2.4,5.2c3,1,7.6,0.7,10-0.5c2.4-1.3,2.2-3.4-0.5-4.6c1.1,0.5,2.8,0.7,4.2,0.5c-1.9,0.8-2.5,2.2-0.8,3.2
				c2,1.1,6.6,0.9,8.1-0.3c-1,0.9,0.4,2.3,2.7,2.5c1.5,0.1,4-0.3,5.4-0.9c-1.1,1.3-0.8,2.9,1.1,4.1c2.4,1.4,7,2,10.7,1.4
				c0.9,1.1,4.1,1.5,6.2,0.9c1.3-0.4,1.8-1.2,1.5-1.9c0.9,0.4,2.1,0.7,3.4,0.7c2.2-0.1,4-1.1,3.7-2.1c1.4,1.9,4.7,3.5,8.9,3.9
				s9-0.8,10.1-2.6c1.1-1.9-2.5-4.1-6.7-3.9c2.8-0.4,4.9-1.6,4.2-2.7c1.5,1,4.6,1.5,7,1c0.8,1.5,4.6,2.6,7.9,2.1
				c-0.4-0.3-0.8-0.7-1.2-1c2,1.1,4.1,2.2,6.8,3s6.1,1.1,9,0.6s5-2.1,3.9-3.5c2.8,0.6,6.6-0.2,7.4-1.6c0.7-1.4-1.8-2.9-4.9-3
				c3.1-0.5,3.9-3.1,1.2-3.9c2.7,0.6,5.4,1.2,8.1,1.8c0.5-0.5,0.9-1,1.1-1.5c0,0.8,2,1.6,3.7,1.3c1.8-0.2,2.6-1.3,1.6-2
				c1.8,1,4.3,1.9,7.1,2.2c2.9,0.3,6.2-0.1,7.8-1.3c1.6-1.1,0.7-2.9-2-3.4c1.6,0.2,3.5-0.1,4.4-0.8s0.6-1.6-0.6-2.1
				c1.8,0.1,3.7-0.5,4.4-1.3c0.6-0.8,0-1.8-1.5-2.3c2.4,0.2,5.3-0.2,6.8-1c-0.5,0.7-0.3,1.5,0.7,2.2c1.3,0.9,3.9,1.3,6.1,1
				c-1.4,0.4-2.1,1.3-1.5,2s2.3,1.2,4,1.1c-2.7,0.9-2.4,3.1,0.5,3.9c2.9,0.8,7.2-0.2,7.6-1.8c2.8-0.7,2.2-3-0.8-3.4
				c1.4,0,2.8-0.5,3.1-1.1c0.3-0.6-0.5-1.4-1.9-1.6c0.7-0.1,1.5-0.2,2.2-0.3c-0.6,0.5-0.3,1.1,0.6,1.4c0.9,0.3,2.3,0.3,3.1-0.1
				c0.1,1.5,3.4,2.7,6.6,2.4s5.3-2,4.2-3.4c1.3,0.4,3.3,0.2,4.2-0.4c0.9-0.6,0.4-1.5-0.9-1.9c2.1-0.1,2.9-1.5,1.6-2.2
				c1.6,0.4,4.1-0.1,4.7-1c0.7-1-0.7-2.1-2.5-2.6c-1.9-0.6-4.2-0.7-6.4-0.9c2.6,0.3,5.1-1.3,3.7-2.3c0.5,0.8,2.2,1.3,3.9,1.2
				c1.7-0.1,3.2-0.7,3.5-1.5c0,0.6,1.1,1.1,2.3,1.2c1.3,0,3.6-0.5,3.8-1.1c0.2,2.1,6.2,3.5,10.1,2.4c-0.3,0.6,0.8,1.3,2.1,1.4
				c1.4,0.1,2.8-0.4,3-1c1.7,1.7,3.5,3.4,6.6,4.6c3,1.2,7.7,1.8,11.2,0.8c2.2-0.6,3.3-1.9,2.8-3.1c1.9,0.7,4.7,1,7,0.5
				c3.5-0.7,5-3,2.8-4.5c1.8,0.9,5.7,0.7,6.8-0.5c0.9-0.9-0.3-2-2.2-2.5c3,0.2,6.1-0.8,6.8-2.2c7.9,3.5,21.4,4.1,30.4,1.2
				c2.3,1,6.6,0.7,8.2-0.6c4.1,1,10-0.3,10.8-2.4c3,2.7,9.1,4.4,15.5,4.9c0.6,0.9,2.2,1.6,4.2,1.8c3.1,0.3,6.4-0.9,6.6-2.4
				c0.1,0,0.1,0,0.2,0c0.8,0.3,2.1,0.4,3,0.1c0.7-0.2,1-0.7,0.9-1.1c0.2-0.1,0.4-0.1,0.6-0.2c0.5,0.1,0.9,0.1,1.4,0.2
				c-1.3,0.2-2.2,0.9-1.9,1.6c0.3,0.6,1.7,1.1,3.1,1.1c-3,0.4-3.6,2.7-0.8,3.4c0.4,1.5,4.7,2.5,7.6,1.8c2.9-0.8,3.2-3,0.5-3.9
				c1.7,0.1,3.4-0.4,4-1.1C484.9,718.3,484.3,717.4,482.8,717z"/>
		</g>
		
			<linearGradient id="SVGID_21_" gradientUnits="userSpaceOnUse" x1="2.4869" y1="-277.7248" x2="507.2958" y2="-279.188" gradientTransform="matrix(1 0 0 1 0 980)">
			<stop  offset="0" style="stop-color:#1E3A95"/>
			<stop  offset="0.9846" style="stop-color:#011878"/>
		</linearGradient>
		<path class="st21" d="M489.9,704.1c-9.5,0-19,0-28.4,0c-22.1,0-44.1,0-66.2,0h-40.5c-1.1,0-2-0.6-2-1.2v-0.6c0-0.7,0.9-1.2,2-1.2
			h44.8c1.1,0,2-0.6,2-1.2v-4c0-0.7-0.9-1.2-2-1.2H265.1c-1.1,0-2,0.6-2,1.2v1.6c0,0.7,0.9,1.2,2,1.2h25.8c1.1,0,2,0.6,2,1.2v2.5
			c0,0.7-0.9,1.2-2,1.2H166.4c-1.1,0-2-0.6-2-1.2v-3c0-0.7,0.9-1.2,2-1.2h19.5c1.1,0,2-0.6,2-1.2v-1c0-0.7-0.9-1.2-2-1.2h-64.7
			c-1.1,0-2,0.6-2,1.2v0.5c0,0.7,0.9,1.2,2,1.2h12.7v2.2H60c-1.1,0-2-0.6-2-1.2v-5c0-0.7,0.9-1.2,2-1.2h26.7c1.1,0,2-0.6,2-1.2v-1.1
			c0-0.7-0.9-1.2-2-1.2H-6v3.9h22.5c1.1,0,2,0.6,2,1.2v2.2c0,0.7-0.9,1.2-2,1.2H-5.6c-0.1,0-0.2,0-0.4,0v2.4c0.1,0,0.2,0,0.4,0H9.7
			c1.1,0,2,0.6,2,1.3s-0.9,1.2-2,1.2L-1,702.6h-5.1v13c217.7-0.9,422.8-1.7,496-2c3,0,5.4-2.2,5.3-4.8
			C495.2,706.2,492.8,704.1,489.9,704.1z"/>
	</g>
	<g class="st22">
		
			<linearGradient id="SVGID_22_" gradientUnits="userSpaceOnUse" x1="1981.0189" y1="-382.281" x2="2436.2461" y2="-683.5823" gradientTransform="matrix(1 0 0 1 0 980)">
			<stop  offset="0" style="stop-color:#4B51A3"/>
			<stop  offset="0.9897" style="stop-color:#7989CC"/>
		</linearGradient>
		<path class="st23" d="M1552.5,1036.4c-5.5,0-10-1.8-10-3.9c0-2.2,4.5-3.9,10-3.9H1716c3.2,0,5-1.4,3.3-2.4l-1.7-1
			c-0.7-0.4-1.9-0.7-3.3-0.7h-269.9c-3.8,0-7-1.2-7.1-2.7s-3.3-2.7-7.1-2.7h-195.5c-7.7,0-13.9,2.5-13.9,5.5s-6.2,5.5-13.9,5.5H1063
			c-2.1,0-3.9-0.7-3.9-1.5v-0.3c0-0.9,1.8-1.5,3.9-1.5h19.6c2.3,0,4.1-0.8,3.9-1.7l-1-4.5c-0.2-0.8-1.9-1.4-3.9-1.4H723.3
			c-9.1,0-16.6,6.6-16.6,14.7l0,0c0,8.1,7.3,14.6,16.5,14.7c158.9,1.1,1196.8,4.1,1196.8,4.1v-16.3L1552.5,1036.4z"/>
		<g>
			
				<linearGradient id="SVGID_23_" gradientUnits="userSpaceOnUse" x1="2503.5713" y1="-542.7054" x2="1816.7059" y2="-290.855" gradientTransform="matrix(1 0 0 1 0 980)">
				<stop  offset="0" style="stop-color:#4B51A3"/>
				<stop  offset="0.9897" style="stop-color:#7989CC"/>
			</linearGradient>
			<path class="st24" d="M1614.3,1074.8c10.1-3.6,7.5-18.3-3.3-18.3l0,0c-2.5,0-4.5-0.7-4.5-1.6v-6.4c0-0.9,2-1.6,4.5-1.6h31.5v-4.6
				h-277.8c-2.5,0-4.5,0.7-4.5,1.6v1.8c0,0.9,2,1.6,4.5,1.6h150.2c2.5,0,4.5,0.7,4.5,1.6v2.8c0,0.9-2,1.6-4.5,1.6h-49
				c-2.5,0-4.5,0.7-4.5,1.6s2,1.6,4.5,1.6h34c2.5,0,4.5,0.7,4.5,1.6v0.1c0,0.9-1.9,1.6-4.3,1.6l-23.7,0.3l-496.1,0.3
				c-6.3,0-11.5-1.8-11.5-4.1c0-2.2,5.2-4.1,11.5-4.1h188.3c3.6,0,5.8-1.5,3.7-2.5l-2-1.1c-0.8-0.4-2.3-0.7-3.7-0.7H855.7
				c-4.4,0-8.1-1.2-8.2-2.8s-3.7-2.8-8.2-2.8h-225c-8.8,0-16,2.6-16,5.7s-7.1,5.7-16,5.7H416.4c-2.5,0-4.5-0.7-4.5-1.6v-0.3
				c0-0.9,2-1.6,4.5-1.6H439c2.6,0,4.7-0.8,4.5-1.8l-1.1-4.6c-0.2-0.8-2.1-1.5-4.5-1.5H6.1c-2.5,0-4.5,0.7-4.5,1.6v28.6
				c0,0.9-6.7,7.8-4.2,7.8l1608.8-3.8C1608.6,1076.4,1611.5,1075.8,1614.3,1074.8z"/>
			
				<linearGradient id="SVGID_24_" gradientUnits="userSpaceOnUse" x1="514.54" y1="-160.926" x2="114.6334" y2="-14.2936" gradientTransform="matrix(1 0 0 1 0 980)">
				<stop  offset="0" style="stop-color:#4B51A3"/>
				<stop  offset="0.9897" style="stop-color:#7989CC"/>
			</linearGradient>
			<path class="st25" d="M485.2,918.3H280.7c-1.5,0-2.7-0.6-2.7-1.3v-0.7c0-0.7,1.2-1.3,2.7-1.3h57.7c1.5,0,2.7-0.6,2.7-1.3v-4.2
				c0-0.7-1.2-1.3-2.7-1.3h-173c-1.5,0-2.7,0.6-2.7,1.3v1.7c0,0.7,1.2,1.3,2.7,1.3h33.2c1.5,0,2.7,0.6,2.7,1.3v2.7
				c0,0.7-1.2,1.3-2.7,1.3H38.4c-1.5,0-2.7-0.6-2.7-1.3v-3.3c0-0.7,1.2-1.3,2.7-1.3h25.1c1.5,0,2.7-0.6,2.7-1.3v-1.1
				c0-0.7-1.2-1.3-2.7-1.3H1V930l484.3-1.6c3.4,0,6.2-1.9,6.6-4.4l0,0C492.2,920.9,489.1,918.3,485.2,918.3z"/>
			
				<linearGradient id="SVGID_25_" gradientUnits="userSpaceOnUse" x1="203.1787" y1="-18.243" x2="509.9985" y2="-221.318" gradientTransform="matrix(1 0 0 1 0 980)">
				<stop  offset="0" style="stop-color:#4B51A3"/>
				<stop  offset="0.9897" style="stop-color:#7989CC"/>
			</linearGradient>
			<path class="st26" d="M620.9,891H417.2c-1.5,0-2.7-0.3-2.7-0.6v-0.3c0-0.3,1.2-0.6,2.7-0.6h57.5c1.5,0,2.7-0.3,2.7-0.6V887
				c0-0.3-1.2-0.6-2.7-0.6H302.1c-1.5,0-2.7,0.3-2.7,0.6v0.7c0,0.3,1.2,0.6,2.7,0.6h33.1c1.5,0,2.7,0.3,2.7,0.6v1.2
				c0,0.3-1.2,0.6-2.7,0.6H175.5c-1.5,0-2.7-0.3-2.7-0.6v-1.4c0-0.3,1.2-0.6,2.7-0.6h25c1.5,0,2.7-0.3,2.7-0.6V887
				c0-0.3-1.2-0.6-2.7-0.6h-83c-1.5,0-2.7,0.3-2.7,0.6v0.2c0,0.3,1.2,0.6,2.7,0.6h16.4v1H39.1c-1.5,0-2.7-0.3-2.7-0.6V886
				c0-0.3,1.2-0.6,2.7-0.6h34.2c1.5,0,2.7-0.3,2.7-0.6v-0.5c0-0.3-1.2-0.6-2.7-0.6H-0.6v12.6l621.6-0.9c3.3,0,6.2-0.8,6.6-1.9
				C628,892.1,624.9,891,620.9,891z"/>
		</g>
	</g>
	
		<radialGradient id="SVGID_26_" cx="1383.15" cy="-69.2" r="62.7778" gradientTransform="matrix(1 0 0 1.5806 0 969.4919)" gradientUnits="userSpaceOnUse">
		<stop  offset="7.696310e-02" style="stop-color:#FDA4B9"/>
		<stop  offset="1" style="stop-color:#F684AC"/>
	</radialGradient>
	<polygon class="st27" points="1399.3,766.4 1399.3,758.8 1392.8,758.8 1392.8,757.7 1392.8,752.8 1395.2,752.8 1395.2,746.6 
		1392.4,746.6 1392.4,741.1 1394.7,741.1 1394.7,737.6 1391.9,737.6 1391.9,735.4 1396.2,735.4 1396.2,731.5 1391.1,731.5 
		1390.2,728.9 1394.1,728.9 1394.1,722.1 1387,722.1 1379.3,722.1 1372.2,722.1 1372.2,728.9 1376.1,728.9 1375.2,731.5 1370,731.5 
		1370,735.4 1374.4,735.4 1374.4,737.6 1371.6,737.6 1371.6,741.1 1373.9,741.1 1373.9,746.6 1371.1,746.6 1371.1,752.8 
		1373.5,752.8 1373.5,758.8 1367,758.8 1367,766.4 1372.6,766.4 1372.6,774 1370.8,774 1370.8,779.7 1372.2,779.7 1372.2,792.6 
		1367,792.6 1367,797.8 1371.8,797.8 1371.8,803.2 1368.7,803.2 1368.7,808.7 1370.7,808.7 1370.7,812.5 1367,812.5 1367,819.8 
		1371.2,819.8 1371.2,823.1 1367.8,823.1 1367.8,827.7 1369.9,827.7 1369.9,832.3 1368.9,832.3 1368.9,834.5 1371,834.5 1371,838 
		1368.2,838 1368.2,841.3 1371.8,841.3 1376.1,842.9 1371.8,844.3 1368.2,844.3 1368.2,847.8 1371,847.8 1371,851.1 1368.9,851.1 
		1368.9,853.5 1369.9,853.5 1369.9,858.1 1367.8,858.1 1367.8,862.5 1371.2,862.5 1371.2,866 1367,866 1367,873.1 1370.7,873.1 
		1370.7,876.9 1368.7,876.9 1368.7,882.4 1371.8,882.4 1371.8,887.9 1367,887.9 1367,893 1372.2,893 1372.2,906.1 1370.8,906.1 
		1370.8,911.8 1372.6,911.8 1372.6,919.2 1367,919.2 1367,926.8 1373.5,926.8 1373.5,933 1371.1,933 1371.1,939 1373.9,939 
		1373.9,944.7 1371.6,944.7 1371.6,948 1374.4,948 1374.4,950.4 1370,950.4 1370,954.2 1375.2,954.2 1376.1,956.7 1372.2,956.7 
		1372.2,963.6 1377.9,963.6 1377.9,964.1 1375.1,964.1 1375.1,967.9 1378.3,967.9 1378.3,970.9 1377.1,970.9 1377.1,974.1 
		1378.5,974.1 1378.5,976.9 1377.4,976.9 1377.4,978.5 1378.8,978.5 1378.8,979.6 1376.6,979.6 1376.6,981.7 1379.2,981.7 
		1379.6,982.9 1377.7,982.9 1377.7,986.4 1380.5,986.4 1380.5,988.5 1379.1,988.5 1379.1,990.5 1382.1,990.5 1382.1,992.9 
		1380.6,992.9 1380.6,994.3 1383.1,994.3 1383.1,996.4 1382.3,996.4 1382.3,998.1 1385.6,998.1 1385.6,995.3 1384,995.3 1384,993.4 
		1386.6,993.4 1386.6,991.6 1384.3,991.6 1384.3,988.3 1388.4,988.3 1388.4,986.4 1388.6,986.4 1388.6,982.9 1386.7,982.9 
		1387.1,981.7 1389.7,981.7 1389.7,979.6 1387.5,979.6 1387.5,978.5 1388.9,978.5 1388.9,976.9 1387.8,976.9 1387.8,974.1 
		1389.2,974.1 1389.2,970.9 1388,970.9 1388,967.9 1391.2,967.9 1391.2,964.1 1388.4,964.1 1388.4,963.6 1394.1,963.6 1394.1,956.7 
		1390.2,956.7 1391.1,954.2 1396.2,954.2 1396.2,950.4 1391.9,950.4 1391.9,948 1394.7,948 1394.7,944.7 1392.4,944.7 1392.4,939 
		1395.2,939 1395.2,933 1392.8,933 1392.8,926.8 1399.3,926.8 1399.3,919.2 1393.7,919.2 1393.7,911.8 1395.4,911.8 1395.4,906.1 
		1394.1,906.1 1394.1,893 1399.3,893 1399.3,887.9 1394.5,887.9 1394.5,882.4 1397.6,882.4 1397.6,876.9 1395.6,876.9 1395.6,873.1 
		1399.3,873.1 1399.3,866 1395.1,866 1395.1,862.5 1398.5,862.5 1398.5,858.1 1396.4,858.1 1396.4,853.5 1397.4,853.5 1397.4,851.1 
		1395.3,851.1 1395.3,847.8 1398.1,847.8 1399.3,847.8 1399.3,844 1395.2,844 1395.2,841.8 1399.3,841.8 1399.3,838 1398.1,838 
		1395.3,838 1395.3,834.5 1397.4,834.5 1397.4,832.3 1396.4,832.3 1396.4,827.7 1398.5,827.7 1398.5,823.1 1395.1,823.1 
		1395.1,819.8 1399.3,819.8 1399.3,812.5 1395.6,812.5 1395.6,808.7 1397.6,808.7 1397.6,803.2 1394.5,803.2 1394.5,797.8 
		1399.3,797.8 1399.3,792.6 1394.1,792.6 1394.1,779.7 1395.4,779.7 1395.4,774 1393.7,774 1393.7,766.4 	"/>
	<g>
		<g>
			
				<linearGradient id="SVGID_27_" gradientUnits="userSpaceOnUse" x1="437.5404" y1="-391.7036" x2="437.0072" y2="-352.5155" gradientTransform="matrix(1 0 0 1 0 980)">
				<stop  offset="0" style="stop-color:#1E3A95"/>
				<stop  offset="0.9846" style="stop-color:#011878"/>
			</linearGradient>
			<path class="st28" d="M440.1,595.7l-6.3,1.6c-0.6,0.3-1.1,0.9-1.2,1.6l-0.4,1.6c-0.2,0.7,0,1.5,0.5,2l0.4,0.4
				c0.7,0.9,2,1.1,3,0.6l0,0c1.2-0.7,2.8-0.1,3.3,1.2l-0.1,8.6c0.4,0.9,0.1-2.7,0-1.8l0.7-0.7c-2.9,10.1-0.4,6.1,1.9,4.7
				c0.3-0.2,0.5,0.3,0.5,0.1c0.1-0.2-0.3-6.3-0.7-10.7c-0.2-2.4-2.4-4.2-4.8-3.9l-2.4,0.3l0.1-1c0.1-1.1,0.8-2.1,1.9-2.4l4-1.2
				c1.1-0.3,1.9-1.4,1.9-2.5v-1l-2.3,0.3V595.7z"/>
			
				<linearGradient id="SVGID_28_" gradientUnits="userSpaceOnUse" x1="437.3578" y1="-391.706" x2="436.8247" y2="-352.5181" gradientTransform="matrix(1 0 0 1 0 980)">
				<stop  offset="0" style="stop-color:#1E3A95"/>
				<stop  offset="0.9846" style="stop-color:#011878"/>
			</linearGradient>
			<path class="st29" d="M435.4,595.4h11.8c0.5-0.8,0-2-0.9-1.6c0.2-0.9-0.8-1.9-1.7-1.7c-1-1.3-1.9-2.7-2.6-4.2
				c-0.4-0.8-0.8-1.7-1.6-2.3c-0.8-0.5-2.1-0.4-2.4,0.5c-0.7-0.4-1.6-0.1-2.1,0.5s-0.4,1.6,0.1,2.1c-0.6-0.3-1.3-0.2-1.8,0.2
				s-0.7,1.2-0.4,1.8c-1.2-0.7-3,0.5-2.8,1.9c-0.5-0.5-1.3-0.6-1.8-0.3c-0.6,0.3-0.9,1.1-0.7,1.7c-0.1-0.6-1.1-0.5-1.3,0.1
				c-0.2,0.5,0.2,1.2,0.7,1.4s1.1,0.2,1.7,0.2C431.7,595.5,433.4,595.4,435.4,595.4z"/>
			
				<linearGradient id="SVGID_29_" gradientUnits="userSpaceOnUse" x1="442.482" y1="-391.6364" x2="441.9488" y2="-352.4483" gradientTransform="matrix(1 0 0 1 0 980)">
				<stop  offset="0" style="stop-color:#1E3A95"/>
				<stop  offset="0.9846" style="stop-color:#011878"/>
			</linearGradient>
			<path class="st30" d="M444.1,595.4h-10.8c-0.4-0.8,0-2,0.8-1.6c-0.2-0.9,0.7-1.9,1.6-1.7c0.9-1.3,1.7-2.7,2.4-4.2
				c0.4-0.8,0.7-1.7,1.4-2.3c0.7-0.5,1.9-0.4,2.1,0.5c0.6-0.4,1.5-0.1,1.9,0.5s0.4,1.6-0.1,2.1c0.5-0.3,1.2-0.2,1.7,0.2
				c0.4,0.4,0.6,1.2,0.4,1.8c1.1-0.7,2.7,0.5,2.5,1.9c0.4-0.5,1.1-0.6,1.7-0.3c0.5,0.3,0.8,1.1,0.7,1.7c0.1-0.6,1-0.5,1.2,0.1
				c0.2,0.5-0.2,1.2-0.7,1.4s-1,0.2-1.6,0.2C447.5,595.5,445.9,595.4,444.1,595.4z"/>
			
				<linearGradient id="SVGID_30_" gradientUnits="userSpaceOnUse" x1="445.9871" y1="-391.589" x2="445.4539" y2="-352.4" gradientTransform="matrix(1 0 0 1 0 980)">
				<stop  offset="0" style="stop-color:#1E3A95"/>
				<stop  offset="0.9846" style="stop-color:#011878"/>
			</linearGradient>
			<path class="st31" d="M447,602.3h-7.6c-0.3-0.5,0-1.1,0.6-0.9c-0.1-0.5,0.5-1,1.1-0.9c0.7-0.7,1.2-1.5,1.7-2.3
				c0.3-0.5,0.5-1,1-1.2c0.5-0.3,1.3-0.2,1.5,0.3c0.4-0.2,1-0.1,1.3,0.3c0.3,0.3,0.3,0.9-0.1,1.2c0.4-0.2,0.9-0.1,1.2,0.1
				c0.3,0.2,0.4,0.7,0.3,1c0.8-0.4,1.9,0.3,1.8,1c0.3-0.3,0.8-0.3,1.2-0.1c0.4,0.2,0.6,0.6,0.5,0.9c0.1-0.3,0.7-0.3,0.8,0
				c0.1,0.3-0.1,0.6-0.5,0.8c-0.3,0.1-0.7,0.1-1.1,0.1C449.4,602.3,448.3,602.3,447,602.3z"/>
		</g>
		<g>
			
				<linearGradient id="SVGID_31_" gradientUnits="userSpaceOnUse" x1="1205.9836" y1="-429.845" x2="1205.6023" y2="-401.8178" gradientTransform="matrix(1 0 0 1 0 980)">
				<stop  offset="0" style="stop-color:#1E3A95"/>
				<stop  offset="0.9846" style="stop-color:#011878"/>
			</linearGradient>
			<path class="st32" d="M1207.9,555.5l-4.5,1.2c-0.4,0.2-0.8,0.6-0.9,1.1l-0.3,1.1c-0.1,0.5,0,1,0.3,1.4l0.3,0.3
				c0.5,0.6,1.4,0.8,2.1,0.4l0,0c0.9-0.5,2-0.1,2.4,0.8l-0.1,6.1c0.3,0.6,0.1-1.9,0-1.3l0.5-0.5c-2.1,7.2-0.3,4.4,1.3,3.4
				c0.2-0.1,0.3,0.2,0.4,0.1c0.1-0.2-0.2-4.5-0.5-7.7c-0.1-1.7-1.7-3-3.4-2.8l-1.7,0.2v-0.7c0.1-0.8,0.6-1.5,1.4-1.7l2.9-0.8
				c0.8-0.2,1.4-1,1.4-1.8v-0.7l-1.6,0.2L1207.9,555.5z"/>
			
				<linearGradient id="SVGID_32_" gradientUnits="userSpaceOnUse" x1="1205.9558" y1="-429.8454" x2="1205.5745" y2="-401.818" gradientTransform="matrix(1 0 0 1 0 980)">
				<stop  offset="0" style="stop-color:#1E3A95"/>
				<stop  offset="0.9846" style="stop-color:#011878"/>
			</linearGradient>
			<path class="st33" d="M1204.5,555.3h8.5c0.3-0.6,0-1.4-0.7-1.2c0.1-0.7-0.6-1.4-1.2-1.2c-0.7-0.9-1.4-1.9-1.9-3
				c-0.3-0.6-0.6-1.2-1.1-1.6c-0.6-0.4-1.5-0.3-1.7,0.4c-0.5-0.3-1.2-0.1-1.5,0.3c-0.3,0.4-0.3,1.1,0.1,1.5c-0.4-0.2-1-0.2-1.3,0.1
				s-0.5,0.9-0.3,1.3c-0.9-0.5-2.1,0.3-2,1.3c-0.3-0.3-0.9-0.4-1.3-0.2s-0.6,0.8-0.5,1.2c-0.1-0.4-0.8-0.4-0.9,0s0.1,0.8,0.5,1
				s0.8,0.1,1.2,0.1C1201.8,555.3,1203.1,555.3,1204.5,555.3z"/>
			
				<linearGradient id="SVGID_33_" gradientUnits="userSpaceOnUse" x1="1209.5637" y1="-429.7963" x2="1209.1824" y2="-401.7684" gradientTransform="matrix(1 0 0 1 0 980)">
				<stop  offset="0" style="stop-color:#1E3A95"/>
				<stop  offset="0.9846" style="stop-color:#011878"/>
			</linearGradient>
			<path class="st34" d="M1210.7,555.3h-7.7c-0.3-0.6,0-1.4,0.6-1.2c-0.1-0.7,0.5-1.4,1.1-1.2c0.7-0.9,1.2-1.9,1.7-3
				c0.3-0.6,0.5-1.2,1-1.6c0.5-0.4,1.3-0.3,1.5,0.4c0.4-0.3,1.1-0.1,1.4,0.3c0.3,0.4,0.3,1.1-0.1,1.5c0.4-0.2,0.9-0.2,1.2,0.1
				c0.3,0.3,0.4,0.9,0.3,1.3c0.8-0.5,1.9,0.3,1.8,1.3c0.3-0.3,0.8-0.4,1.2-0.2c0.4,0.2,0.6,0.8,0.5,1.2c0.1-0.4,0.7-0.4,0.9,0
				c0.1,0.4-0.1,0.8-0.5,1c-0.3,0.2-0.7,0.1-1.1,0.1C1213.1,555.3,1212,555.3,1210.7,555.3z"/>
			
				<linearGradient id="SVGID_34_" gradientUnits="userSpaceOnUse" x1="1212.0553" y1="-429.7621" x2="1211.674" y2="-401.7357" gradientTransform="matrix(1 0 0 1 0 980)">
				<stop  offset="0" style="stop-color:#1E3A95"/>
				<stop  offset="0.9846" style="stop-color:#011878"/>
			</linearGradient>
			<path class="st35" d="M1212.8,560.2h-5.4c-0.2-0.3,0-0.8,0.4-0.6c-0.1-0.4,0.4-0.7,0.8-0.7c0.5-0.5,0.9-1.1,1.2-1.6
				c0.2-0.3,0.4-0.7,0.7-0.9c0.4-0.2,0.9-0.1,1.1,0.2c0.3-0.1,0.7-0.1,1,0.2c0.2,0.2,0.2,0.6-0.1,0.8c0.3-0.1,0.6-0.1,0.8,0.1
				c0.2,0.2,0.3,0.5,0.2,0.7c0.5-0.3,1.4,0.2,1.3,0.7c0.2-0.2,0.6-0.2,0.8-0.1c0.3,0.1,0.4,0.4,0.3,0.7c0.1-0.2,0.5-0.2,0.6,0
				s-0.1,0.5-0.3,0.5c-0.2,0.1-0.5,0.1-0.8,0.1C1214.5,560.2,1213.7,560.2,1212.8,560.2z"/>
		</g>
		<g>
			
				<linearGradient id="SVGID_35_" gradientUnits="userSpaceOnUse" x1="3870.6775" y1="-410.5704" x2="3870.2961" y2="-382.5435" gradientTransform="matrix(-1 0 0 1 5114.5947 980)">
				<stop  offset="0" style="stop-color:#1E3A95"/>
				<stop  offset="0.9846" style="stop-color:#011878"/>
			</linearGradient>
			<path class="st36" d="M1242,574.7l4.5,1.2c0.4,0.2,0.8,0.6,0.9,1.1l0.3,1.1c0.1,0.5,0,1-0.3,1.4l-0.3,0.3
				c-0.5,0.6-1.4,0.8-2.1,0.4l0,0c-0.9-0.5-2-0.1-2.4,0.8l0.1,6.1c-0.3,0.6-0.1-1.9,0-1.3l-0.5-0.5c2.1,7.2,0.3,4.4-1.3,3.4
				c-0.2-0.1-0.3,0.2-0.4,0.1c-0.1-0.2,0.2-4.5,0.5-7.7c0.1-1.7,1.7-3,3.4-2.8l1.7,0.2v-0.7c-0.1-0.8-0.6-1.5-1.4-1.7l-2.9-0.8
				c-0.8-0.2-1.4-1-1.4-1.8V573l1.6,0.2L1242,574.7z"/>
			
				<linearGradient id="SVGID_36_" gradientUnits="userSpaceOnUse" x1="3870.6497" y1="-410.571" x2="3870.2683" y2="-382.5433" gradientTransform="matrix(-1 0 0 1 5114.5947 980)">
				<stop  offset="0" style="stop-color:#1E3A95"/>
				<stop  offset="0.9846" style="stop-color:#011878"/>
			</linearGradient>
			<path class="st37" d="M1245.4,574.5h-8.5c-0.3-0.6,0-1.4,0.7-1.2c-0.1-0.7,0.6-1.4,1.2-1.2c0.7-0.9,1.4-1.9,1.9-3
				c0.3-0.6,0.6-1.2,1.1-1.6c0.6-0.4,1.5-0.3,1.7,0.4c0.5-0.3,1.2-0.1,1.5,0.3c0.3,0.4,0.3,1.1-0.1,1.5c0.4-0.2,1-0.2,1.3,0.1
				s0.5,0.9,0.3,1.3c0.9-0.5,2.1,0.3,2,1.3c0.3-0.3,0.9-0.4,1.3-0.2s0.6,0.8,0.5,1.2c0.1-0.4,0.8-0.4,0.9,0s-0.1,0.8-0.5,1
				s-0.8,0.1-1.2,0.1C1248,574.6,1246.8,574.5,1245.4,574.5z"/>
			
				<linearGradient id="SVGID_37_" gradientUnits="userSpaceOnUse" x1="3874.2578" y1="-410.5221" x2="3873.8765" y2="-382.4942" gradientTransform="matrix(-1 0 0 1 5114.5947 980)">
				<stop  offset="0" style="stop-color:#1E3A95"/>
				<stop  offset="0.9846" style="stop-color:#011878"/>
			</linearGradient>
			<path class="st38" d="M1239.2,574.5h7.7c0.3-0.6,0-1.4-0.6-1.2c0.1-0.7-0.5-1.4-1.1-1.2c-0.7-0.9-1.2-1.9-1.7-3
				c-0.3-0.6-0.5-1.2-1-1.6c-0.5-0.4-1.3-0.3-1.5,0.4c-0.4-0.3-1.1-0.1-1.4,0.3c-0.3,0.4-0.3,1.1,0.1,1.5c-0.4-0.2-0.9-0.2-1.2,0.1
				c-0.3,0.3-0.4,0.9-0.3,1.3c-0.8-0.5-1.9,0.3-1.8,1.3c-0.3-0.3-0.8-0.4-1.2-0.2c-0.4,0.2-0.6,0.8-0.5,1.2c-0.1-0.4-0.7-0.4-0.9,0
				c-0.1,0.4,0.1,0.8,0.5,1c0.3,0.2,0.7,0.1,1.1,0.1C1236.7,574.6,1237.9,574.5,1239.2,574.5z"/>
			
				<linearGradient id="SVGID_38_" gradientUnits="userSpaceOnUse" x1="3876.7505" y1="-410.4878" x2="3876.3691" y2="-382.4613" gradientTransform="matrix(-1 0 0 1 5114.5947 980)">
				<stop  offset="0" style="stop-color:#1E3A95"/>
				<stop  offset="0.9846" style="stop-color:#011878"/>
			</linearGradient>
			<path class="st39" d="M1237.1,579.5h5.4c0.2-0.3,0-0.8-0.4-0.6c0.1-0.4-0.4-0.7-0.8-0.7c-0.5-0.5-0.9-1.1-1.2-1.6
				c-0.2-0.3-0.4-0.7-0.7-0.9c-0.4-0.2-0.9-0.1-1.1,0.2c-0.3-0.1-0.7-0.1-1,0.2c-0.2,0.2-0.2,0.6,0.1,0.8c-0.3-0.1-0.6-0.1-0.8,0.1
				c-0.2,0.2-0.3,0.5-0.2,0.7c-0.5-0.3-1.4,0.2-1.3,0.7c-0.2-0.2-0.6-0.2-0.8-0.1c-0.3,0.1-0.4,0.4-0.3,0.7c-0.1-0.2-0.5-0.2-0.6,0
				s0.1,0.5,0.3,0.5c0.2,0.1,0.5,0.1,0.8,0.1C1235.4,579.5,1236.2,579.5,1237.1,579.5z"/>
		</g>
	</g>
	<g>
		<rect x="590.2" y="896.9" class="st40" width="29.2" height="5.7"/>
		<rect x="587.8" y="899.8" class="st40" width="29.2" height="5.7"/>
		<rect x="594.8" y="912.9" class="st40" width="33.7" height="2.6"/>
		<rect x="585.4" y="927.9" class="st40" width="34" height="2.2"/>
		<rect x="594.8" y="936.9" class="st40" width="33.7" height="1.9"/>
		<rect x="590.2" y="920.9" class="st40" width="22" height="1.6"/>
		<rect x="602" y="944.2" class="st40" width="22" height="1.6"/>
		<rect x="597.1" y="906.2" class="st40" width="22.3" height="1.3"/>
		<rect x="585.4" y="909.4" class="st40" width="27.6" height="3.5"/>
		<rect x="589.1" y="908.1" class="st40" width="29.2" height="5.7"/>
		<path class="st40" d="M614.1,934.8h-23.4c-1.6,0-2.9-1.3-2.9-2.9l0,0c0-1.6,1.3-2.9,2.9-2.9h23.4c1.6,0,2.9,1.3,2.9,2.9l0,0
			C617,933.5,615.7,934.8,614.1,934.8z"/>
		<rect x="590.2" y="924.4" class="st40" width="33.7" height="2.6"/>
		<rect x="592.6" y="917.7" class="st40" width="22.3" height="1.3"/>
		<rect x="599.4" y="940.8" class="st40" width="22.3" height="1.3"/>
		<rect x="580.9" y="920.9" class="st40" width="27.6" height="3.5"/>
		<rect x="639.6" y="887.8" class="st40" width="22.9" height="5.4"/>
		<rect x="641.4" y="890.5" class="st40" width="22.9" height="5.4"/>
		<rect x="632.5" y="902.8" class="st40" width="26.4" height="2.4"/>
		<rect x="639.5" y="917" class="st40" width="26.7" height="2.1"/>
		<rect x="632.5" y="925.5" class="st40" width="26.4" height="1.8"/>
		<rect x="645.2" y="910.4" class="st40" width="17.3" height="1.5"/>
		<rect x="635.8" y="933.1" class="st40" width="25.5" height="1"/>
		<rect x="639.5" y="896.6" class="st40" width="17.5" height="1.2"/>
		<rect x="644.6" y="899.6" class="st40" width="21.7" height="3.3"/>
		<rect x="643.2" y="898.7" class="st40" width="22.9" height="5.4"/>
		<rect x="641.4" y="918" class="st40" width="22.9" height="5.4"/>
		<rect x="636.1" y="913.7" class="st40" width="26.4" height="2.4"/>
		<rect x="643.1" y="907.3" class="st40" width="17.5" height="1.2"/>
		<rect x="638.7" y="930.9" class="st40" width="25.7" height="0.8"/>
		<rect x="648.1" y="910.4" class="st40" width="21.7" height="3.3"/>
	</g>
	<g>
		
			<linearGradient id="SVGID_39_" gradientUnits="userSpaceOnUse" x1="605.0374" y1="-110.6543" x2="591.1505" y2="-74.74" gradientTransform="matrix(1 0 0 1 0 980)">
			<stop  offset="0" style="stop-color:#8E2B2B"/>
			<stop  offset="0.9897" style="stop-color:#E24444"/>
		</linearGradient>
		<path class="st41" d="M600.8,857.7c0,0-9.5,4.2-9,13.8v6.6l22.8,1.8v-16.2l-4.3-6.1h-9.5V857.7z"/>
		<polygon class="st42" points="660,867.9 658,868 654.9,792.4 656.8,792.3 		"/>
		<polygon class="st42" points="586.2,876.6 584.9,876.5 585.6,842.7 586.9,842.8 		"/>
		
			<linearGradient id="SVGID_40_" gradientUnits="userSpaceOnUse" x1="625.075" y1="-141.2" x2="666.6" y2="-141.2" gradientTransform="matrix(1 0 0 1 0 980)">
			<stop  offset="0" style="stop-color:#8E2B2B"/>
			<stop  offset="0.9897" style="stop-color:#E24444"/>
		</linearGradient>
		<path class="st43" d="M666.2,839.5l0.4-7.1l-41.2,4.9c0,0-1.3,4.2,1.3,7.9L666.2,839.5z"/>
		<path class="st44" d="M665.3,825.8l1.3,6.7l-42.6,5.1c0,0,2.7-9.5,0.8-14L665.3,825.8z"/>
		
			<linearGradient id="SVGID_41_" gradientUnits="userSpaceOnUse" x1="624.8" y1="-161.9" x2="665.3" y2="-161.9" gradientTransform="matrix(1 0 0 1 0 980)">
			<stop  offset="0" style="stop-color:#8E2B2B"/>
			<stop  offset="0.9897" style="stop-color:#E24444"/>
		</linearGradient>
		<path class="st45" d="M665.3,825.8l-1-7.5l-38.8-7.9c0,0,1.9,5-0.7,13.1L665.3,825.8z"/>
		<path class="st44" d="M664.5,818.1l-38.9-7.5c0,0,4.5-9.4,3.8-11.4l33.3,10.3L664.5,818.1z"/>
		
			<linearGradient id="SVGID_42_" gradientUnits="userSpaceOnUse" x1="629.4" y1="-183.25" x2="662.7" y2="-183.25" gradientTransform="matrix(1 0 0 1 0 980)">
			<stop  offset="0" style="stop-color:#8E2B2B"/>
			<stop  offset="0.9897" style="stop-color:#E24444"/>
		</linearGradient>
		<path class="st46" d="M660.3,803.3l-19-19.4c0,0-6.8,10.7-11.9,15.4l33.3,10.3L660.3,803.3z"/>
		
			<linearGradient id="SVGID_43_" gradientUnits="userSpaceOnUse" x1="550.7209" y1="-96.9558" x2="596.6909" y2="-137.1795" gradientTransform="matrix(1 0 0 1 0 980)">
			<stop  offset="0" style="stop-color:#8E2B2B"/>
			<stop  offset="0.9897" style="stop-color:#E24444"/>
		</linearGradient>
		<polygon class="st47" points="590.2,861.8 588.2,847.6 581.4,842.9 579,849.5 578.1,863.8 		"/>
		
			<linearGradient id="SVGID_44_" gradientUnits="userSpaceOnUse" x1="600.7328" y1="-89.3255" x2="692.6738" y2="-187.0127" gradientTransform="matrix(1 0 0 1 0 980)">
			<stop  offset="0" style="stop-color:#E24444"/>
			<stop  offset="0.9897" style="stop-color:#F684AC"/>
		</linearGradient>
		<path class="st48" d="M600.8,857.7c0,0,12.4-1.4,13.7,22.2l34.4-7.5c0,0,2.8-15.8-8.9-19.1L600.8,857.7z"/>
		<path class="st49" d="M659,864.4"/>
		
			<linearGradient id="SVGID_45_" gradientUnits="userSpaceOnUse" x1="625.8555" y1="-109.0772" x2="659.6949" y2="-131.424" gradientTransform="matrix(1 0 0 1 0 980)">
			<stop  offset="0" style="stop-color:#8E2B2B"/>
			<stop  offset="0.9897" style="stop-color:#E24444"/>
		</linearGradient>
		<path class="st50" d="M658.7,866.6l27-11.5l0.2,1l-15.7,10.5l-9.2,21.9c-5.3,5.3-25.4,6.9-25.4,6.9s-25.5,3.6-37,3.7
			c-17.9,0.1-20.4-19.2-20.4-19.2l-8.4-3.9l0.1-9.1l16.1,1.6l5.7,9.6l22.8,1.8c0,0,16.5-4.6,39.8-8.5L658.7,866.6z"/>
		<path class="st44" d="M591.8,878.1L591.8,878.1c15.1,5,31.3,5.9,46.9,2.7l18-3.7l6.5-8.3l22.5-13.7l-27,11.5l-4.3,4.8l-39.8,8.5
			L591.8,878.1z"/>
	</g>
</g>
</svg>
