<?xml version="1.0" encoding="utf-8"?>
<!-- Generator: Adobe Illustrator 25.2.1, SVG Export Plug-In . SVG Version: 6.00 Build 0)  -->
<svg version="1.1" xmlns="http://www.w3.org/2000/svg" xmlns:xlink="http://www.w3.org/1999/xlink" x="0px" y="0px"
	 viewBox="0 0 1587.4 850.4" style="enable-background:new 0 0 1587.4 850.4;" xml:space="preserve">
<style type="text/css">
	.st0{fill:url(#SVGID_1_);}
	.st1{fill:url(#SVGID_2_);}
	.st2{opacity:0.6;fill:url(#SVGID_3_);}
	.st3{opacity:0.75;fill:url(#SVGID_4_);}
	.st4{opacity:0.6;fill:url(#SVGID_5_);}
	.st5{opacity:0.6;fill:url(#SVGID_6_);}
	.st6{fill:url(#SVGID_7_);}
	.st7{opacity:0.75;fill:url(#SVGID_8_);}
	.st8{opacity:0.75;fill:url(#SVGID_9_);}
	.st9{opacity:0.75;fill:url(#SVGID_10_);}
	.st10{opacity:0.5;fill:url(#SVGID_11_);}
	.st11{opacity:0.5;fill:url(#SVGID_12_);}
	.st12{opacity:0.75;fill:url(#SVGID_13_);}
	.st13{opacity:0.75;fill:url(#SVGID_14_);}
	.st14{opacity:0.75;fill:url(#SVGID_15_);}
	.st15{opacity:0.75;fill:url(#SVGID_16_);}
	.st16{opacity:0.75;fill:url(#SVGID_17_);}
	.st17{fill:url(#SVGID_18_);}
	.st18{fill:url(#SVGID_19_);}
	.st19{fill:url(#SVGID_20_);}
	.st20{opacity:0.75;fill:url(#SVGID_21_);}
	.st21{opacity:0.75;fill:url(#SVGID_22_);}
	.st22{opacity:0.75;fill:url(#SVGID_23_);}
	.st23{fill:url(#SVGID_24_);}
	.st24{fill:url(#SVGID_25_);}
	.st25{fill:url(#SVGID_26_);}
	.st26{fill:url(#SVGID_27_);}
	.st27{fill:url(#SVGID_28_);}
	.st28{fill:url(#SVGID_29_);}
	.st29{fill:url(#SVGID_30_);}
	.st30{fill:url(#SVGID_31_);}
	.st31{fill:url(#SVGID_32_);}
	.st32{fill:url(#SVGID_33_);}
	.st33{fill:url(#SVGID_34_);}
	.st34{fill:#251130;}
	.st35{fill:url(#SVGID_35_);}
	.st36{fill:url(#SVGID_36_);}
	.st37{fill:url(#SVGID_37_);}
	.st38{fill:url(#SVGID_38_);}
	.st39{fill:url(#SVGID_39_);}
	.st40{opacity:0.75;fill:url(#SVGID_40_);}
	.st41{opacity:0.75;fill:url(#SVGID_41_);}
	.st42{fill:url(#SVGID_42_);}
	.st43{fill:url(#SVGID_43_);}
	.st44{fill:url(#SVGID_44_);}
	.st45{fill:url(#SVGID_45_);}
	.st46{fill:url(#SVGID_46_);}
	.st47{fill:url(#SVGID_47_);}
	.st48{fill:url(#SVGID_48_);}
	.st49{fill:url(#SVGID_49_);}
</style>
<g id="Layer_2">
	<linearGradient id="SVGID_1_" gradientUnits="userSpaceOnUse" x1="793.7007" y1="806.5332" x2="793.7007" y2="3.9714">
		<stop  offset="0.4485" style="stop-color:#F5F5E3"/>
		<stop  offset="0.6667" style="stop-color:#F5E0E3"/>
		<stop  offset="0.6959" style="stop-color:#EDDDE4"/>
		<stop  offset="0.7422" style="stop-color:#D6D6E7"/>
		<stop  offset="0.7997" style="stop-color:#B1CAEB"/>
		<stop  offset="0.8662" style="stop-color:#7DB9F1"/>
		<stop  offset="0.9393" style="stop-color:#3CA4F8"/>
		<stop  offset="1" style="stop-color:#0091FF"/>
	</linearGradient>
	<rect x="0" y="0" class="st0" width="1587.4" height="806.5"/>
	<linearGradient id="SVGID_2_" gradientUnits="userSpaceOnUse" x1="793.7007" y1="606.0817" x2="793.7007" y2="840.3076">
		<stop  offset="6.060640e-03" style="stop-color:#94FFB8"/>
		<stop  offset="0.2474" style="stop-color:#63CF86"/>
		<stop  offset="0.4406" style="stop-color:#42AF64"/>
		<stop  offset="0.5455" style="stop-color:#36A357"/>
		<stop  offset="0.6549" style="stop-color:#369D4F"/>
		<stop  offset="0.8233" style="stop-color:#368C3A"/>
		<stop  offset="1" style="stop-color:#36751C"/>
	</linearGradient>
	<rect x="0" y="596.9" class="st1" width="1587.4" height="253.5"/>
</g>
<g id="Layer_3">
	<g>
		<linearGradient id="SVGID_3_" gradientUnits="userSpaceOnUse" x1="695.9709" y1="282.9245" x2="684.0386" y2="375.5549">
			<stop  offset="0" style="stop-color:#F5E8F7"/>
			<stop  offset="0.1261" style="stop-color:#EDE5F6"/>
			<stop  offset="0.3263" style="stop-color:#D6DEF4"/>
			<stop  offset="0.5758" style="stop-color:#B0D3F0"/>
			<stop  offset="0.8621" style="stop-color:#7CC3EB"/>
			<stop  offset="1" style="stop-color:#61BAE8"/>
		</linearGradient>
		<path class="st2" d="M802.9,311.2c-2,0-3.9,0.3-5.7,0.9c-4.5-13.5-17.2-23.2-32.2-23.2c-1.5,0-3,0.1-4.4,0.3
			c-2.4-9.3-10.9-16.1-20.9-16.1c-7.3,0-13.8,3.6-17.7,9.2c-3.5-1.4-7.3-2.2-11.4-2.2c-10.3,0-19.4,5.3-24.8,13.3
			c-5-2.8-10.7-4.4-16.8-4.4c-1.5,0-3,0.1-4.4,0.3c-2.4-9.3-10.9-16.1-20.9-16.1c-7.3,0-13.8,3.6-17.7,9.2
			c-3.5-1.4-7.3-2.2-11.4-2.2c-15.6,0-28.4,12-29.7,27.3c-1.2-0.2-2.4-0.3-3.6-0.3c-12.7,0-23,10.3-23,23h96h71.5h96
			C821.8,319.6,813.3,311.2,802.9,311.2z"/>
		<linearGradient id="SVGID_4_" gradientUnits="userSpaceOnUse" x1="1021.1984" y1="707.325" x2="1236.5209" y2="715.7566">
			<stop  offset="0" style="stop-color:#FFFFFF"/>
			<stop  offset="0.4303" style="stop-color:#307ABD"/>
			<stop  offset="0.527" style="stop-color:#1F5CAA"/>
			<stop  offset="0.6328" style="stop-color:#12449B"/>
			<stop  offset="0.7438" style="stop-color:#083290"/>
			<stop  offset="0.862" style="stop-color:#022789"/>
			<stop  offset="1" style="stop-color:#002487"/>
		</linearGradient>
		<ellipse class="st3" cx="1113.3" cy="710.9" rx="97.5" ry="3"/>
		<linearGradient id="SVGID_5_" gradientUnits="userSpaceOnUse" x1="1112.7899" y1="371.1946" x2="1105.1704" y2="430.3451">
			<stop  offset="0" style="stop-color:#F5E8F7"/>
			<stop  offset="0.1261" style="stop-color:#EDE5F6"/>
			<stop  offset="0.3263" style="stop-color:#D6DEF4"/>
			<stop  offset="0.5758" style="stop-color:#B0D3F0"/>
			<stop  offset="0.8621" style="stop-color:#7CC3EB"/>
			<stop  offset="1" style="stop-color:#61BAE8"/>
		</linearGradient>
		<path class="st4" d="M1171.8,403.9c0-7.9-6.4-14.2-14.2-14.2c-1.5,0-2.9,0.2-4.3,0.7c-3.4-10.2-13-17.5-24.3-17.5
			c-1.1,0-2.3,0.1-3.3,0.2c-1.8-7-8.2-12.2-15.8-12.2c-5.5,0-10.4,2.8-13.4,7c-2.6-1.1-5.5-1.7-8.6-1.7c-11.8,0-21.4,9-22.4,20.6
			c-0.9-0.1-1.8-0.2-2.7-0.2c-9.6,0-17.4,7.8-17.4,17.4H1171.8z"/>
		
			<linearGradient id="SVGID_6_" gradientUnits="userSpaceOnUse" x1="1998.5438" y1="335.0723" x2="1989.1603" y2="407.9171" gradientTransform="matrix(-1 0 0 1 2327.2539 0)">
			<stop  offset="0" style="stop-color:#F5E8F7"/>
			<stop  offset="0.1261" style="stop-color:#EDE5F6"/>
			<stop  offset="0.3263" style="stop-color:#D6DEF4"/>
			<stop  offset="0.5758" style="stop-color:#B0D3F0"/>
			<stop  offset="0.8621" style="stop-color:#7CC3EB"/>
			<stop  offset="1" style="stop-color:#61BAE8"/>
		</linearGradient>
		<path class="st5" d="M256,375.4c0-9.7,7.8-17.5,17.5-17.5c1.8,0,3.6,0.3,5.3,0.8c4.2-12.5,16-21.6,29.9-21.6
			c1.4,0,2.8,0.1,4.1,0.3c2.3-8.6,10.1-15,19.4-15c6.8,0,12.8,3.4,16.5,8.6c3.3-1.3,6.8-2.1,10.6-2.1c14.5,0,26.4,11.1,27.6,25.3
			c1.1-0.2,2.2-0.3,3.3-0.3c11.8,0,21.4,9.6,21.4,21.4H256z"/>
		<linearGradient id="SVGID_7_" gradientUnits="userSpaceOnUse" x1="1136.2631" y1="388.1515" x2="1145.3774" y2="527.5234">
			<stop  offset="6.061020e-03" style="stop-color:#9D6CFF"/>
			<stop  offset="0.6277" style="stop-color:#B798FF"/>
			<stop  offset="1" style="stop-color:#C3AEFF"/>
		</linearGradient>
		<path class="st6" d="M1245.2,404.3c-19-15.4-27.1-26.9-50.9-29.1c-33.9-3-54.7,18-65,29c-33,35-72,27-86,15
			c-26.3-22.6-51-34-80-29c-24.7,4.3-48.1,25.8-77,74c-25.5,42.5-80.4,65-80.4,65l679.7,7.1C1485.6,536.3,1316.6,462.3,1245.2,404.3
			z"/>
		<linearGradient id="SVGID_8_" gradientUnits="userSpaceOnUse" x1="986.3848" y1="684.3704" x2="1193.637" y2="701.1438">
			<stop  offset="0" style="stop-color:#FFFFFF"/>
			<stop  offset="0.4303" style="stop-color:#307ABD"/>
			<stop  offset="0.527" style="stop-color:#1F5CAA"/>
			<stop  offset="0.6328" style="stop-color:#12449B"/>
			<stop  offset="0.7438" style="stop-color:#083290"/>
			<stop  offset="0.862" style="stop-color:#022789"/>
			<stop  offset="1" style="stop-color:#002487"/>
		</linearGradient>
		<path class="st7" d="M1208.3,692c-24.7-0.5-59.5-0.8-100.4-0.8c-74.3,0-134.6,1-134.6,2.2c0,1.2,60.2,2.2,134.6,2.2
			c40.9,0,75.8-0.3,100.4-0.8V692z"/>
		
			<linearGradient id="SVGID_9_" gradientUnits="userSpaceOnUse" x1="2833.2717" y1="668.7527" x2="3056.3669" y2="688.8051" gradientTransform="matrix(-1 0 0 1 4091.3594 0)">
			<stop  offset="0" style="stop-color:#002487"/>
			<stop  offset="0.1688" style="stop-color:#022789"/>
			<stop  offset="0.3134" style="stop-color:#083290"/>
			<stop  offset="0.4492" style="stop-color:#12449B"/>
			<stop  offset="0.5787" style="stop-color:#1F5CAA"/>
			<stop  offset="0.697" style="stop-color:#307ABD"/>
			<stop  offset="1" style="stop-color:#FFFFFF"/>
		</linearGradient>
		<path class="st8" d="M1142.5,672.2c59.7,0.1,136.8,0.7,136.8,1.6c0,0.7-130.7,1.5-136.8,1.6V672.2z"/>
		<linearGradient id="SVGID_10_" gradientUnits="userSpaceOnUse" x1="1099.7875" y1="658.9839" x2="1097.047" y2="692.2484">
			<stop  offset="0" style="stop-color:#002487"/>
			<stop  offset="0.1688" style="stop-color:#022789"/>
			<stop  offset="0.3134" style="stop-color:#083290"/>
			<stop  offset="0.4492" style="stop-color:#12449B"/>
			<stop  offset="0.5787" style="stop-color:#1F5CAA"/>
			<stop  offset="0.697" style="stop-color:#307ABD"/>
			<stop  offset="1" style="stop-color:#FFFFFF"/>
		</linearGradient>
		<path class="st9" d="M1495.6,661.7c-45.1-0.5-343.5-0.8-394.9-0.8c-220.9,0-399.9,5.1-399.9,11.5c0,6.4,179.1,11.5,399.9,11.5
			c51.4,0,349.8-0.3,394.9-0.8V661.7z"/>
		<linearGradient id="SVGID_11_" gradientUnits="userSpaceOnUse" x1="357.0117" y1="656.7864" x2="356.0724" y2="685.6362">
			<stop  offset="0" style="stop-color:#470887"/>
			<stop  offset="0.207" style="stop-color:#480B8A"/>
			<stop  offset="0.3844" style="stop-color:#4B1695"/>
			<stop  offset="0.5502" style="stop-color:#5027A6"/>
			<stop  offset="0.697" style="stop-color:#573DBD"/>
			<stop  offset="1" style="stop-color:#FFFFFF"/>
		</linearGradient>
		<path class="st10" d="M516.7,650.9c-44.8,0-483.5,1.2-516.7,3.2v24.7c33.1,2,471.9,3.2,516.7,3.2c108.9,0,197.2-7.9,197.2-16.5
			C713.8,656.9,625.6,650.9,516.7,650.9z"/>
		<linearGradient id="SVGID_12_" gradientUnits="userSpaceOnUse" x1="859.8975" y1="626.0295" x2="856.8004" y2="660.0944">
			<stop  offset="0" style="stop-color:#470887"/>
			<stop  offset="0.207" style="stop-color:#480B8A"/>
			<stop  offset="0.3844" style="stop-color:#4B1695"/>
			<stop  offset="0.5502" style="stop-color:#5027A6"/>
			<stop  offset="0.697" style="stop-color:#573DBD"/>
			<stop  offset="1" style="stop-color:#FFFFFF"/>
		</linearGradient>
		<path class="st11" d="M853.8,624.9c-106.6,0-196.6,4.5-226,10.7v8.7c29.3,6.2,119.4,10.7,226,10.7c130.4,0,236-6.7,236-15
			C1089.8,631.6,984.1,624.9,853.8,624.9z"/>
		
			<linearGradient id="SVGID_13_" gradientUnits="userSpaceOnUse" x1="1953.229" y1="677.2914" x2="2027.2786" y2="696.9584" gradientTransform="matrix(-1 0 0 1 2944.666 0)">
			<stop  offset="0" style="stop-color:#002487"/>
			<stop  offset="0.1688" style="stop-color:#022789"/>
			<stop  offset="0.3134" style="stop-color:#083290"/>
			<stop  offset="0.4492" style="stop-color:#12449B"/>
			<stop  offset="0.5787" style="stop-color:#1F5CAA"/>
			<stop  offset="0.697" style="stop-color:#307ABD"/>
			<stop  offset="1" style="stop-color:#FFFFFF"/>
		</linearGradient>
		<ellipse class="st12" cx="972.1" cy="682.4" rx="63.8" ry="1.9"/>
		
			<linearGradient id="SVGID_14_" gradientUnits="userSpaceOnUse" x1="2576.1978" y1="668.2923" x2="2650.2473" y2="687.9594" gradientTransform="matrix(-1 0 0 1 2944.666 0)">
			<stop  offset="0" style="stop-color:#002487"/>
			<stop  offset="0.1688" style="stop-color:#022789"/>
			<stop  offset="0.3134" style="stop-color:#083290"/>
			<stop  offset="0.4492" style="stop-color:#12449B"/>
			<stop  offset="0.5787" style="stop-color:#1F5CAA"/>
			<stop  offset="0.697" style="stop-color:#307ABD"/>
			<stop  offset="1" style="stop-color:#FFFFFF"/>
		</linearGradient>
		<ellipse class="st13" cx="349.1" cy="673.4" rx="63.8" ry="1.9"/>
		
			<linearGradient id="SVGID_15_" gradientUnits="userSpaceOnUse" x1="-329.3766" y1="708.8253" x2="-147.4732" y2="715.9482" gradientTransform="matrix(-1 0 0 1 438.3359 0)">
			<stop  offset="0" style="stop-color:#002487"/>
			<stop  offset="0.1688" style="stop-color:#022789"/>
			<stop  offset="0.3134" style="stop-color:#083290"/>
			<stop  offset="0.4492" style="stop-color:#12449B"/>
			<stop  offset="0.5787" style="stop-color:#1F5CAA"/>
			<stop  offset="0.697" style="stop-color:#307ABD"/>
			<stop  offset="1" style="stop-color:#FFFFFF"/>
		</linearGradient>
		<path class="st14" d="M569.3,712.6c0,2.5,45.7,4.4,102,4.4c56.3,0,102-2,102-4.4c0-2.5-45.7-4.4-102-4.4
			C615,708.2,569.3,710.1,569.3,712.6z"/>
		
			<linearGradient id="SVGID_16_" gradientUnits="userSpaceOnUse" x1="-110.3978" y1="779.454" x2="129.0121" y2="788.8288" gradientTransform="matrix(-1 0 0 1 438.3359 0)">
			<stop  offset="0" style="stop-color:#002487"/>
			<stop  offset="0.1688" style="stop-color:#022789"/>
			<stop  offset="0.3134" style="stop-color:#083290"/>
			<stop  offset="0.4492" style="stop-color:#12449B"/>
			<stop  offset="0.5787" style="stop-color:#1F5CAA"/>
			<stop  offset="0.697" style="stop-color:#307ABD"/>
			<stop  offset="1" style="stop-color:#FFFFFF"/>
		</linearGradient>
		<path class="st15" d="M287.6,784.4c0,3.4,60.1,6.1,134.2,6.1c74.1,0,134.2-2.7,134.2-6.1c0-3.4-60.1-6.1-134.2-6.1
			C347.7,778.3,287.6,781,287.6,784.4z"/>
		
			<linearGradient id="SVGID_17_" gradientUnits="userSpaceOnUse" x1="-202.2728" y1="691.8792" x2="-75.9888" y2="696.8243" gradientTransform="matrix(-1 0 0 1 438.3359 0)">
			<stop  offset="0" style="stop-color:#002487"/>
			<stop  offset="0.1688" style="stop-color:#022789"/>
			<stop  offset="0.3134" style="stop-color:#083290"/>
			<stop  offset="0.4492" style="stop-color:#12449B"/>
			<stop  offset="0.5787" style="stop-color:#1F5CAA"/>
			<stop  offset="0.697" style="stop-color:#307ABD"/>
			<stop  offset="1" style="stop-color:#FFFFFF"/>
		</linearGradient>
		<path class="st16" d="M494.3,694.7c0,1.7,33.7,3.1,75.2,3.1c41.5,0,75.2-1.4,75.2-3.1c0-1.7-33.7-3.1-75.2-3.1
			C528,691.6,494.3,693,494.3,694.7z"/>
		<linearGradient id="SVGID_18_" gradientUnits="userSpaceOnUse" x1="763.0344" y1="407.2542" x2="946.1251" y2="673.1117">
			<stop  offset="6.061020e-03" style="stop-color:#9163FE"/>
			<stop  offset="0.6066" style="stop-color:#A88BFF"/>
			<stop  offset="1" style="stop-color:#B5A1FF"/>
		</linearGradient>
		<path class="st17" d="M1155.7,551.9c-229-54.4-252.8-161-339-161c-80.5,0-81.6,40.8-147.4,78.2c-58.3,33.2-104.3,76-104.3,76
			L1155.7,551.9z"/>
		<linearGradient id="SVGID_19_" gradientUnits="userSpaceOnUse" x1="621.7548" y1="678.5052" x2="615.6071" y2="701.9347">
			<stop  offset="6.061020e-03" style="stop-color:#30A359"/>
			<stop  offset="0.2657" style="stop-color:#2F8457"/>
			<stop  offset="0.55" style="stop-color:#2F6A55"/>
			<stop  offset="0.8038" style="stop-color:#2E5A54"/>
			<stop  offset="1" style="stop-color:#2E5454"/>
		</linearGradient>
		<path class="st18" d="M648.4,694.3c0-3-2.4-5.4-5.4-5.4l-1.8,0c-3-7.1-9.9-12.1-18.1-12.1c-8,0-15,4.9-18,11.8l-13.5-0.1
			c-3,0-5.4,2.4-5.4,5.4v4h62.3V694.3z"/>
		<linearGradient id="SVGID_20_" gradientUnits="userSpaceOnUse" x1="746.1714" y1="691.9037" x2="724.9406" y2="744.87">
			<stop  offset="6.061020e-03" style="stop-color:#30A359"/>
			<stop  offset="0.4245" style="stop-color:#2F7B56"/>
			<stop  offset="0.7896" style="stop-color:#2E5F55"/>
			<stop  offset="1" style="stop-color:#2E5454"/>
		</linearGradient>
		<path class="st19" d="M695.1,712c0-4.1,3.3-7.4,7.4-7.4l2.5,0c4-9.6,13.5-16.4,24.6-16.4c10.9,0,20.3,6.6,24.4,16l18.3-0.1
			c4.1,0,7.4,3.3,7.4,7.4v5.4h-84.6V712z"/>
		
			<linearGradient id="SVGID_21_" gradientUnits="userSpaceOnUse" x1="1801.2836" y1="769.5032" x2="1961.2756" y2="811.9961" gradientTransform="matrix(-1 0 0 1 1895 0)">
			<stop  offset="0" style="stop-color:#002487"/>
			<stop  offset="0.138" style="stop-color:#022789"/>
			<stop  offset="0.2562" style="stop-color:#083290"/>
			<stop  offset="0.3672" style="stop-color:#12449B"/>
			<stop  offset="0.473" style="stop-color:#1F5CAA"/>
			<stop  offset="0.5697" style="stop-color:#307ABD"/>
			<stop  offset="1" style="stop-color:#FFFFFF"/>
		</linearGradient>
		<path class="st20" d="M0,786.3c3.3,0,6.7,0,10.1,0c61,0,110.5-2.5,110.5-5.5c0-3-49.5-5.5-110.5-5.5c-3.4,0-6.7,0-10.1,0V786.3z"
			/>
		
			<linearGradient id="SVGID_22_" gradientUnits="userSpaceOnUse" x1="1923.6672" y1="717.9836" x2="2057.999" y2="753.6612" gradientTransform="matrix(-1 0 0 1 2106.332 0)">
			<stop  offset="0" style="stop-color:#002487"/>
			<stop  offset="0.138" style="stop-color:#022789"/>
			<stop  offset="0.2562" style="stop-color:#083290"/>
			<stop  offset="0.3672" style="stop-color:#12449B"/>
			<stop  offset="0.473" style="stop-color:#1F5CAA"/>
			<stop  offset="0.5697" style="stop-color:#307ABD"/>
			<stop  offset="1" style="stop-color:#FFFFFF"/>
		</linearGradient>
		<ellipse class="st21" cx="124.2" cy="733.5" rx="102.7" ry="3.8"/>
		
			<linearGradient id="SVGID_23_" gradientUnits="userSpaceOnUse" x1="1995.3112" y1="692.9331" x2="2130.0798" y2="728.7268" gradientTransform="matrix(-1 0 0 1 2236.5 0)">
			<stop  offset="0" style="stop-color:#002487"/>
			<stop  offset="0.138" style="stop-color:#022789"/>
			<stop  offset="0.2562" style="stop-color:#083290"/>
			<stop  offset="0.3672" style="stop-color:#12449B"/>
			<stop  offset="0.473" style="stop-color:#1F5CAA"/>
			<stop  offset="0.5697" style="stop-color:#307ABD"/>
			<stop  offset="1" style="stop-color:#FFFFFF"/>
		</linearGradient>
		<ellipse class="st22" cx="182.6" cy="708.5" rx="103" ry="3.8"/>
		<linearGradient id="SVGID_24_" gradientUnits="userSpaceOnUse" x1="223.1241" y1="300.7825" x2="291.596" y2="579.0386">
			<stop  offset="6.061020e-03" style="stop-color:#9163FE"/>
			<stop  offset="0.6066" style="stop-color:#A88BFF"/>
			<stop  offset="1" style="stop-color:#B5A1FF"/>
		</linearGradient>
		<path class="st23" d="M14.1,551.6l540-6.2c0,0-71-24.5-92.3-81.3c-23.6-62.7-62.4-99.3-91.1-103.2c-45-6-73.3,19.8-103.5,48
			c-16.1,15-34.1,28.8-72-15c-11.9-13.7-70.5-38.3-106.5-37.5C64.4,357,35.5,369.7,14.1,386V551.6z"/>
		<linearGradient id="SVGID_25_" gradientUnits="userSpaceOnUse" x1="172.6433" y1="314.1132" x2="220.6205" y2="544.0983">
			<stop  offset="0" style="stop-color:#3D57AB"/>
			<stop  offset="0.3723" style="stop-color:#416DB3"/>
			<stop  offset="0.9939" style="stop-color:#4A99C2"/>
		</linearGradient>
		<path class="st24" d="M0.6,614.4l469.1-1.4c-106.5-211.5-157.5-283.5-279-285c-52.6-0.6-140.2,41.6-190.2,110.7V614.4z"/>
		<linearGradient id="SVGID_26_" gradientUnits="userSpaceOnUse" x1="1331.9775" y1="370.4449" x2="1381.8925" y2="592.5549">
			<stop  offset="6.061020e-03" style="stop-color:#9163FE"/>
			<stop  offset="0.6066" style="stop-color:#A88BFF"/>
			<stop  offset="1" style="stop-color:#B5A1FF"/>
		</linearGradient>
		<path class="st25" d="M1588,425.5c-46.2-62.5-158.1-79-239.4-32.1c-60.5,34.9-126,122-220,156l459.4,8.9V425.5z"/>
		<linearGradient id="SVGID_27_" gradientUnits="userSpaceOnUse" x1="1308.1022" y1="623.3112" x2="1165.8413" y2="353.7553">
			<stop  offset="0" style="stop-color:#3D57AB"/>
			<stop  offset="0.3723" style="stop-color:#416DB3"/>
			<stop  offset="0.9939" style="stop-color:#4A99C2"/>
		</linearGradient>
		<path class="st26" d="M1275.6,506.3c-51.4-39.9-96-71-163.2-71.1c-108.2-0.2-196,87.8-196,196H1588V403.3c0,0-42.5,57.3-110.4,102
			C1436.6,532.3,1333.6,551.3,1275.6,506.3z"/>
		<linearGradient id="SVGID_28_" gradientUnits="userSpaceOnUse" x1="793.3293" y1="476.4746" x2="902.5799" y2="687.4494">
			<stop  offset="0" style="stop-color:#3D57AB"/>
			<stop  offset="0.3723" style="stop-color:#416DB3"/>
			<stop  offset="0.9939" style="stop-color:#4A99C2"/>
		</linearGradient>
		<path class="st27" d="M1062.3,608.4c-144.9-25-125.6-111.6-211.6-132.4c-55-13.3-87.5,15-134.9,76.6c-30.1,39-50.8,63.3-50.8,63.3
			L1062.3,608.4z"/>
		<linearGradient id="SVGID_29_" gradientUnits="userSpaceOnUse" x1="469.1975" y1="297.0328" x2="376.5133" y2="672.6061">
			<stop  offset="6.060640e-03" style="stop-color:#3D729E"/>
			<stop  offset="9.693729e-02" style="stop-color:#42649E"/>
			<stop  offset="0.3446" style="stop-color:#4D44A0"/>
			<stop  offset="0.5832" style="stop-color:#552DA0"/>
			<stop  offset="0.8067" style="stop-color:#5A1FA1"/>
			<stop  offset="1" style="stop-color:#5C1AA1"/>
		</linearGradient>
		<path class="st28" d="M858.3,632.2c0,0-71.8-34.7-85-110c-23-131-120.3-215.7-239-214c-78.8,1.1-103.7,23-168.8,86.1
			c-41.3,40.1-140,57-218-41c-52.2-65.5-113-79-147-69.3v346.4l111.9,0.1c-1.4,1-2.2,1.6-2.2,1.6H858.3z"/>
		<linearGradient id="SVGID_30_" gradientUnits="userSpaceOnUse" x1="847.8291" y1="563.533" x2="847.8291" y2="631.0264">
			<stop  offset="6.060640e-03" style="stop-color:#52C9B8"/>
			<stop  offset="1.259951e-02" style="stop-color:#51C8B7"/>
			<stop  offset="0.4357" style="stop-color:#32AA93"/>
			<stop  offset="0.7798" style="stop-color:#1E987D"/>
			<stop  offset="1" style="stop-color:#179175"/>
		</linearGradient>
		<path class="st29" d="M1145.8,633.9c0,0-42-74.9-97-73c-57,2-69,45.2-143,48c-78,3-134.5-34.7-159-38c-45-6-69.8,8.6-107,32
			c-35,22-90,31-90,31H1145.8z"/>
		<linearGradient id="SVGID_31_" gradientUnits="userSpaceOnUse" x1="384.8064" y1="393.872" x2="327.8818" y2="652.9611">
			<stop  offset="6.060640e-03" style="stop-color:#1C9C5C"/>
			<stop  offset="0.1079" style="stop-color:#258C62"/>
			<stop  offset="0.3076" style="stop-color:#33746C"/>
			<stop  offset="0.5168" style="stop-color:#3D6273"/>
			<stop  offset="0.7397" style="stop-color:#435777"/>
			<stop  offset="1" style="stop-color:#455478"/>
		</linearGradient>
		<path class="st30" d="M0.6,662.2h708.9c0,0-92.3-40.8-134.1-68.2c-73.2-48-188.9-96.2-338.1-113c-120-13.5-234.3-84.4-236.7-84.3
			V662.2z"/>
		<linearGradient id="SVGID_32_" gradientUnits="userSpaceOnUse" x1="1230.3853" y1="531.1316" x2="1254.1836" y2="645.3101">
			<stop  offset="6.060640e-03" style="stop-color:#1C9CA1"/>
			<stop  offset="0.1435" style="stop-color:#1B8D8A"/>
			<stop  offset="0.3352" style="stop-color:#197D72"/>
			<stop  offset="0.5361" style="stop-color:#187260"/>
			<stop  offset="0.7502" style="stop-color:#176B55"/>
			<stop  offset="1" style="stop-color:#176952"/>
		</linearGradient>
		<path class="st31" d="M1335.2,545.4c-57.5-16.2-115.2-20.2-129.8-20.2c-58,0-112,35-171,83c-39.6,32.2-141,54-141,54H1588V498.4
			c0,0-17.3-22-75.8-10C1460.1,499.1,1420.7,569.4,1335.2,545.4z"/>
		<linearGradient id="SVGID_33_" gradientUnits="userSpaceOnUse" x1="1105.4163" y1="630.4318" x2="1112.5485" y2="668.1214">
			<stop  offset="6.060640e-03" style="stop-color:#1C9C5C"/>
			<stop  offset="0.1079" style="stop-color:#258C62"/>
			<stop  offset="0.3076" style="stop-color:#33746C"/>
			<stop  offset="0.5168" style="stop-color:#3D6273"/>
			<stop  offset="0.7397" style="stop-color:#435777"/>
			<stop  offset="1" style="stop-color:#455478"/>
		</linearGradient>
		<path class="st32" d="M1244.6,627.9c-28.1-13.1-59.3-17.1-83.8-10.7c-21.4,5.6-51,21-51,21s-74,7.7-92,9.7c-37,4-46,14.8-46,14.8
			h272.8V627.9z"/>
		<g>
			<linearGradient id="SVGID_34_" gradientUnits="userSpaceOnUse" x1="1009.6506" y1="640.9149" x2="1033.8735" y2="673.257">
				<stop  offset="6.060640e-03" style="stop-color:#17AB80"/>
				<stop  offset="0.2962" style="stop-color:#18926A"/>
				<stop  offset="0.9117" style="stop-color:#1C5133"/>
				<stop  offset="1" style="stop-color:#1C472B"/>
			</linearGradient>
			<path class="st33" d="M1034.5,643.5c0-7.5-6-13.5-13.5-13.5c-7.4,0-13.5,6-13.5,13.5v28.4c0,2.1,1.7,3.7,3.7,3.7h19.5
				c2.1,0,3.8-1.7,3.8-3.7L1034.5,643.5z"/>
			<path class="st34" d="M1020,643.3v25.9c-5.2-0.6-9.2-5-9.2-10.3h-1c0,5.9,4.5,10.7,10.2,11.3v11.1h2v-38H1020z"/>
		</g>
		<g>
			<linearGradient id="SVGID_35_" gradientUnits="userSpaceOnUse" x1="1156.9205" y1="603.2743" x2="1120.8225" y2="662.4936">
				<stop  offset="6.060640e-03" style="stop-color:#17AB80"/>
				<stop  offset="0.2962" style="stop-color:#18926A"/>
				<stop  offset="0.9117" style="stop-color:#1C5133"/>
				<stop  offset="1" style="stop-color:#1C472B"/>
			</linearGradient>
			<path class="st35" d="M1170.6,604.4c0-18.8-15.3-34.1-34.1-34.1c-18.8,0-34.1,15.3-34.1,34.1v71.8c0,5.2,4.2,9.5,9.5,9.5h49.2
				c5.2,0,9.5-4.2,9.5-9.5L1170.6,604.4z"/>
			<path class="st34" d="M1155.7,616.4h-2c0,8.7-7.1,15.8-15.8,15.9v-32.9h-3v20.6c-5-0.5-8.8-4.8-8.8-9.9h-1
				c0,5.7,4.3,10.3,9.8,10.9v50.7c-6.5-0.6-12.3-3.5-16.6-7.9c5.8-0.3,10.4-5,10.4-10.9h-1c0,5.5-4.4,9.9-9.9,9.9v0.5
				c-4.3-4.7-7-11-7-17.9h-2c0,14.9,11.5,27.1,26.1,28.3v19.2h3v-58.6C1147.8,634.3,1155.7,626.3,1155.7,616.4z"/>
		</g>
		<g>
			<radialGradient id="SVGID_36_" cx="404.7119" cy="652.8301" r="155.1237" gradientUnits="userSpaceOnUse">
				<stop  offset="0" style="stop-color:#244F8C"/>
				<stop  offset="0.3348" style="stop-color:#287188"/>
				<stop  offset="0.9939" style="stop-color:#30BD80"/>
			</radialGradient>
			<path class="st36" d="M499.5,558.2c0-11.8-9.5-21.3-21.3-21.3h0v-12c0-14.3-11.6-25.9-25.9-25.9c-12.5,0-22.9,8.9-25.4,20.7
				c-2.6-1.2-5.6-1.9-8.6-1.9c-3.7,0-7.2,1-10.2,2.7c0,0-0.1,0-0.1,0.1c-0.3,0.2-0.6,0.4-0.9,0.5c-6.1,3.8-10.2,10.5-10.2,18.1
				v105.8c0,3.3,2.7,5.5,5.9,5.5h0.5h90.3c3.3,0,5.9-2.3,5.9-5.5V558.2z"/>
			<path class="st34" d="M485.3,579.7h-2c0,5.7-1.4,11.1-3.7,16c-7.6-0.4-13.8-6.7-13.8-14.5h-1c0,8.1,6.3,14.8,14.3,15.4
				c-5.8,10.9-17.2,18.5-30.3,19v-54c9.5-0.5,17-8.4,17-17.9h-1c0,9-7.1,16.4-16,16.9v-19.4h-3v31.5c-16.9-0.3-30.5-14.1-30.5-31h-2
				c0,18,14.5,32.7,32.5,33v62c-20.7-0.3-37.5-17.2-37.5-38h-2c0,21.9,17.7,39.7,39.5,40v23.5h3v-44.5
				C469.1,616.9,485.3,600.2,485.3,579.7z"/>
		</g>
		<g>
			<linearGradient id="SVGID_37_" gradientUnits="userSpaceOnUse" x1="27.115" y1="613.554" x2="76.6267" y2="762.2504">
				<stop  offset="6.060640e-03" style="stop-color:#17AB80"/>
				<stop  offset="0.2962" style="stop-color:#18926A"/>
				<stop  offset="0.9117" style="stop-color:#1C5133"/>
				<stop  offset="1" style="stop-color:#1C472B"/>
			</linearGradient>
			<path class="st37" d="M0.6,667.1c0-12.9,10.5-23.4,23.4-23.4h0v-13.2c0-15.7,12.7-28.4,28.4-28.4c13.7,0,25.2,9.7,27.8,22.7
				c2.9-1.3,6.1-2.1,9.5-2.1c4.1,0,7.9,1.1,11.2,3c0,0,0.1,0,0.1,0.1c0.3,0.2,0.7,0.4,1,0.6c6.7,4.1,11.2,11.5,11.2,19.9l0,116.2
				c0,3.6-2.9,6.1-6.5,6.1h-0.5H7.1c-3.6,0-6.5-2.5-6.5-6.1V667.1z"/>
			<path class="st34" d="M16.1,690.6h2.2c0,6.3,1.5,12.2,4.1,17.5c8.4-0.4,15.1-7.4,15.1-15.9h1.1c0,8.9-6.9,16.2-15.7,17
				c6.4,12,18.8,20.3,33.2,20.9v-59.3c-10.4-0.6-18.7-9.2-18.7-19.7h1.1c0,9.9,7.8,18,17.6,18.6v-21.4h3.3v34.6
				c18.5-0.3,33.5-15.4,33.5-34h2.2c0,19.8-16,35.9-35.7,36.2v68.1c22.8-0.3,41.2-18.9,41.2-41.7h2.2c0,24-19.4,43.6-43.4,43.9v25.8
				h-3.3v-48.9C34,731.4,16.1,713.1,16.1,690.6z"/>
		</g>
		<linearGradient id="SVGID_38_" gradientUnits="userSpaceOnUse" x1="524.5937" y1="747.2129" x2="482.5464" y2="808.0372">
			<stop  offset="6.061020e-03" style="stop-color:#30A359"/>
			<stop  offset="0.4245" style="stop-color:#2F7B56"/>
			<stop  offset="0.7896" style="stop-color:#2E5F55"/>
			<stop  offset="1" style="stop-color:#2E5454"/>
		</linearGradient>
		<path class="st38" d="M447.1,778.3c0-5.3,4.3-9.6,9.6-9.6l3.2,0c5.2-12.5,17.5-21.2,31.8-21.2c14.2,0,26.3,8.5,31.6,20.7l23.7-0.2
			c5.3,0,9.6,4.3,9.6,9.6v7H447.1V778.3z"/>
		<g>
			<linearGradient id="SVGID_39_" gradientUnits="userSpaceOnUse" x1="375.1389" y1="632.1877" x2="399.3616" y2="664.5295">
				<stop  offset="6.060640e-03" style="stop-color:#17AB80"/>
				<stop  offset="0.2962" style="stop-color:#18926A"/>
				<stop  offset="0.9117" style="stop-color:#1C5133"/>
				<stop  offset="1" style="stop-color:#1C472B"/>
			</linearGradient>
			<path class="st39" d="M400,634.8c0-7.5-6-13.5-13.5-13.5c-7.5,0-13.5,6-13.5,13.5v28.4c0,2.1,1.7,3.7,3.7,3.7h19.5
				c2.1,0,3.7-1.7,3.7-3.7V634.8z"/>
			<path class="st34" d="M385.5,634.5v25.9c-5.2-0.6-9.2-5-9.2-10.3h-1c0,5.9,4.5,10.7,10.2,11.3v11.1h2v-38H385.5z"/>
		</g>
		
			<linearGradient id="SVGID_40_" gradientUnits="userSpaceOnUse" x1="2903.8896" y1="675.2841" x2="2999.7197" y2="700.7359" gradientTransform="matrix(-1 0 0 1 4185 0)">
			<stop  offset="0" style="stop-color:#002487"/>
			<stop  offset="0.138" style="stop-color:#022789"/>
			<stop  offset="0.2562" style="stop-color:#083290"/>
			<stop  offset="0.3672" style="stop-color:#12449B"/>
			<stop  offset="0.473" style="stop-color:#1F5CAA"/>
			<stop  offset="0.5697" style="stop-color:#307ABD"/>
			<stop  offset="1" style="stop-color:#FFFFFF"/>
		</linearGradient>
		<path class="st40" d="M1173.6,681.9c0,1.6,36.9,2.9,82.5,2.9c45.6,0,82.5-1.3,82.5-2.9c0-1.6-36.9-2.9-82.5-2.9
			C1210.5,679,1173.6,680.3,1173.6,681.9z"/>
		
			<linearGradient id="SVGID_41_" gradientUnits="userSpaceOnUse" x1="3017.2988" y1="693.0179" x2="3142.1663" y2="726.1819" gradientTransform="matrix(-1 0 0 1 4329 0)">
			<stop  offset="0" style="stop-color:#002487"/>
			<stop  offset="0.138" style="stop-color:#022789"/>
			<stop  offset="0.2562" style="stop-color:#083290"/>
			<stop  offset="0.3672" style="stop-color:#12449B"/>
			<stop  offset="0.473" style="stop-color:#1F5CAA"/>
			<stop  offset="0.5697" style="stop-color:#307ABD"/>
			<stop  offset="1" style="stop-color:#FFFFFF"/>
		</linearGradient>
		<path class="st41" d="M1171.6,701.7c0,1.7,48.1,3,107.5,3c59.4,0,107.5-1.4,107.5-3c0-1.7-48.1-3-107.5-3
			C1219.7,698.6,1171.6,700,1171.6,701.7z"/>
		<g>
			<linearGradient id="SVGID_42_" gradientUnits="userSpaceOnUse" x1="1247.7786" y1="528.0624" x2="1226.8363" y2="670.2345">
				<stop  offset="6.061020e-03" style="stop-color:#30C47A"/>
				<stop  offset="0.1952" style="stop-color:#35A57E"/>
				<stop  offset="0.7482" style="stop-color:#425088"/>
				<stop  offset="1" style="stop-color:#472E8C"/>
			</linearGradient>
			<path class="st42" d="M1257.1,541.2c-0.5-7.9-5.2-14.7-11.9-18.1c0,0-4.2-2-9.5-2c-5.5,0-9.5,2-9.5,2
				c-6.7,3.4-11.4,10.2-11.9,18.1c-9.4,1-16.8,8.9-16.8,18.6v101.5c0,2.9,2.3,5.6,5.2,5.6h66c2.9,0,5.2-2.7,5.2-5.6V559.8
				C1273.9,550.1,1266.5,542.2,1257.1,541.2z"/>
			<path class="st34" d="M1257.2,599.7c0,10.4-8.1,19-18.3,19.8v-58.8h-3.1V602c-9.8-0.7-17.5-8.9-17.5-18.8h-2
				c0,11.1,8.6,20.1,19.5,20.8v38c-9.3-0.6-17.5-5.4-22.7-12.5c7.4-0.9,13.1-7.2,13.1-14.8h-1c0,7.3-5.6,13.3-12.8,13.9
				c-3.2-4.8-5.1-10.6-5.1-16.9h-2c0,17.2,13.5,31.4,30.5,32.4v29.6h3.1v-52.2c11.3-0.8,20.3-10.3,20.3-21.8H1257.2z"/>
		</g>
		<g>
			<linearGradient id="SVGID_43_" gradientUnits="userSpaceOnUse" x1="1206.1265" y1="629.6216" x2="1175.1263" y2="699.6218">
				<stop  offset="6.060640e-03" style="stop-color:#17AB80"/>
				<stop  offset="0.2962" style="stop-color:#18926A"/>
				<stop  offset="0.9117" style="stop-color:#1C5133"/>
				<stop  offset="1" style="stop-color:#1C472B"/>
			</linearGradient>
			<path class="st43" d="M1214.5,656.9c0-15.8-12.8-28.6-28.6-28.6c-15.8,0-28.6,12.8-28.6,28.6v40.9c0,4.4,3.6,7.9,7.9,7.9h41.2
				c4.4,0,7.9-3.6,7.9-7.9V656.9z"/>
			<path class="st34" d="M1207.7,677.4h-2c0,10.4-8.1,19-18.3,19.8v-47.3h-3v29.2c-7.4-1.1-13.2-7.5-13.2-15.2h-2
				c0,8.8,6.6,16.1,15.2,17.3v30.2h3v-12.2C1198.8,698.4,1207.7,689,1207.7,677.4z"/>
		</g>
		<g>
			<linearGradient id="SVGID_44_" gradientUnits="userSpaceOnUse" x1="1378.0361" y1="578.2852" x2="1415.8285" y2="641.5556">
				<stop  offset="6.060640e-03" style="stop-color:#17AB80"/>
				<stop  offset="0.2962" style="stop-color:#18926A"/>
				<stop  offset="0.9117" style="stop-color:#1C5133"/>
				<stop  offset="1" style="stop-color:#1C472B"/>
			</linearGradient>
			<path class="st44" d="M1438.5,614.1c0-15.8-12.8-28.6-28.6-28.6c-15.8,0-28.6,12.8-28.6,28.6V655c0,4.4,3.6,7.9,7.9,7.9h41.2
				c4.4,0,7.9-3.6,7.9-7.9L1438.5,614.1z"/>
			<path class="st34" d="M1431.7,634.7h-2c0,10.4-8.1,19-18.3,19.8v-47.3h-3v29.2c-7.4-1.1-13.2-7.5-13.2-15.2h-2
				c0,8.8,6.6,16.1,15.2,17.3v30.2h3v-12.2C1422.8,655.7,1431.7,646.2,1431.7,634.7z"/>
		</g>
		<g>
			<linearGradient id="SVGID_45_" gradientUnits="userSpaceOnUse" x1="1264.1407" y1="580.692" x2="1333.8124" y2="660.8899">
				<stop  offset="6.060640e-03" style="stop-color:#17AB80"/>
				<stop  offset="0.2962" style="stop-color:#18926A"/>
				<stop  offset="0.9117" style="stop-color:#1C5133"/>
				<stop  offset="1" style="stop-color:#1C472B"/>
			</linearGradient>
			<path class="st45" d="M1336.7,593.7c0-18.8-15.3-34.1-34.1-34.1c-18.8,0-34.1,15.3-34.1,34.1v71.8c0,5.2,4.2,9.5,9.5,9.5h49.2
				c5.2,0,9.5-4.2,9.5-9.5L1336.7,593.7z"/>
			<path class="st34" d="M1321.9,605.7h-2c0,8.7-7.1,15.8-15.8,15.9v-32.9h-3v20.6c-5-0.5-8.8-4.8-8.8-9.9h-1
				c0,5.7,4.3,10.3,9.8,10.9V661c-6.5-0.6-12.3-3.5-16.6-7.9c5.8-0.3,10.4-5,10.4-10.9h-1c0,5.5-4.4,9.9-9.9,9.9v0.5
				c-4.3-4.7-7-11-7-17.9h-2c0,14.9,11.5,27.1,26.1,28.3v19.2h3v-58.6C1313.9,623.5,1321.9,615.5,1321.9,605.7z"/>
		</g>
		<g>
			
				<linearGradient id="SVGID_46_" gradientUnits="userSpaceOnUse" x1="-291.2984" y1="569.0909" x2="-329.7075" y2="675.0377" gradientTransform="matrix(-1 0 0 1 1034.1016 0)">
				<stop  offset="6.060640e-03" style="stop-color:#17AB80"/>
				<stop  offset="0.2962" style="stop-color:#18926A"/>
				<stop  offset="0.9117" style="stop-color:#1C5133"/>
				<stop  offset="1" style="stop-color:#1C472B"/>
			</linearGradient>
			<path class="st46" d="M1319.5,613.2c0-18.8,15.3-34.1,34.1-34.1c18.8,0,34.1,15.3,34.1,34.1V685c0,5.2-4.2,9.5-9.5,9.5H1329
				c-5.2,0-9.5-4.2-9.5-9.5V613.2z"/>
			<path class="st34" d="M1334.3,625.2h2c0,8.7,7.1,15.8,15.8,15.9v-32.9h3v20.6c5-0.5,8.8-4.8,8.8-9.9h1c0,5.7-4.3,10.3-9.8,10.9
				v50.7c6.5-0.6,12.3-3.5,16.6-7.9c-5.8-0.3-10.4-5-10.4-10.9h1c0,5.5,4.4,9.9,9.9,9.9v0.5c4.3-4.7,7-11,7-17.9h2
				c0,14.9-11.5,27.1-26.1,28.3v19.2h-3v-58.6C1342.3,643,1334.3,635,1334.3,625.2z"/>
		</g>
		<g>
			<radialGradient id="SVGID_47_" cx="236.2012" cy="695.5108" r="166.8947" gradientUnits="userSpaceOnUse">
				<stop  offset="0" style="stop-color:#244F8C"/>
				<stop  offset="0.1582" style="stop-color:#25588B"/>
				<stop  offset="0.4217" style="stop-color:#287288"/>
				<stop  offset="0.7558" style="stop-color:#2C9B84"/>
				<stop  offset="0.9939" style="stop-color:#30BD80"/>
			</radialGradient>
			<path class="st47" d="M267.1,576.2c-0.5-7.9-5.2-14.7-11.9-18.1c0,0-4.2-2-9.5-2c-5.5,0-9.5,2-9.5,2
				c-6.7,3.4-11.4,10.2-11.9,18.1c-9.4,1-16.8,8.9-16.8,18.6v101.5c0,2.9,2.3,5.6,5.2,5.6h66c2.9,0,5.2-2.7,5.2-5.6V594.8
				C283.9,585.1,276.5,577.2,267.1,576.2z"/>
			<path class="st34" d="M267.2,634.7c0,10.4-8.1,19-18.3,19.8v-58.8h-3.1V637c-9.8-0.7-17.5-8.9-17.5-18.8h-2
				c0,11.1,8.6,20.1,19.5,20.8v38c-9.3-0.6-17.5-5.4-22.7-12.5c7.4-0.9,13.1-7.2,13.1-14.8h-1c0,7.3-5.6,13.3-12.8,13.9
				c-3.2-4.8-5.1-10.6-5.1-16.9h-2c0,17.2,13.5,31.4,30.5,32.4v29.6h3.1v-52.2c11.3-0.8,20.3-10.3,20.3-21.8H267.2z"/>
		</g>
		<g>
			<linearGradient id="SVGID_48_" gradientUnits="userSpaceOnUse" x1="173.9145" y1="613.0264" x2="197.9144" y2="717.0261">
				<stop  offset="6.060640e-03" style="stop-color:#17AB80"/>
				<stop  offset="0.2962" style="stop-color:#18926A"/>
				<stop  offset="0.9117" style="stop-color:#1C5133"/>
				<stop  offset="1" style="stop-color:#1C472B"/>
			</linearGradient>
			<path class="st48" d="M154.8,643.7c0-18.8,15.3-34.1,34.1-34.1c18.8,0,34.1,15.3,34.1,34.1v71.8c0,5.2-4.2,9.5-9.5,9.5h-49.2
				c-5.2,0-9.5-4.2-9.5-9.5L154.8,643.7z"/>
			<path class="st34" d="M169.7,655.7h2c0,8.7,7.1,15.8,15.8,15.9v-32.9h3v20.6c5-0.5,8.8-4.8,8.8-9.9h1c0,5.7-4.3,10.3-9.8,10.9
				V711c6.5-0.6,12.3-3.5,16.6-7.9c-5.8-0.3-10.4-5-10.4-10.9h1c0,5.5,4.4,9.9,9.9,9.9v0.5c4.3-4.7,7-11,7-17.9h2
				c0,14.9-11.5,27.1-26.1,28.3v19.2h-3v-58.6C177.6,673.5,169.7,665.5,169.7,655.7z"/>
		</g>
		<linearGradient id="SVGID_49_" gradientUnits="userSpaceOnUse" x1="1314.4722" y1="559.7303" x2="1304.897" y2="846.288">
			<stop  offset="6.060640e-03" style="stop-color:#94FFB8"/>
			<stop  offset="0.1823" style="stop-color:#63CF86"/>
			<stop  offset="0.3234" style="stop-color:#42AF64"/>
			<stop  offset="0.4" style="stop-color:#36A357"/>
			<stop  offset="0.6131" style="stop-color:#369241"/>
			<stop  offset="1" style="stop-color:#36751C"/>
		</linearGradient>
		<path class="st49" d="M1588,569.3c-93.4,0-221.4,71-314.4,162c-104.1,101.9-252,119.1-252,119.1H1588V569.3z"/>
	</g>
</g>
</svg>
