<?xml version="1.0" encoding="utf-8"?>
<!-- Generator: Adobe Illustrator 25.2.1, SVG Export Plug-In . SVG Version: 6.00 Build 0)  -->
<svg version="1.1" id="Layer_1" xmlns="http://www.w3.org/2000/svg" xmlns:xlink="http://www.w3.org/1999/xlink" x="0px" y="0px"
	 viewBox="0 0 1920 1080" style="enable-background:new 0 0 1920 1080;" xml:space="preserve">
<style type="text/css">
	.st0{fill:url(#SVGID_1_);}
	.st1{fill:url(#SVGID_2_);}
	.st2{fill:url(#SVGID_3_);}
	.st3{fill:url(#SVGID_4_);}
	.st4{fill:url(#SVGID_5_);}
	.st5{clip-path:url(#SVGID_7_);}
	.st6{fill:#322356;}
	.st7{clip-path:url(#SVGID_9_);}
	.st8{clip-path:url(#SVGID_11_);}
	.st9{fill:#221742;}
	.st10{clip-path:url(#SVGID_13_);}
	.st11{fill:#181233;}
	.st12{clip-path:url(#SVGID_15_);}
	.st13{clip-path:url(#SVGID_17_);}
</style>
<g>
	<g>
		
			<linearGradient id="SVGID_1_" gradientUnits="userSpaceOnUse" x1="960" y1="-9.094947e-13" x2="960" y2="1080" gradientTransform="matrix(1 0 0 -1 0 1080)">
			<stop  offset="0" style="stop-color:#FFBFFF"/>
			<stop  offset="0.6751" style="stop-color:#C99DEC"/>
			<stop  offset="1" style="stop-color:#AE8CE3"/>
		</linearGradient>
		<rect class="st0" width="1920" height="1080"/>
		
			<linearGradient id="SVGID_2_" gradientUnits="userSpaceOnUse" x1="646.0902" y1="23.3999" x2="646.0902" y2="420.8999" gradientTransform="matrix(1 0 0 -1 0 1080)">
			<stop  offset="0" style="stop-color:#8D4D99"/>
			<stop  offset="0.2374" style="stop-color:#A96DB1"/>
			<stop  offset="0.5686" style="stop-color:#CB93CE"/>
			<stop  offset="0.8345" style="stop-color:#E0AAE0"/>
			<stop  offset="1" style="stop-color:#E8B3E7"/>
		</linearGradient>
		<path class="st1" d="M1096.4,906.7c-80,0.3-181.5-37.3-212.9-45.1c-31.5-7.8-68,17.6-110.9,22.4c-42.9,4.9-60.5-2.9-74.8-18.5
			s-59.8-7.8-92.8-7.8s-31.7-5.9-44.4-29.3c-12.7-23.4-31.8-78-91.6-58.5s-114.5-70-154.8-89.8c-29.5-14.4-119.1-19.4-165.2-21V966
			l980.7,90.6C1129.5,1056.7,1176.4,906.5,1096.4,906.7z"/>
		
			<linearGradient id="SVGID_3_" gradientUnits="userSpaceOnUse" x1="1042.5839" y1="42.8315" x2="1042.5839" y2="370.8" gradientTransform="matrix(1 0 0 -1 0 1080)">
			<stop  offset="0" style="stop-color:#6A4D99"/>
			<stop  offset="0.3247" style="stop-color:#9C67B9"/>
			<stop  offset="0.6189" style="stop-color:#C37AD2"/>
			<stop  offset="0.8538" style="stop-color:#DA87E1"/>
			<stop  offset="1" style="stop-color:#E38BE7"/>
		</linearGradient>
		<path class="st2" d="M1572.8,709.2c0,0-213,166.2-331.6,130.8c-118.5-35.4-120-6.2-165.4,21.6s-79,50.7-106.8,45.1
			s-49.8-14.9-71.7,0s-209.5,78.8-353.5,57.8s245.2,75.6,391.5,72.6s624.1-57.4,624.1-57.4L1572.8,709.2z"/>
		
			<linearGradient id="SVGID_4_" gradientUnits="userSpaceOnUse" x1="961.1018" y1="-9.094947e-13" x2="961.1018" y2="569.4" gradientTransform="matrix(1 0 0 -1 0 1080)">
			<stop  offset="0" style="stop-color:#6A4D99"/>
			<stop  offset="7.261544e-02" style="stop-color:#6F51A1"/>
			<stop  offset="0.4755" style="stop-color:#8664C7"/>
			<stop  offset="0.7988" style="stop-color:#9571DE"/>
			<stop  offset="1" style="stop-color:#9A75E7"/>
		</linearGradient>
		<path class="st3" d="M1920,510.6c-13.5,11.1-32.6,24.2-52.4,29.4c-37.1,9.9-101.7,66-129.5,81.6c-25.6,14.4-51.2,40.3-89.4,62.7
			c-0.8-1.2-2-1.4-2.7-2.5c-1.8-2.7,2-9.9-2.4-10.2c-0.3-1.8,1.2-2.8,1-4.6c-0.4-3-2.6-1.4-1.4-4.4c0.7-1.9,4.4-7.5-0.3-7.5
			c0-1.7,0.1-3.4-0.5-4.6c-0.2-0.4-1.2-0.5-1.4-1.6c-0.1-0.6,0.5-2,0.4-2.8c-0.3-2.6-2.8-3.7-3.5-5.9c-0.5-1.5-0.3-0.5-0.2-2.1
			c0-1,0.9-2,0.5-3.2c-0.6-2.1-2.9-1.5-3.5-3.9c-0.4-1.9,1-4.3,0.2-6.2c-0.3-0.7-1.4-0.4-1.9-1.6c-0.3-0.8,0.2-2,0-2.8
			c-0.3-1.5-1.5-3.1-2.4-4.3c0.9-2.6,0.7-5.9-0.5-8.2c-1.4-2.6-2.5-2.7-3-1.3c-0.3,0.4-0.7,0.9-1.1,1.6c-1.2,2.2-1.4,5.4-0.6,7.9
			c-0.1,0.1-0.1,0.2-0.2,0.4c-0.3,0.5-0.5,0.9-0.7,1.4c-0.6,0.9-1.2,1.9-1.4,2.8c-0.2,0.8,0.3,2.1,0,2.8c-0.5,1.2-1.6,0.9-1.9,1.6
			c-0.4,0.9-0.3,1.8-0.1,2.8c-1.2,1.7-2.5,3.2-2.5,5.1c0,0.4,0.1,0.7,0.2,1.1c-0.4,0.3-0.7,0.7-0.8,1.2c-0.4,1.2,0.5,2.2,0.5,3.2
			c0,1.2,0.2,1,0,1.4c-0.6,0.6-1.2,1.3-1.4,1.8c-0.3,0.6-0.5,1.1-0.7,1.7c-0.8,0.9-1.5,1.9-1.7,3.2c-0.1,0.8,0.6,2.2,0.4,2.8
			c-0.3,1.1-1.2,1.2-1.4,1.6c-0.4,0.8-0.5,1.8-0.5,2.9c-0.2,0.6-0.2,1.1-0.3,1.8c-2.8,0.1-2.3,2.4-1.5,4.5c-0.2,0.5-0.5,1.1-0.6,1.8
			c-0.5,2.1,0.5,2.9,1.3,3.9c-0.3,0.3-0.6,0.8-0.7,1.7c-0.2,1.8,1.3,2.8,1,4.6c-4.4,0.3-0.7,7.5-2.4,10.2c-0.7,1-2,1.3-2.8,2.5
			c-0.7,1.2-1.1,2.8-1,4.2c0.4,4.5,3.2,1.8,5.7,1.7c0.9,2.5-0.3,4,2.8,5c1.1,0.3,3.2,0.8,4.4,0.8c-0.6,1.9,0.7,2.5,1.5,3.3
			c0.4,0.4,1,0.2,1.4,0.4c-13.3,8.6-24,17.6-32,25.1c-0.8-1.7,1.1-5.7-1.4-5.8c-0.2-1.1,0.7-1.7,0.6-2.8c-0.2-1.8-1.5-0.8-0.8-2.6
			c0.4-1.1,2.6-4.5-0.2-4.4c0-1,0.1-2-0.3-2.8c-0.1-0.2-0.7-0.3-0.9-1c-0.1-0.4,0.3-1.2,0.3-1.7c-0.2-1.5-1.6-2.2-2.1-3.5
			c-0.3-0.9-0.2-0.3-0.1-1.3c0-0.6,0.5-1.2,0.3-1.9c-0.4-1.2-1.7-0.9-2.1-2.3c-0.3-1.1,0.6-2.6,0.1-3.7c-0.2-0.4-0.8-0.2-1.1-1
			c-0.2-0.4,0.1-1.2,0-1.7c-0.2-0.9-0.9-1.9-1.4-2.5c0.5-1.5,0.4-3.5-0.3-4.9c-0.8-1.5-1.5-1.6-1.8-0.7c-0.2,0.2-0.4,0.5-0.7,0.9
			c-0.7,1.3-0.8,3.2-0.4,4.7c0,0.1-0.1,0.1-0.1,0.2c-0.2,0.3-0.3,0.5-0.4,0.8c-0.4,0.5-0.7,1.1-0.8,1.7c-0.1,0.5,0.2,1.2,0,1.7
			c-0.3,0.7-1,0.5-1.1,1c-0.2,0.5-0.2,1.1-0.1,1.6c-0.7,1-1.5,1.9-1.5,3c0,0.2,0,0.4,0.1,0.6c-0.2,0.2-0.4,0.4-0.5,0.7
			c-0.2,0.7,0.3,1.3,0.3,1.9c0,0.7,0.1,0.6,0,0.8c-0.3,0.4-0.7,0.8-0.8,1c-0.2,0.3-0.3,0.7-0.4,1c-0.5,0.5-0.9,1.1-1,1.9
			c-0.1,0.5,0.3,1.3,0.3,1.7c-0.2,0.6-0.7,0.7-0.9,1c-0.2,0.5-0.3,1.1-0.3,1.7c-0.1,0.3-0.1,0.7-0.2,1.1c-1.7,0.1-1.4,1.4-0.9,2.7
			c-0.1,0.3-0.3,0.7-0.4,1.1c-0.3,1.2,0.3,1.8,0.8,2.3c-0.2,0.2-0.3,0.5-0.4,1c-0.1,1.1,0.8,1.7,0.6,2.8c-2.6,0.2-0.4,4.5-1.4,6
			c-0.4,0.6-1.2,0.8-1.6,1.5s-0.7,1.6-0.6,2.5c0.3,2.7,1.9,1.1,3.4,1c0.5,1.5-0.2,2.4,1.7,2.9c0.7,0.2,1.9,0.5,2.6,0.5
			c-0.4,1.1,0.4,1.5,0.9,1.9c0.3,0.3,0.7,0,1,0.3c0.2,0.2-0.1,0.8,0,1c0.4,0.5,0.5,0.8,1,1.2c0.1,0,0.2,0,0.3,0
			c-3.4,3.9-5.2,6.2-5.2,6.2s-27.4,28.9-53,48.1c0-0.1-0.1-0.2-0.1-0.3c-0.5-0.7-1.2-0.9-1.6-1.5c-1-1.6,1.2-5.9-1.4-6
			c-0.2-1.1,0.7-1.7,0.6-2.8c-0.2-1.8-1.5-0.8-0.8-2.6c0.4-1.1,2.6-4.5-0.2-4.4c0-1,0.1-2-0.3-2.8c-0.1-0.2-0.7-0.3-0.9-1
			c-0.1-0.4,0.3-1.2,0.3-1.7c-0.2-1.5-1.6-2.2-2.1-3.5c-0.3-0.9-0.2-0.3-0.1-1.3c0-0.6,0.5-1.2,0.3-1.9c-0.4-1.2-1.7-0.9-2.1-2.3
			c-0.3-1.1,0.6-2.6,0.1-3.7c-0.2-0.4-0.8-0.2-1.1-1c-0.2-0.4,0.1-1.2,0-1.7c-0.2-0.9-0.9-1.9-1.4-2.5c0.5-1.5,0.4-3.5-0.3-4.9
			c-0.8-1.5-1.5-1.6-1.8-0.7c-0.2,0.2-0.4,0.5-0.7,0.9c-0.7,1.3-0.8,3.2-0.4,4.7c0,0.1-0.1,0.1-0.1,0.2c-0.2,0.3-0.3,0.5-0.4,0.8
			c-0.4,0.5-0.7,1.1-0.8,1.7c-0.1,0.5,0.2,1.2,0,1.7c-0.3,0.7-1,0.5-1.1,1c-0.2,0.5-0.2,1.1-0.1,1.6c-0.7,1-1.5,1.9-1.5,3
			c0,0.2,0,0.4,0.1,0.6c-0.2,0.2-0.4,0.4-0.5,0.7c-0.2,0.7,0.3,1.3,0.3,1.9c0,0.7,0.1,0.6,0,0.8c-0.3,0.4-0.7,0.8-0.8,1
			c-0.2,0.3-0.3,0.7-0.4,1c-0.5,0.5-0.9,1.1-1,1.9c-0.1,0.5,0.3,1.3,0.3,1.7c-0.2,0.6-0.7,0.7-0.9,1c-0.2,0.5-0.3,1.1-0.3,1.7
			c-0.1,0.3-0.1,0.7-0.2,1.1c-1.7,0.1-1.4,1.4-0.9,2.7c-0.1,0.3-0.3,0.7-0.4,1.1c-0.3,1.2,0.3,1.8,0.8,2.3c-0.2,0.2-0.3,0.5-0.4,1
			c-0.1,1.1,0.8,1.7,0.6,2.8c-2.6,0.2-0.4,4.5-1.4,6c-0.4,0.6-1.2,0.8-1.6,1.5s-0.7,1.6-0.6,2.5c0.3,2.7,1.9,1.1,3.4,1
			c0.5,1.5-0.2,2.4,1.7,2.9c0.7,0.2,1.9,0.5,2.6,0.5c-0.4,1.1,0.4,1.5,0.9,1.9c0.3,0.3,0.7,0,1,0.3c0.2,0.2-0.1,0.8,0,1
			s0.2,0.3,0.3,0.4c-7.6,4.3-14.3,6.7-19.2,5.9c-4.9-0.8-12.2-2.4-21.1-3.3c0.1-0.2-0.1-0.7,0-0.9c0.3-0.3,0.7,0,1-0.3
			c0.5-0.5,1.3-0.8,0.9-1.9c0.7,0,1.9-0.3,2.6-0.5c1.9-0.6,1.1-1.4,1.7-2.9c1.5,0.1,3.1,1.7,3.4-1c0.1-0.9-0.1-1.8-0.6-2.5
			s-1.2-0.9-1.6-1.5c-1-1.6,1.2-5.9-1.4-6c-0.2-1.1,0.7-1.7,0.6-2.8c-0.2-1.8-1.5-0.8-0.8-2.6c0.4-1.1,2.6-4.5-0.2-4.4
			c0-1,0.1-2-0.3-2.8c-0.1-0.2-0.7-0.3-0.9-1c-0.1-0.4,0.3-1.2,0.3-1.7c-0.2-1.5-1.6-2.2-2.1-3.5c-0.3-0.9-0.2-0.3-0.1-1.3
			c0-0.6,0.5-1.2,0.3-1.9c-0.4-1.2-1.7-0.9-2.1-2.3c-0.3-1.1,0.6-2.6,0.1-3.7c-0.2-0.4-0.8-0.2-1.1-1c-0.2-0.4,0.1-1.2,0-1.7
			c-0.2-0.9-0.9-1.9-1.4-2.5c0.5-1.5,0.4-3.5-0.3-4.9c-0.8-1.5-1.5-1.6-1.8-0.7c-0.2,0.2-0.4,0.5-0.7,0.9c-0.7,1.3-0.8,3.2-0.4,4.7
			c0,0.1-0.1,0.1-0.1,0.2c-0.2,0.3-0.3,0.5-0.4,0.8c-0.4,0.5-0.7,1.1-0.8,1.7c-0.1,0.5,0.2,1.2,0,1.7c-0.3,0.7-1,0.5-1.1,1
			c-0.2,0.5-0.2,1.1-0.1,1.6c-0.7,1-1.5,1.9-1.5,3c0,0.2,0,0.4,0.1,0.6c-0.2,0.2-0.4,0.4-0.5,0.7c-0.2,0.7,0.3,1.3,0.3,1.9
			c0,0.7,0.1,0.6,0,0.8c-0.3,0.4-0.7,0.8-0.8,1c-0.2,0.3-0.3,0.7-0.4,1c-0.5,0.5-0.9,1.1-1,1.9c-0.1,0.5,0.3,1.3,0.3,1.7
			c-0.2,0.6-0.7,0.7-0.9,1c-0.2,0.5-0.3,1.1-0.3,1.7c-0.1,0.3-0.1,0.7-0.2,1.1c-1.7,0.1-1.4,1.4-0.9,2.7c-0.1,0.3-0.3,0.7-0.4,1.1
			c-0.3,1.2,0.3,1.8,0.8,2.3c-0.2,0.2-0.3,0.5-0.4,1c-0.1,1.1,0.8,1.7,0.6,2.8c-0.5,0-0.7,0.2-0.9,0.5c0.2-3,1-6.4-2-6.6
			c-0.3-1.8,1.2-2.8,1-4.6c-0.4-3-2.6-1.4-1.4-4.4c0.7-1.9,4.4-7.5-0.3-7.5c0-1.7,0.1-3.4-0.5-4.6c-0.2-0.4-1.2-0.5-1.4-1.6
			c-0.1-0.6,0.5-2,0.4-2.8c-0.3-2.6-2.8-3.7-3.5-5.9c-0.5-1.5-0.3-0.5-0.2-2.1c0-1,0.9-2,0.5-3.2c-0.6-2.1-2.9-1.5-3.5-3.9
			c-0.4-1.9,1-4.3,0.2-6.2c-0.3-0.7-1.4-0.4-1.9-1.6c-0.3-0.8,0.2-2,0-2.8c-0.3-1.5-1.5-3.1-2.4-4.3c0.9-2.6,0.7-5.9-0.5-8.2
			c-1.4-2.6-2.5-2.7-3-1.3c-0.3,0.4-0.7,0.9-1.1,1.6c-1.2,2.2-1.4,5.4-0.6,7.9c-0.1,0.1-0.1,0.2-0.2,0.4c-0.3,0.5-0.5,0.9-0.7,1.4
			c-0.6,0.9-1.2,1.9-1.4,2.8c-0.2,0.8,0.3,2.1,0,2.8c-0.5,1.2-1.6,0.9-1.9,1.6c-0.4,0.9-0.3,1.8-0.1,2.8c-1.2,1.7-2.5,3.2-2.5,5.1
			c0,0.4,0.1,0.7,0.2,1.1c-0.4,0.3-0.7,0.7-0.8,1.2c-0.4,1.2,0.5,2.2,0.5,3.2c0,1.2,0.2,1,0,1.4c-0.6,0.6-1.2,1.3-1.4,1.8
			c-0.3,0.6-0.5,1.1-0.7,1.7c-0.8,0.9-1.5,1.9-1.7,3.2c-0.1,0.8,0.6,2.2,0.4,2.8c-0.3,1.1-1.2,1.2-1.4,1.6c-0.4,0.8-0.5,1.8-0.5,2.9
			c-0.2,0.6-0.2,1.1-0.3,1.8c-2.8,0.1-2.3,2.4-1.5,4.5c-0.2,0.5-0.5,1.1-0.6,1.8c-0.5,2.1,0.5,2.9,1.3,3.9c-0.3,0.3-0.6,0.8-0.7,1.7
			c-0.2,1.8,1.3,2.8,1,4.6c-4.4,0.3-0.7,7.5-2.4,10.2c-0.7,1-2,1.3-2.8,2.5c-0.7,1.2-1.1,2.8-1,4.2c0.4,4.5,3.2,1.8,5.7,1.7
			c0.9,2.5-0.3,4,2.8,5c1.1,0.3,3.2,0.8,4.4,0.8c-0.1,0.4-0.2,0.7-0.1,1.1c-27.3,6.7-57,26.5-77.1,77.2
			c-12.1,30.7-19.4,46.5-26.6,55.4c-0.1-0.4-0.2-0.7-0.4-1c-0.4-0.6-1-0.7-1.3-1.2c-0.8-1.3,0.9-4.7-1.2-4.9
			c-0.1-0.9,0.6-1.4,0.5-2.2c-0.2-1.4-1.2-0.7-0.7-2.1c0.3-0.9,2.1-3.6-0.1-3.6c0-0.8,0-1.6-0.2-2.2c-0.1-0.2-0.6-0.3-0.7-0.8
			c-0.1-0.3,0.3-1,0.2-1.4c-0.1-1.2-1.3-1.8-1.7-2.8c-0.2-0.7-0.1-0.3-0.1-1c0-0.5,0.4-0.9,0.2-1.5c-0.3-1-1.4-0.7-1.7-1.9
			c-0.2-0.9,0.5-2.1,0.1-3c-0.1-0.4-0.7-0.2-0.9-0.8c-0.1-0.4,0.1-1,0-1.4c-0.2-0.7-0.7-1.5-1.1-2c0.4-1.2,0.3-2.8-0.3-3.9
			c-0.7-1.2-1.2-1.3-1.4-0.6c-0.2,0.2-0.3,0.4-0.5,0.8c-0.6,1-0.7,2.6-0.3,3.8c0,0.1-0.1,0.1-0.1,0.2c-0.1,0.2-0.3,0.4-0.3,0.7
			c-0.3,0.4-0.6,0.9-0.7,1.4c-0.1,0.4,0.1,1,0,1.4c-0.2,0.6-0.8,0.4-0.9,0.8c-0.2,0.4-0.1,0.9-0.1,1.3c-0.6,0.8-1.2,1.6-1.2,2.5
			c0,0.2,0,0.4,0.1,0.5c-0.2,0.1-0.3,0.3-0.4,0.6c-0.2,0.6,0.2,1.1,0.2,1.5c0,0.6,0.1,0.5,0,0.6c-0.3,0.3-0.6,0.6-0.7,0.8
			c-0.1,0.3-0.2,0.5-0.3,0.8c-0.4,0.4-0.7,0.9-0.8,1.5c0,0.4,0.3,1.1,0.2,1.4c-0.1,0.5-0.6,0.6-0.7,0.8c-0.2,0.4-0.2,0.9-0.2,1.4
			c-0.1,0.3-0.1,0.5-0.1,0.9c-1.3,0-1.1,1.1-0.7,2.1c-0.1,0.3-0.2,0.5-0.3,0.9c-0.2,1,0.2,1.4,0.6,1.9c-0.1,0.2-0.3,0.4-0.3,0.8
			c-0.1,0.9,0.6,1.3,0.5,2.2c-2.1,0.1-0.3,3.6-1.2,4.9c-0.3,0.5-0.9,0.6-1.3,1.2c-0.3,0.6-0.5,1.3-0.5,2c0.2,2.2,1.5,0.9,2.7,0.8
			c0.4,1.2-0.2,1.9,1.3,2.4c0.5,0.2,1.5,0.4,2.1,0.4c-0.3,0.9,0.3,1.2,0.7,1.6c0.2,0.2,0.6,0,0.8,0.3c0.1,0.2-0.1,0.6,0,0.8
			c0.3,0.4,0.4,0.7,0.8,0.9c0.2,0.1,0.5-0.1,0.7,0c0.1,0.1,0.2,0.2,0.3,0.4v0.3c-6.8,3.1-15.2,4.2-27.7,7.5c0.2-0.2,0.3-0.3,0.5-0.6
			c0.1-0.1-0.1-0.4,0-0.5c0.2-0.2,0.4,0,0.6-0.2c0.3-0.3,0.7-0.5,0.5-1.1c0.4,0,1.1-0.2,1.5-0.3c1-0.3,0.6-0.8,0.9-1.6
			c0.8,0,1.7,0.9,1.9-0.6c0-0.5-0.1-1-0.3-1.4c-0.3-0.4-0.7-0.5-0.9-0.8c-0.6-0.9,0.6-3.3-0.8-3.4c-0.1-0.6,0.4-0.9,0.3-1.5
			c-0.1-1-0.8-0.5-0.5-1.5c0.2-0.6,1.5-2.5-0.1-2.5c0-0.6,0-1.1-0.2-1.5c-0.1-0.1-0.4-0.2-0.5-0.5c0-0.2,0.2-0.7,0.1-0.9
			c-0.1-0.9-0.9-1.2-1.2-2c-0.2-0.5-0.1-0.2-0.1-0.7c0-0.3,0.3-0.7,0.2-1.1c-0.2-0.7-1-0.5-1.2-1.3c-0.1-0.6,0.3-1.4,0.1-2.1
			c-0.1-0.2-0.5-0.1-0.6-0.5c-0.1-0.2,0.1-0.7,0-0.9c-0.1-0.5-0.5-1-0.8-1.4c0.3-0.9,0.2-2-0.2-2.7c-0.5-0.9-0.8-0.9-1-0.4
			c-0.1,0.1-0.2,0.3-0.4,0.5c-0.4,0.7-0.5,1.8-0.2,2.6c0,0,0,0.1-0.1,0.1c-0.1,0.2-0.2,0.3-0.2,0.5c-0.2,0.3-0.4,0.6-0.5,0.9
			c-0.1,0.3,0.1,0.7,0,0.9c-0.2,0.4-0.5,0.3-0.6,0.5c-0.1,0.3-0.1,0.6,0,0.9c-0.4,0.6-0.8,1.1-0.8,1.7c0,0.1,0,0.2,0.1,0.4
			c-0.1,0.1-0.2,0.2-0.3,0.4c-0.1,0.4,0.2,0.7,0.2,1.1c0,0.4,0,0.3,0,0.4c-0.2,0.2-0.4,0.4-0.5,0.6c-0.1,0.2-0.2,0.4-0.2,0.6
			c-0.3,0.3-0.5,0.6-0.6,1.1c0,0.3,0.2,0.7,0.1,0.9c-0.1,0.4-0.4,0.4-0.5,0.5c-0.1,0.3-0.2,0.6-0.2,0.9c-0.1,0.2-0.1,0.4-0.1,0.6
			c-0.9,0-0.8,0.8-0.5,1.5c-0.1,0.2-0.2,0.4-0.2,0.6c-0.2,0.7,0.2,1,0.4,1.3c-0.1,0.1-0.2,0.3-0.2,0.6c-0.1,0.6,0.4,0.9,0.3,1.5
			c-1.5,0.1-0.2,2.5-0.8,3.4c-0.2,0.3-0.7,0.4-0.9,0.8c-0.2,0.4-0.4,0.9-0.3,1.4c0.1,1.5,1.1,0.6,1.9,0.6c0.3,0.8-0.1,1.3,0.9,1.6
			c0.4,0.1,1.1,0.3,1.5,0.3c-0.2,0.6,0.2,0.8,0.5,1.1c0.2,0.2,0.4,0,0.6,0.2c0.1,0.1-0.1,0.4,0,0.5c0.2,0.3,0.3,0.5,0.6,0.7
			c0.1,0.1,0.4-0.1,0.5,0s0.2,0.2,0.2,0.3v0.1c-13.1,3.6-30.6,9.7-55.2,22.9V979c0.1-0.2,0.2-0.4,0.3-0.5c0.1-0.1,0.4,0.1,0.5,0
			c0.3-0.2,0.3-0.4,0.6-0.7c0.1-0.1-0.1-0.4,0-0.5c0.2-0.2,0.4,0,0.6-0.2c0.3-0.3,0.7-0.5,0.5-1.1c0.4,0,1.1-0.2,1.5-0.3
			c1-0.3,0.6-0.8,0.9-1.6c0.8,0,1.7,0.9,1.9-0.6c0-0.5-0.1-1-0.3-1.4c-0.3-0.4-0.7-0.5-0.9-0.8c-0.6-0.9,0.6-3.3-0.8-3.4
			c-0.1-0.6,0.4-0.9,0.3-1.5c-0.1-1-0.8-0.5-0.5-1.5c0.2-0.6,1.5-2.5-0.1-2.5c0-0.6,0-1.1-0.2-1.5c-0.1-0.1-0.4-0.2-0.5-0.5
			c0-0.2,0.2-0.7,0.1-0.9c-0.1-0.9-0.9-1.2-1.2-2c-0.2-0.5-0.1-0.2-0.1-0.7c0-0.3,0.3-0.7,0.2-1.1c-0.2-0.7-1-0.5-1.2-1.3
			c-0.1-0.6,0.3-1.4,0.1-2.1c-0.1-0.2-0.5-0.1-0.6-0.5c-0.1-0.2,0.1-0.7,0-0.9c-0.1-0.5-0.5-1-0.8-1.4c0.3-0.9,0.2-2-0.2-2.7
			c-0.5-0.9-0.8-0.9-1-0.4c-0.1,0.1-0.2,0.3-0.4,0.5c-0.4,0.7-0.5,1.8-0.2,2.6c0,0,0,0.1-0.1,0.1c-0.1,0.2-0.2,0.3-0.2,0.5
			c-0.2,0.3-0.4,0.6-0.5,0.9c-0.1,0.3,0.1,0.7,0,0.9c-0.2,0.4-0.5,0.3-0.6,0.5c-0.1,0.3-0.1,0.6,0,0.9c-0.4,0.6-0.8,1.1-0.8,1.7
			c0,0.1,0,0.2,0.1,0.4c-0.1,0.1-0.2,0.2-0.3,0.4c-0.1,0.4,0.2,0.7,0.2,1.1c0,0.4,0,0.3,0,0.4c-0.2,0.2-0.4,0.4-0.5,0.6
			c-0.1,0.2-0.2,0.4-0.2,0.6c-0.3,0.3-0.5,0.6-0.6,1.1c0,0.3,0.2,0.7,0.1,0.9c-0.1,0.4-0.4,0.4-0.5,0.5c-0.1,0.3-0.2,0.6-0.2,0.9
			c-0.1,0.2-0.1,0.4-0.1,0.6c-0.9,0-0.8,0.8-0.5,1.5c-0.1,0.2-0.2,0.4-0.2,0.6c-0.2,0.7,0.2,1,0.4,1.3c-0.1,0.1-0.2,0.3-0.2,0.6
			c-0.1,0.6,0.4,0.9,0.3,1.5c-1.5,0.1-0.2,2.5-0.8,3.4c-0.2,0.3-0.7,0.4-0.9,0.8c-0.2,0.4-0.4,0.9-0.3,1.4c0.1,1.5,1.1,0.6,1.9,0.6
			c0.3,0.8-0.1,1.3,0.9,1.6c0.4,0.1,1.1,0.3,1.5,0.3c-0.2,0.6,0.2,0.8,0.5,1.1c0.2,0.2,0.4,0,0.6,0.2c0.1,0.1-0.1,0.4,0,0.5
			c0.2,0.3,0.3,0.5,0.6,0.7c0.1,0.1,0.4-0.1,0.5,0s0.2,0.2,0.2,0.3v2c-1,0.6-2,1.1-3.1,1.7c-2,1.1-3.9,2.1-5.9,3.2
			c0.3-0.3,0.2-0.7,0.4-1.4c0.8,0,1.7,0.9,1.9-0.6c0-0.5-0.1-1-0.3-1.4c-0.3-0.4-0.7-0.5-0.9-0.8c-0.6-0.9,0.6-3.3-0.8-3.4
			c-0.1-0.6,0.4-0.9,0.3-1.5c-0.1-1-0.8-0.5-0.5-1.5c0.2-0.6,1.5-2.5-0.1-2.5c0-0.6,0-1.1-0.2-1.5c-0.1-0.1-0.4-0.2-0.5-0.5
			c0-0.2,0.2-0.7,0.1-0.9c-0.1-0.9-0.9-1.2-1.2-2c-0.2-0.5-0.1-0.2-0.1-0.7c0-0.3,0.3-0.7,0.2-1.1c-0.2-0.7-1-0.5-1.2-1.3
			c-0.1-0.6,0.3-1.4,0.1-2.1c-0.1-0.2-0.5-0.1-0.6-0.5c-0.1-0.2,0.1-0.7,0-0.9c-0.1-0.5-0.5-1-0.8-1.4c0.3-0.9,0.2-2-0.2-2.7
			c-0.5-0.9-0.8-0.9-1-0.4c-0.1,0.1-0.2,0.3-0.4,0.5c-0.4,0.7-0.5,1.8-0.2,2.6c0,0,0,0.1-0.1,0.1c-0.1,0.2-0.2,0.3-0.2,0.5
			c-0.2,0.3-0.4,0.6-0.5,0.9c-0.1,0.3,0.1,0.7,0,0.9c-0.2,0.4-0.5,0.3-0.6,0.5c-0.1,0.3-0.1,0.6,0,0.9c-0.4,0.6-0.8,1.1-0.8,1.7
			c0,0.1,0,0.2,0.1,0.4c-0.1,0.1-0.2,0.2-0.3,0.4c-0.1,0.4,0.2,0.7,0.2,1.1c0,0.4,0,0.3,0,0.4c-0.2,0.2-0.4,0.4-0.5,0.6
			c-0.1,0.2-0.2,0.4-0.2,0.6c-0.3,0.3-0.5,0.6-0.6,1.1c0,0.3,0.2,0.7,0.1,0.9c-0.1,0.4-0.4,0.4-0.5,0.5c-0.1,0.3-0.2,0.6-0.2,0.9
			c-0.1,0.2-0.1,0.4-0.1,0.6c-0.9,0-0.8,0.8-0.5,1.5c-0.1,0.2-0.2,0.4-0.2,0.6c-0.2,0.7,0.2,1,0.4,1.3c-0.1,0.1-0.2,0.3-0.2,0.6
			c-0.1,0.6,0.4,0.9,0.3,1.5c-1.5,0.1-0.2,2.5-0.8,3.4c-0.2,0.3-0.7,0.4-0.9,0.8c-0.2,0.4-0.4,0.9-0.3,1.4c0.1,1.5,1.1,0.6,1.9,0.6
			c0.3,0.8-0.1,1.3,0.9,1.6c0.4,0.1,1.1,0.3,1.5,0.3c-0.2,0.6,0.2,0.8,0.5,1.1c0.2,0.2,0.4,0,0.6,0.2c0.1,0.1-0.1,0.4,0,0.5
			c0.2,0.3,0.3,0.5,0.6,0.7c0.1,0.1,0.3,0,0.4,0c-12.4,6.5-23.4,11.6-33.2,15.8c-0.2-0.4,0.3-1.5-0.4-1.5c-0.1-0.3,0.2-0.4,0.2-0.7
			c-0.1-0.5-0.4-0.2-0.2-0.7c0.1-0.3,0.7-1.2-0.1-1.2c0-0.3,0-0.5-0.1-0.7c0-0.1-0.2-0.1-0.2-0.3c0-0.1,0.1-0.3,0.1-0.4
			c0-0.4-0.5-0.6-0.6-0.9c-0.1-0.2,0-0.1,0-0.3c0-0.1,0.1-0.3,0.1-0.5c-0.1-0.3-0.5-0.2-0.6-0.6c-0.1-0.3,0.2-0.7,0-1
			c-0.1-0.1-0.2-0.1-0.3-0.3c-0.1-0.1,0-0.3,0-0.4c-0.1-0.2-0.2-0.5-0.4-0.7c0.1-0.4,0.1-0.9-0.1-1.3c-0.2-0.4-0.4-0.4-0.5-0.2
			c-0.1,0.1-0.1,0.1-0.2,0.2c-0.2,0.3-0.2,0.8-0.1,1.2c0,0,0,0,0,0.1c-0.1,0.1-0.1,0.1-0.1,0.2c-0.1,0.1-0.2,0.3-0.2,0.4
			c0,0.1,0,0.3,0,0.4c-0.1,0.2-0.3,0.1-0.3,0.2c-0.1,0.1,0,0.3,0,0.4c-0.2,0.3-0.4,0.5-0.4,0.8c0,0.1,0,0.1,0,0.2
			c-0.1,0-0.1,0.1-0.1,0.2c-0.1,0.2,0.1,0.3,0.1,0.5s0,0.1,0,0.2c-0.1,0.1-0.2,0.2-0.2,0.3s-0.1,0.2-0.1,0.3
			c-0.1,0.1-0.3,0.3-0.3,0.5c0,0.1,0.1,0.3,0.1,0.4c0,0.2-0.2,0.2-0.2,0.3c-0.1,0.1-0.1,0.3-0.1,0.4c0,0.1,0,0.2,0,0.3
			c-0.5,0-0.4,0.4-0.2,0.7c0,0.1-0.1,0.2-0.1,0.3c-0.1,0.3,0.1,0.5,0.2,0.6c0,0.1-0.1,0.1-0.1,0.3c0,0.3,0.2,0.4,0.2,0.7
			c-0.7,0-0.1,1.2-0.4,1.6c-0.1,0.2-0.3,0.2-0.5,0.4c-0.1,0.2-0.2,0.4-0.2,0.6c0.1,0.7,0.5,0.3,0.9,0.3c0.1,0.4,0,0.6,0.4,0.8
			c-17.5,7.1-31.2,10.8-42.6,13c0-0.1,0-0.1,0-0.2c0.1-0.1,0.2,0,0.3-0.1c0.1-0.1,0.4-0.2,0.3-0.5c0.2,0,0.5-0.1,0.7-0.1
			c0.5-0.1,0.3-0.4,0.5-0.8c0.4,0,0.9,0.4,0.9-0.3c0-0.2,0-0.5-0.2-0.6c-0.1-0.2-0.3-0.2-0.5-0.4c-0.3-0.4,0.3-1.5-0.4-1.6
			c-0.1-0.3,0.2-0.4,0.2-0.7c-0.1-0.5-0.4-0.2-0.2-0.7c0.1-0.3,0.7-1.2-0.1-1.2c0-0.3,0-0.5-0.1-0.7c0-0.1-0.2-0.1-0.2-0.3
			c0-0.1,0.1-0.3,0.1-0.4c0-0.4-0.5-0.6-0.6-0.9c-0.1-0.2,0-0.1,0-0.3c0-0.1,0.1-0.3,0.1-0.5c-0.1-0.3-0.5-0.2-0.6-0.6
			c-0.1-0.3,0.2-0.7,0-1c-0.1-0.1-0.2-0.1-0.3-0.3c-0.1-0.1,0-0.3,0-0.4c-0.1-0.2-0.2-0.5-0.4-0.7c0.1-0.4,0.1-0.9-0.1-1.3
			c-0.2-0.4-0.4-0.4-0.5-0.2c-0.1,0.1-0.1,0.1-0.2,0.2c-0.2,0.3-0.2,0.8-0.1,1.2c0,0,0,0,0,0.1c-0.1,0.1-0.1,0.1-0.1,0.2
			c-0.1,0.1-0.2,0.3-0.2,0.4c0,0.1,0,0.3,0,0.4c-0.1,0.2-0.3,0.1-0.3,0.2c-0.1,0.1,0,0.3,0,0.4c-0.2,0.3-0.4,0.5-0.4,0.8
			c0,0.1,0,0.1,0,0.2c-0.1,0-0.1,0.1-0.1,0.2c-0.1,0.2,0.1,0.3,0.1,0.5s0,0.1,0,0.2c-0.1,0.1-0.2,0.2-0.2,0.3s-0.1,0.2-0.1,0.3
			c-0.1,0.1-0.3,0.3-0.3,0.5c0,0.1,0.1,0.3,0.1,0.4c0,0.2-0.2,0.2-0.2,0.3c-0.1,0.1-0.1,0.3-0.1,0.4c0,0.1,0,0.2,0,0.3
			c-0.5,0-0.4,0.4-0.2,0.7c0,0.1-0.1,0.2-0.1,0.3c-0.1,0.3,0.1,0.5,0.2,0.6c0,0.1-0.1,0.1-0.1,0.3c0,0.3,0.2,0.4,0.2,0.7
			c-0.7,0-0.1,1.2-0.4,1.6c-0.1,0.2-0.3,0.2-0.5,0.4c-0.1,0.2-0.2,0.4-0.2,0.6c0.1,0.7,0.5,0.3,0.9,0.3c0.1,0.4-0.1,0.6,0.5,0.8
			c0.2,0.1,0.5,0.1,0.7,0.1c-0.1,0.3,0.1,0.4,0.3,0.5c0.1,0.1,0.2,0,0.3,0.1c0.1,0.1,0,0.2,0,0.3c0.1,0.1,0.1,0.1,0.2,0.2
			c-3.2,0.6-6.3,1.1-9.2,1.5v-1c0.1-0.1,0.1-0.2,0.3-0.3c0.1-0.1,0.3,0,0.4,0c0.2-0.1,0.3-0.2,0.5-0.5c0.1-0.1-0.1-0.3,0-0.4
			c0.1-0.1,0.3,0,0.4-0.1c0.2-0.2,0.6-0.3,0.4-0.8c0.3,0,0.9-0.1,1.2-0.2c0.8-0.2,0.5-0.6,0.7-1.1c0.7,0,1.4,0.7,1.5-0.4
			c0-0.3-0.1-0.7-0.3-1c-0.2-0.3-0.5-0.3-0.7-0.6c-0.5-0.6,0.5-2.3-0.6-2.3c-0.1-0.4,0.3-0.7,0.2-1.1c-0.1-0.7-0.7-0.3-0.4-1
			c0.2-0.4,1.2-1.7-0.1-1.7c0-0.4,0-0.8-0.1-1.1c-0.1-0.1-0.3-0.1-0.4-0.4c0-0.1,0.1-0.5,0.1-0.7c-0.1-0.6-0.7-0.9-0.9-1.4
			c-0.1-0.3-0.1-0.1-0.1-0.5c0-0.2,0.2-0.5,0.1-0.7c-0.2-0.5-0.8-0.3-0.9-0.9c-0.1-0.4,0.3-1,0-1.4c-0.1-0.2-0.4-0.1-0.5-0.4
			c-0.1-0.2,0-0.5,0-0.7c-0.1-0.3-0.4-0.7-0.6-1c0.2-0.6,0.2-1.4-0.1-1.9c-0.4-0.6-0.6-0.6-0.8-0.3c-0.1,0.1-0.2,0.2-0.3,0.4
			c-0.3,0.5-0.4,1.2-0.2,1.8c0,0,0,0.1-0.1,0.1c-0.1,0.1-0.1,0.2-0.2,0.3c-0.2,0.2-0.3,0.4-0.4,0.7c-0.1,0.2,0.1,0.5,0,0.7
			c-0.1,0.3-0.4,0.2-0.5,0.4s-0.1,0.4,0,0.6c-0.3,0.4-0.7,0.8-0.7,1.2c0,0.1,0,0.2,0.1,0.2c-0.1,0.1-0.2,0.2-0.2,0.3
			c-0.1,0.3,0.1,0.5,0.1,0.7c0,0.3,0,0.2,0,0.3c-0.2,0.1-0.3,0.3-0.4,0.4c-0.1,0.1-0.1,0.3-0.2,0.4c-0.2,0.2-0.4,0.4-0.4,0.7
			c0,0.2,0.2,0.5,0.1,0.7c-0.1,0.3-0.3,0.3-0.4,0.4c-0.1,0.2-0.1,0.4-0.1,0.7c-0.1,0.1-0.1,0.3-0.1,0.4c-0.7,0-0.6,0.5-0.4,1
			c-0.1,0.1-0.1,0.3-0.2,0.4c-0.1,0.5,0.1,0.7,0.3,0.9c-0.1,0.1-0.1,0.2-0.2,0.4c-0.1,0.4,0.3,0.6,0.3,1.1c-1.2,0.1-0.2,1.7-0.6,2.3
			c-0.2,0.2-0.5,0.3-0.7,0.6s-0.3,0.6-0.3,1c0.1,1,0.8,0.4,1.5,0.4c0.2,0.6-0.1,0.9,0.7,1.1c0.3,0.1,0.8,0.2,1.2,0.2
			c-0.2,0.4,0.2,0.6,0.4,0.8c0.1,0.1,0.3,0,0.4,0.1s-0.1,0.3,0,0.4c0.2,0.2,0.2,0.3,0.5,0.5c0.1,0.1,0.3-0.1,0.4,0s0.1,0.1,0.2,0.2
			v1.2c-18.3,2.6-31,2.5-48,11.5c-1.4,0.8-2.9,1.4-4.4,2v-0.3c0-0.1,0.1-0.2,0.2-0.2c0.1-0.1,0.2,0,0.2,0c0.1-0.1,0.2-0.2,0.3-0.3
			c0-0.1,0-0.2,0-0.3c0.1-0.1,0.2,0,0.3-0.1c0.1-0.1,0.4-0.2,0.3-0.5c0.2,0,0.5-0.1,0.7-0.1c0.5-0.1,0.3-0.4,0.5-0.8
			c0.4,0,0.9,0.4,0.9-0.3c0-0.2,0-0.5-0.2-0.6c-0.1-0.2-0.3-0.2-0.5-0.4c-0.3-0.4,0.3-1.5-0.4-1.6c-0.1-0.3,0.2-0.4,0.2-0.7
			c-0.1-0.5-0.4-0.2-0.2-0.7c0.1-0.3,0.7-1.2-0.1-1.2c0-0.3,0-0.5-0.1-0.7c0-0.1-0.2-0.1-0.2-0.3c0-0.1,0.1-0.3,0.1-0.4
			c0-0.4-0.5-0.6-0.6-0.9c-0.1-0.2,0-0.1,0-0.3c0-0.1,0.1-0.3,0.1-0.5c-0.1-0.3-0.5-0.2-0.6-0.6c-0.1-0.3,0.2-0.7,0-1
			c-0.1-0.1-0.2-0.1-0.3-0.3c-0.1-0.1,0-0.3,0-0.4c-0.1-0.2-0.2-0.5-0.4-0.7c0.1-0.4,0.1-0.9-0.1-1.3c-0.2-0.4-0.4-0.4-0.5-0.2
			c-0.1,0.1-0.1,0.1-0.2,0.2c-0.2,0.3-0.2,0.8-0.1,1.2c0,0,0,0,0,0.1c-0.1,0.1-0.1,0.1-0.1,0.2c-0.1,0.1-0.2,0.3-0.2,0.4
			c0,0.1,0,0.3,0,0.4c-0.1,0.2-0.3,0.1-0.3,0.2c-0.1,0.1,0,0.3,0,0.4c-0.2,0.3-0.4,0.5-0.4,0.8c0,0.1,0,0.1,0,0.2
			c-0.1,0-0.1,0.1-0.1,0.2c-0.1,0.2,0.1,0.3,0.1,0.5c0,0.2,0,0.1,0,0.2c-0.1,0.1-0.2,0.2-0.2,0.3c0,0.1-0.1,0.2-0.1,0.3
			c-0.1,0.1-0.3,0.3-0.3,0.5c0,0.1,0.1,0.3,0.1,0.4c0,0.2-0.2,0.2-0.2,0.3c-0.1,0.1-0.1,0.3-0.1,0.4s0,0.2,0,0.3
			c-0.5,0-0.4,0.4-0.2,0.7c0,0.1-0.1,0.2-0.1,0.3c-0.1,0.3,0.1,0.5,0.2,0.6c0,0.1-0.1,0.1-0.1,0.3c0,0.3,0.2,0.4,0.2,0.7
			c-0.7,0-0.1,1.2-0.4,1.6c-0.1,0.2-0.3,0.2-0.5,0.4c-0.1,0.2-0.2,0.4-0.2,0.6c0.1,0.7,0.5,0.3,0.9,0.3c0.1,0.4-0.1,0.6,0.5,0.8
			c0.2,0.1,0.5,0.1,0.7,0.1c-0.1,0.3,0.1,0.4,0.3,0.5c0.1,0.1,0.2,0,0.3,0.1c0.1,0.1,0,0.2,0,0.3c0.1,0.1,0.1,0.2,0.3,0.3
			c0.1,0,0.2,0,0.2,0l0.1,0.1v0.6c-22.2,8.9-49.5,2.6-77.4-5.1c0,0,0,0,0.1-0.1s-0.1-0.4,0-0.4c0.1-0.1,0.3,0,0.5-0.1
			c0.2-0.2,0.6-0.4,0.4-0.9c0.3,0,0.9-0.1,1.2-0.2c0.9-0.3,0.5-0.7,0.8-1.3c0.7,0,1.4,0.8,1.6-0.5c0-0.4-0.1-0.8-0.3-1.1
			c-0.2-0.3-0.6-0.4-0.7-0.7c-0.5-0.7,0.5-2.7-0.7-2.8c-0.1-0.5,0.3-0.8,0.3-1.3c-0.1-0.8-0.7-0.4-0.4-1.2c0.2-0.5,1.2-2.1-0.1-2
			c0-0.5,0-0.9-0.1-1.3c-0.1-0.1-0.3-0.2-0.4-0.4c0-0.2,0.1-0.6,0.1-0.8c-0.1-0.7-0.8-1-0.9-1.6c-0.1-0.4-0.1-0.1-0.1-0.6
			c0-0.3,0.2-0.5,0.1-0.9c-0.2-0.6-0.8-0.4-0.9-1.1c-0.1-0.5,0.3-1.2,0-1.7c-0.1-0.2-0.4-0.1-0.5-0.4c-0.1-0.2,0-0.5,0-0.8
			c-0.1-0.4-0.4-0.9-0.7-1.2c0.2-0.7,0.2-1.6-0.1-2.2c-0.4-0.7-0.7-0.7-0.8-0.3c-0.1,0.1-0.2,0.2-0.3,0.4c-0.3,0.6-0.4,1.5-0.2,2.1
			c0,0,0,0.1-0.1,0.1c-0.1,0.1-0.1,0.3-0.2,0.4c-0.2,0.2-0.3,0.5-0.4,0.8c-0.1,0.2,0.1,0.6,0,0.8c-0.1,0.3-0.4,0.2-0.5,0.4
			s-0.1,0.5,0,0.7c-0.3,0.5-0.7,0.9-0.7,1.4c0,0.1,0,0.2,0.1,0.3c-0.1,0.1-0.2,0.2-0.2,0.3c-0.1,0.3,0.1,0.6,0.1,0.9
			c0,0.3,0,0.3,0,0.4c-0.2,0.2-0.3,0.3-0.4,0.5c-0.1,0.2-0.1,0.3-0.2,0.5c-0.2,0.2-0.4,0.5-0.5,0.9c0,0.2,0.2,0.6,0.1,0.8
			c-0.1,0.3-0.3,0.3-0.4,0.4c-0.1,0.2-0.1,0.5-0.1,0.8c-0.1,0.2-0.1,0.3-0.1,0.5c-0.8,0-0.6,0.6-0.4,1.2c-0.1,0.1-0.1,0.3-0.2,0.5
			c-0.1,0.6,0.1,0.8,0.3,1.1c-0.1,0.1-0.2,0.2-0.2,0.5c-0.1,0.5,0.3,0.8,0.3,1.3c-1.2,0.1-0.2,2-0.7,2.8c-0.2,0.3-0.5,0.4-0.7,0.7
			c-0.2,0.3-0.3,0.8-0.3,1.1c0.1,1.2,0.9,0.5,1.5,0.5c0.3,0.7-0.1,1.1,0.8,1.3c0.3,0.1,0.9,0.2,1.2,0.2c-0.1,0.1,0,0.3,0,0.4
			c-12.1-3.4-24.3-6.8-36.2-9.3c0-0.2,0-0.4-0.1-0.5c-0.1-0.2-0.4-0.3-0.5-0.4c-0.3-0.5,0.3-1.7-0.4-1.8c-0.1-0.3,0.2-0.5,0.2-0.8
			c-0.1-0.5-0.4-0.2-0.2-0.8c0.1-0.3,0.8-1.3-0.1-1.3c0-0.3,0-0.6-0.1-0.8c0-0.1-0.2-0.1-0.3-0.3c0-0.1,0.1-0.4,0.1-0.5
			c0-0.4-0.5-0.7-0.6-1s0-0.1,0-0.4c0-0.2,0.1-0.3,0.1-0.6c-0.1-0.4-0.5-0.3-0.6-0.7c-0.1-0.3,0.2-0.8,0-1.1
			c-0.1-0.1-0.2-0.1-0.3-0.3c-0.1-0.1,0-0.3,0-0.5c-0.1-0.3-0.3-0.5-0.4-0.7c0.2-0.4,0.1-1-0.1-1.4c-0.2-0.4-0.4-0.5-0.5-0.2
			c-0.1,0.1-0.1,0.2-0.2,0.3c-0.2,0.4-0.2,0.9-0.1,1.4c0,0,0,0,0,0.1c-0.1,0.1-0.1,0.2-0.1,0.2c-0.1,0.2-0.2,0.3-0.2,0.5
			c0,0.1,0,0.4,0,0.5c-0.1,0.2-0.3,0.2-0.3,0.3c-0.1,0.1,0,0.3,0,0.5c-0.2,0.3-0.4,0.6-0.4,0.9c0,0.1,0,0.1,0,0.2
			c-0.1,0-0.1,0.1-0.1,0.2c-0.1,0.2,0.1,0.4,0.1,0.6c0,0.2,0,0.2,0,0.2c-0.1,0.1-0.2,0.2-0.2,0.3c-0.1,0.1-0.1,0.2-0.1,0.3
			c-0.1,0.2-0.3,0.3-0.3,0.6c0,0.1,0.1,0.4,0.1,0.5c0,0.2-0.2,0.2-0.2,0.3c-0.1,0.1-0.1,0.3-0.1,0.5c0,0.1,0,0.2,0,0.3
			c-0.5,0-0.4,0.4-0.3,0.8c0,0.1-0.1,0.2-0.1,0.3c-0.1,0.4,0.1,0.5,0.2,0.7c-0.1,0.1-0.1,0.1-0.1,0.3c0,0.3,0.2,0.5,0.2,0.8
			c-0.6,0-0.3,0.8-0.4,1.4c-2.3-0.4-4.7-0.8-7-1.1c-15-1.9-30.5-3-45.3-4.3v-1.1c0.1-0.2,0.2-0.4,0.3-0.5s0.4,0.1,0.5,0
			c0.3-0.2,0.3-0.4,0.6-0.7c0.1-0.1-0.1-0.4,0-0.5c0.2-0.2,0.4,0,0.6-0.2c0.3-0.3,0.7-0.5,0.5-1.1c0.4,0,1.1-0.2,1.5-0.3
			c1-0.3,0.6-0.8,0.9-1.6c0.8,0,1.7,0.9,1.9-0.6c0-0.5-0.1-1-0.3-1.4c-0.3-0.4-0.7-0.5-0.9-0.8c-0.6-0.9,0.6-3.3-0.8-3.4
			c-0.1-0.6,0.4-0.9,0.3-1.5c-0.1-1-0.8-0.5-0.5-1.5c0.2-0.6,1.5-2.5-0.1-2.5c0-0.6,0-1.1-0.2-1.5c-0.1-0.1-0.4-0.2-0.5-0.5
			c0-0.2,0.2-0.7,0.1-0.9c-0.1-0.9-0.9-1.2-1.2-2c-0.2-0.5-0.1-0.2-0.1-0.7c0-0.3,0.3-0.7,0.2-1.1c-0.2-0.7-1-0.5-1.2-1.3
			c-0.1-0.6,0.3-1.4,0.1-2.1c-0.1-0.2-0.5-0.1-0.6-0.5c-0.1-0.2,0.1-0.7,0-0.9c-0.1-0.5-0.5-1-0.8-1.4c0.3-0.9,0.2-2-0.2-2.7
			c-0.5-0.9-0.8-0.9-1-0.4c-0.1,0.1-0.2,0.3-0.4,0.5c-0.4,0.7-0.5,1.8-0.2,2.6c0,0,0,0.1-0.1,0.1c-0.1,0.2-0.2,0.3-0.2,0.5
			c-0.2,0.3-0.4,0.6-0.5,0.9c-0.1,0.3,0.1,0.7,0,0.9c-0.2,0.4-0.5,0.3-0.6,0.5c-0.1,0.3-0.1,0.6,0,0.9c-0.4,0.6-0.8,1.1-0.8,1.7
			c0,0.1,0,0.2,0.1,0.4c-0.1,0.1-0.2,0.2-0.3,0.4c-0.1,0.4,0.2,0.7,0.2,1.1c0,0.4,0,0.3,0,0.4c-0.2,0.2-0.4,0.4-0.5,0.6
			c-0.1,0.2-0.2,0.4-0.2,0.6c-0.3,0.3-0.5,0.6-0.6,1.1c0,0.3,0.2,0.7,0.1,0.9c-0.1,0.4-0.4,0.4-0.5,0.5c-0.1,0.3-0.2,0.6-0.2,0.9
			c-0.1,0.2-0.1,0.4-0.1,0.6c-0.9,0-0.8,0.8-0.5,1.5c-0.1,0.2-0.2,0.4-0.2,0.6c-0.2,0.7,0.2,1,0.4,1.3c-0.1,0.1-0.2,0.3-0.2,0.6
			c-0.1,0.6,0.4,0.9,0.3,1.5c-1.5,0.1-0.2,2.5-0.8,3.4c-0.2,0.3-0.7,0.4-0.9,0.8c-0.2,0.4-0.4,0.9-0.3,1.4c0.1,1.5,1.1,0.6,1.9,0.6
			c0.3,0.8-0.1,1.3,0.9,1.6c0.4,0.1,1.1,0.3,1.5,0.3c-0.2,0.6,0.2,0.8,0.5,1.1c0.2,0.2,0.4,0,0.6,0.2c0.1,0.1-0.1,0.4,0,0.5
			c0.2,0.3,0.3,0.5,0.6,0.7c0.1,0.1,0.4-0.1,0.5,0s0.2,0.2,0.2,0.3v1.1c-3-0.3-5.9-0.6-8.8-0.9c0.2-0.3,0.1-0.7,0.3-1.2
			c0.8,0,1.7,0.9,1.9-0.6c0-0.5-0.1-1-0.3-1.4c-0.3-0.4-0.7-0.5-0.9-0.8c-0.6-0.9,0.6-3.3-0.8-3.4c-0.1-0.6,0.4-0.9,0.3-1.5
			c-0.1-1-0.8-0.5-0.5-1.5c0.2-0.6,1.5-2.5-0.1-2.5c0-0.6,0-1.1-0.2-1.5c-0.1-0.1-0.4-0.2-0.5-0.5c0-0.2,0.2-0.7,0.1-0.9
			c-0.1-0.9-0.9-1.2-1.2-2c-0.2-0.5-0.1-0.2-0.1-0.7c0-0.3,0.3-0.7,0.2-1.1c-0.2-0.7-1-0.5-1.2-1.3c-0.1-0.6,0.3-1.4,0.1-2.1
			c-0.1-0.2-0.5-0.1-0.6-0.5c-0.1-0.2,0.1-0.7,0-0.9c-0.1-0.5-0.5-1-0.8-1.4c0.3-0.9,0.2-2-0.2-2.7c-0.5-0.9-0.8-0.9-1-0.4
			c-0.1,0.1-0.2,0.3-0.4,0.5c-0.4,0.7-0.5,1.8-0.2,2.6c0,0,0,0.1-0.1,0.1c-0.1,0.2-0.2,0.3-0.2,0.5c-0.2,0.3-0.4,0.6-0.5,0.9
			c-0.1,0.3,0.1,0.7,0,0.9c-0.2,0.4-0.5,0.3-0.6,0.5c-0.1,0.3-0.1,0.6,0,0.9c-0.4,0.6-0.8,1.1-0.8,1.7c0,0.1,0,0.2,0.1,0.4
			c-0.1,0.1-0.2,0.2-0.3,0.4c-0.1,0.4,0.2,0.7,0.2,1.1c0,0.4,0,0.3,0,0.4c-0.2,0.2-0.4,0.4-0.5,0.6c-0.1,0.2-0.2,0.4-0.2,0.6
			c-0.3,0.3-0.5,0.6-0.6,1.1c0,0.3,0.2,0.7,0.1,0.9c-0.1,0.4-0.4,0.4-0.5,0.5c-0.1,0.3-0.2,0.6-0.2,0.9c-0.1,0.2-0.1,0.4-0.1,0.6
			c-0.9,0-0.8,0.8-0.5,1.5c-0.1,0.2-0.2,0.4-0.2,0.6c-0.2,0.7,0.2,1,0.4,1.3c-0.1,0.1-0.2,0.3-0.2,0.6c-0.1,0.6,0.4,0.9,0.3,1.5
			c-1.5,0.1-0.2,2.5-0.8,3.4c-0.2,0.3-0.7,0.4-0.9,0.8c-0.2,0.4-0.4,0.9-0.3,1.4c0,0.1,0,0.1,0,0.2c-21.9-2.9-40.8-7.8-52.6-18.7
			c-3.5-3.2-7.6-6.3-12-9.3c0.1-0.1,0.1-0.2,0.2-0.3c0.1-0.1,0.5,0.1,0.6,0c0.3-0.2,0.4-0.4,0.7-0.8c0.1-0.2-0.1-0.5,0-0.7
			c0.2-0.2,0.5,0,0.7-0.2c0.4-0.3,0.9-0.6,0.6-1.4c0.5,0,1.4-0.2,1.8-0.4c1.3-0.4,0.8-1,1.2-2.1c1,0.1,2.2,1.2,2.4-0.7
			c0.1-0.6-0.1-1.3-0.4-1.8c-0.3-0.5-0.9-0.6-1.1-1c-0.7-1.1,0.8-4.1-1-4.2c-0.1-0.8,0.5-1.2,0.4-1.9c-0.2-1.2-1.1-0.6-0.6-1.8
			c0.3-0.8,1.9-3.2-0.1-3.1c0-0.7,0-1.4-0.2-1.9c-0.1-0.2-0.5-0.2-0.6-0.7c-0.1-0.3,0.2-0.8,0.2-1.2c-0.1-1.1-1.2-1.6-1.5-2.5
			c-0.2-0.6-0.1-0.2-0.1-0.9c0-0.4,0.4-0.8,0.2-1.3c-0.3-0.9-1.2-0.6-1.5-1.6c-0.2-0.8,0.4-1.8,0.1-2.6c-0.1-0.3-0.6-0.2-0.8-0.7
			c-0.1-0.3,0.1-0.8,0-1.2c-0.1-0.6-0.6-1.3-1-1.8c0.4-1.1,0.3-2.5-0.2-3.4c-0.6-1.1-1-1.1-1.3-0.5c-0.1,0.1-0.3,0.4-0.5,0.7
			c-0.5,0.9-0.6,2.2-0.3,3.3c0,0.1-0.1,0.1-0.1,0.2c-0.1,0.2-0.2,0.4-0.3,0.6c-0.3,0.4-0.5,0.8-0.6,1.2c-0.1,0.3,0.1,0.9,0,1.2
			c-0.2,0.5-0.7,0.4-0.8,0.7c-0.2,0.4-0.1,0.8-0.1,1.1c-0.5,0.7-1.1,1.4-1.1,2.1c0,0.2,0,0.3,0.1,0.4c-0.2,0.1-0.3,0.3-0.3,0.5
			c-0.2,0.5,0.2,0.9,0.2,1.3c0,0.5,0.1,0.4,0,0.6c-0.2,0.3-0.5,0.5-0.6,0.7s-0.2,0.5-0.3,0.7c-0.3,0.4-0.6,0.8-0.7,1.3
			c0,0.3,0.2,0.9,0.2,1.2c-0.1,0.5-0.5,0.5-0.6,0.7c-0.2,0.3-0.2,0.8-0.2,1.2c-0.1,0.2-0.1,0.5-0.1,0.8c-1.2,0-1,1-0.6,1.9
			c-0.1,0.2-0.2,0.5-0.3,0.8c-0.2,0.9,0.2,1.2,0.5,1.6c-0.1,0.1-0.2,0.3-0.3,0.7c-0.1,0.7,0.5,1.2,0.4,1.9c-1.8,0.1-0.3,3.1-1,4.3
			c-0.3,0.4-0.8,0.5-1.1,1s-0.5,1.2-0.4,1.7c0,0.1,0,0.1,0,0.2c-24.3-13.8-56.3-24.6-82.1-33.3c-5.5-1.9-11.2-2.9-17.1-3.3
			c0.2-0.1,0.2-0.3,0.4-0.5c0.1-0.1-0.1-0.3,0-0.4c0.1-0.1,0.3,0,0.5-0.1c0.2-0.2,0.6-0.4,0.4-0.9c0.3,0,0.9-0.1,1.2-0.2
			c0.8-0.3,0.5-0.6,0.8-1.3c0.7,0,1.4,0.8,1.5-0.4c0-0.4-0.1-0.8-0.3-1.1s-0.5-0.4-0.7-0.7c-0.5-0.7,0.5-2.6-0.7-2.7
			c-0.1-0.5,0.3-0.8,0.3-1.2c-0.1-0.8-0.7-0.4-0.4-1.2c0.2-0.5,1.2-2-0.1-2c0-0.5,0-0.9-0.1-1.2c0-0.1-0.3-0.1-0.4-0.4
			c0-0.2,0.1-0.5,0.1-0.8c-0.1-0.7-0.7-1-0.9-1.6c-0.1-0.4-0.1-0.1-0.1-0.6c0-0.3,0.2-0.5,0.1-0.8c-0.2-0.6-0.8-0.4-0.9-1
			c-0.1-0.5,0.3-1.2,0-1.7c-0.1-0.2-0.4-0.1-0.5-0.4c-0.1-0.2,0-0.5,0-0.8c-0.1-0.4-0.4-0.8-0.6-1.1c0.2-0.7,0.2-1.6-0.1-2.2
			c-0.4-0.7-0.7-0.7-0.8-0.3c-0.1,0.1-0.2,0.2-0.3,0.4c-0.3,0.6-0.4,1.4-0.2,2.1c0,0,0,0.1-0.1,0.1c-0.1,0.1-0.1,0.3-0.2,0.4
			c-0.2,0.2-0.3,0.5-0.4,0.8c-0.1,0.2,0.1,0.6,0,0.8c-0.1,0.3-0.4,0.2-0.5,0.4s-0.1,0.5,0,0.7c-0.3,0.4-0.7,0.9-0.7,1.4
			c0,0.1,0,0.2,0,0.3c-0.1,0.1-0.2,0.2-0.2,0.3c-0.1,0.3,0.1,0.6,0.1,0.8c0,0.3,0,0.3,0,0.4c-0.2,0.2-0.3,0.3-0.4,0.5
			c-0.1,0.1-0.1,0.3-0.2,0.5c-0.2,0.2-0.4,0.5-0.4,0.9c0,0.2,0.2,0.6,0.1,0.8c-0.1,0.3-0.3,0.3-0.4,0.4c-0.1,0.2-0.1,0.5-0.1,0.8
			c-0.1,0.2-0.1,0.3-0.1,0.5c-0.7,0-0.6,0.6-0.4,1.2c-0.1,0.1-0.1,0.3-0.2,0.5c-0.1,0.6,0.1,0.8,0.3,1c-0.1,0.1-0.1,0.2-0.2,0.5
			c-0.1,0.5,0.3,0.7,0.3,1.2c-1.2,0.1-0.2,2-0.7,2.7c-0.2,0.3-0.5,0.3-0.7,0.7c-0.2,0.3-0.3,0.7-0.3,1.1c0.1,1.2,0.9,0.5,1.5,0.4
			c0.2,0.7-0.1,1.1,0.7,1.3c0.3,0.1,0.8,0.2,1.2,0.2c-0.2,0.5,0.2,0.7,0.4,0.9c0.1,0.1,0.3,0,0.5,0.1c0.1,0.1-0.1,0.3,0,0.4
			c0.1,0.1,0.1,0.2,0.2,0.3c-15.3-0.5-32.7,2.8-55.4,6.7c-0.1,0-0.1-0.1-0.2-0.1c-0.2-1.4,0.9-2.2,0.7-3.6c-0.3-2.3-2-1.1-1.1-3.4
			c0.6-1.5,3.5-5.9-0.2-5.8c0-1.3,0.1-2.6-0.4-3.6c-0.1-0.3-0.9-0.4-1.1-1.3c-0.1-0.5,0.4-1.6,0.3-2.2c-0.2-2-2.2-2.9-2.7-4.6
			c-0.4-1.2-0.2-0.4-0.2-1.7c0-0.7,0.7-1.6,0.4-2.5c-0.5-1.6-2.3-1.2-2.7-3.1c-0.3-1.5,0.8-3.4,0.1-4.9c-0.2-0.6-1.1-0.3-1.5-1.3
			c-0.2-0.6,0.1-1.6,0-2.2c-0.3-1.1-1.2-2.5-1.9-3.3c0.7-2,0.6-4.6-0.4-6.4c-1.1-2-1.9-2.1-2.3-1c-0.3,0.3-0.5,0.7-0.9,1.2
			c-0.9,1.7-1.1,4.2-0.5,6.2c-0.1,0.1-0.1,0.2-0.2,0.3c-0.2,0.4-0.4,0.7-0.6,1.1c-0.5,0.7-0.9,1.5-1.1,2.2c-0.2,0.7,0.2,1.6,0,2.2
			c-0.4,1-1.2,0.7-1.5,1.3c-0.3,0.7-0.2,1.4-0.1,2.1c-0.9,1.3-2,2.5-2,4c0,0.3,0.1,0.6,0.1,0.8c-0.3,0.2-0.5,0.5-0.7,1
			c-0.3,0.9,0.4,1.7,0.4,2.5c0,0.9,0.1,0.7,0,1.1c-0.5,0.5-0.9,1-1.1,1.4c-0.2,0.4-0.4,0.9-0.5,1.3c-0.6,0.7-1.2,1.5-1.3,2.5
			c-0.1,0.6,0.5,1.8,0.3,2.2c-0.2,0.8-1,1-1.1,1.3c-0.3,0.7-0.4,1.4-0.4,2.2c-0.2,0.5-0.2,0.9-0.2,1.4c-2.2,0.1-1.8,1.9-1.1,3.5
			c-0.2,0.4-0.4,0.9-0.5,1.4c-0.4,1.6,0.4,2.3,1,3c-0.2,0.2-0.4,0.6-0.5,1.3c-0.2,1.4,1,2.2,0.7,3.6c-2,0.1-1.8,2.1-1.6,4.1
			c-18,2.6-38.9,5-63.5,6c-18.6,0.8-34.1-0.7-47.4-3.7c0.2-0.3,0.4-0.6,0.8-1c0.2-0.3-0.2-1,0.1-1.3c0.4-0.4,0.9-0.1,1.3-0.4
			c0.7-0.6,1.7-1.1,1.2-2.5c0.9,0,2.6-0.4,3.4-0.7c2.4-0.7,1.5-1.9,2.2-3.9c1.9,0.1,4.1,2.2,4.4-1.3c0.1-1.1-0.2-2.4-0.8-3.3
			c-0.6-0.9-1.6-1.1-2.1-1.9c-1.4-2.1,1.5-7.7-1.9-7.9c-0.2-1.4,0.9-2.2,0.7-3.6c-0.3-2.3-2-1.1-1.1-3.4c0.6-1.5,3.5-5.9-0.2-5.8
			c0-1.3,0.1-2.6-0.4-3.6c-0.1-0.3-0.9-0.4-1.1-1.3c-0.1-0.5,0.4-1.6,0.3-2.2c-0.2-2-2.2-2.9-2.7-4.6c-0.4-1.2-0.2-0.4-0.2-1.7
			c0-0.7,0.7-1.6,0.4-2.5c-0.5-1.6-2.3-1.2-2.7-3.1c-0.3-1.5,0.8-3.4,0.1-4.9c-0.2-0.6-1.1-0.3-1.5-1.3c-0.2-0.6,0.1-1.6,0-2.2
			c-0.3-1.1-1.2-2.5-1.9-3.3c0.7-2,0.6-4.6-0.4-6.4c-1.1-2-1.9-2.1-2.3-1c-0.3,0.3-0.5,0.7-0.9,1.2c-0.9,1.7-1.1,4.2-0.5,6.2
			c-0.1,0.1-0.1,0.2-0.2,0.3c-0.2,0.4-0.4,0.7-0.6,1.1c-0.5,0.7-0.9,1.5-1.1,2.2s0.2,1.6,0,2.2c-0.4,1-1.2,0.7-1.5,1.3
			c-0.3,0.7-0.2,1.4-0.1,2.1c-0.9,1.3-2,2.5-2,4c0,0.3,0.1,0.6,0.1,0.8c-0.3,0.2-0.5,0.5-0.7,1c-0.3,0.9,0.4,1.7,0.4,2.5
			c0,0.9,0.1,0.7,0,1.1c-0.5,0.5-0.9,1-1.1,1.4s-0.4,0.9-0.5,1.3c-0.6,0.7-1.2,1.5-1.3,2.5c-0.1,0.6,0.5,1.8,0.3,2.2
			c-0.2,0.8-1,1-1.1,1.3c-0.3,0.7-0.4,1.4-0.4,2.2c-0.2,0.5-0.2,0.9-0.2,1.4c-2.2,0.1-1.8,1.9-1.1,3.5c-0.2,0.4-0.4,0.9-0.5,1.4
			c-0.4,1.6,0.4,2.3,1,3c-0.2,0.2-0.4,0.6-0.5,1.3c-0.2,1.4,1,2.2,0.7,3.6c-3.4,0.2-0.5,5.9-1.9,7.9c-0.5,0.8-1.5,1-2.1,1.9
			s-0.9,2.2-0.8,3.3c0.3,3.5,2.5,1.4,4.4,1.3c0.7,2-0.3,3.1,2.2,3.9c0.9,0.3,2.5,0.6,3.4,0.7c-0.5,1.4,0.4,1.9,1.1,2.5
			c-13-3.9-23.7-9.3-33.2-15.1c1.2,0.1,2.4,1.3,2.6-0.8c0.1-0.7-0.1-1.5-0.5-2c-0.4-0.6-1-0.7-1.3-1.2c-0.8-1.3,0.9-4.7-1.2-4.9
			c-0.1-0.9,0.6-1.4,0.5-2.2c-0.2-1.4-1.2-0.7-0.7-2.1c0.3-0.9,2.1-3.6-0.1-3.6c0-0.8,0-1.6-0.2-2.2c-0.1-0.2-0.6-0.3-0.7-0.8
			c-0.1-0.3,0.3-1,0.2-1.4c-0.1-1.2-1.3-1.8-1.7-2.8c-0.2-0.7-0.1-0.3-0.1-1c0-0.5,0.4-1,0.2-1.5c-0.3-1-1.4-0.7-1.7-1.9
			c-0.2-0.9,0.5-2.1,0.1-3c-0.2-0.4-0.7-0.2-0.9-0.8c-0.1-0.4,0.1-1,0-1.4c-0.2-0.7-0.7-1.5-1.2-2c0.4-1.2,0.3-2.8-0.3-3.9
			c-0.7-1.2-1.2-1.3-1.4-0.6c-0.2,0.2-0.3,0.4-0.5,0.8c-0.6,1.1-0.7,2.6-0.3,3.8c0,0.1-0.1,0.1-0.1,0.2c-0.1,0.2-0.3,0.4-0.4,0.7
			c-0.3,0.4-0.6,0.9-0.7,1.4c-0.1,0.4,0.1,1,0,1.4c-0.2,0.6-0.8,0.4-0.9,0.8c-0.2,0.4-0.1,0.9-0.1,1.3c-0.6,0.8-1.2,1.6-1.2,2.5
			c0,0.2,0,0.4,0.1,0.5c-0.2,0.1-0.3,0.3-0.4,0.6c-0.2,0.6,0.2,1.1,0.2,1.5c0,0.6,0.1,0.5,0,0.6c-0.3,0.3-0.6,0.6-0.7,0.8
			c-0.1,0.3-0.2,0.5-0.3,0.8c-0.4,0.4-0.7,0.9-0.8,1.5c0,0.4,0.3,1.1,0.2,1.4c-0.1,0.5-0.6,0.6-0.7,0.8c-0.2,0.4-0.2,0.9-0.2,1.4
			c-0.1,0.3-0.1,0.5-0.1,0.9c-1.3,0-1.1,1.1-0.7,2.2c-0.1,0.3-0.2,0.5-0.3,0.9c-0.2,1,0.2,1.4,0.6,1.9c-0.1,0.2-0.3,0.4-0.3,0.8
			c0,0.1,0,0.1,0,0.1c-15.2-11-28.3-21.7-45.7-26.4c-5.8-1.5-10.6-3.2-14.5-4.9c0.5-0.4,0.7-0.9,1.3-1.6c0.3-0.4-0.2-1.3,0.1-1.6
			c0.5-0.5,1.2-0.1,1.7-0.5c0.9-0.8,2.2-1.4,1.5-3.3c1.2,0,3.3-0.5,4.4-0.9c3.1-0.9,1.9-2.4,2.8-5c2.5,0.1,5.3,2.8,5.7-1.7
			c0.1-1.4-0.3-3-1-4.2c-0.8-1.2-2.1-1.4-2.7-2.5c-1.8-2.7,2-9.9-2.4-10.2c-0.3-1.8,1.2-2.8,1-4.6c-0.4-3-2.6-1.4-1.4-4.4
			c0.7-1.9,4.4-7.5-0.3-7.5c0-1.7,0.1-3.4-0.5-4.6c-0.2-0.4-1.2-0.5-1.4-1.6c-0.1-0.6,0.5-2,0.4-2.8c-0.3-2.6-2.8-3.7-3.5-5.9
			c-0.5-1.5-0.3-0.5-0.2-2.1c0-1,0.9-2,0.5-3.2c-0.6-2.1-2.9-1.5-3.5-3.9c-0.4-1.9,1-4.3,0.2-6.2c-0.3-0.7-1.4-0.4-1.9-1.6
			c-0.3-0.8,0.2-2,0-2.8c-0.3-1.5-1.5-3.1-2.4-4.3c0.9-2.6,0.7-5.9-0.5-8.2c-1.4-2.6-2.5-2.7-3-1.3c-0.3,0.4-0.7,0.9-1.1,1.6
			c-1.2,2.2-1.4,5.4-0.6,7.9c-0.1,0.1-0.1,0.2-0.2,0.4c-0.3,0.5-0.5,0.9-0.7,1.4c-0.6,0.9-1.1,1.9-1.4,2.8c-0.2,0.8,0.3,2.1,0,2.8
			c-0.5,1.2-1.6,0.9-1.9,1.6c-0.4,0.9-0.3,1.8-0.1,2.8c-1.2,1.7-2.5,3.2-2.5,5.1c0,0.4,0.1,0.7,0.2,1.1c-0.4,0.3-0.7,0.7-0.8,1.2
			c-0.4,1.2,0.5,2.2,0.5,3.2c0,1.2,0.2,1,0,1.4c-0.6,0.6-1.2,1.3-1.4,1.8c-0.3,0.6-0.5,1.1-0.7,1.7c-0.8,0.9-1.5,1.9-1.7,3.2
			c-0.1,0.8,0.6,2.2,0.4,2.8c-0.3,1.1-1.3,1.2-1.4,1.6c-0.4,0.8-0.5,1.8-0.5,2.9c-0.2,0.6-0.2,1.1-0.3,1.8c-2.8,0.1-2.3,2.4-1.5,4.5
			c-0.2,0.5-0.5,1.1-0.6,1.8c-0.5,2.1,0.5,2.9,1.3,3.9c-0.1,0.2-0.3,0.4-0.4,0.6c-9.8-8-30.5-18.9-40.9-18.9c-4.1,0-9.7-2.1-16.1-6
			c0.1-0.2,0.2-0.5,0.1-0.9c0.6,0,1.6-0.2,2.1-0.4c1.5-0.5,0.9-1.2,1.3-2.4c1.2,0.1,2.5,1.4,2.7-0.8c0.1-0.7-0.1-1.5-0.5-2
			c-0.4-0.6-1-0.7-1.3-1.2c-0.8-1.3,0.9-4.7-1.2-4.9c-0.1-0.9,0.6-1.4,0.5-2.2c-0.2-1.4-1.2-0.7-0.7-2.1c0.3-0.9,2.1-3.6-0.1-3.6
			c0-0.8,0-1.6-0.2-2.2c-0.1-0.2-0.6-0.3-0.7-0.8c-0.1-0.3,0.3-1,0.2-1.4c-0.1-1.2-1.3-1.8-1.7-2.8c-0.2-0.7-0.1-0.3-0.1-1
			c0-0.5,0.4-1,0.2-1.5c-0.3-1-1.4-0.7-1.7-1.9c-0.2-0.9,0.5-2.1,0.1-3c-0.2-0.4-0.7-0.2-0.9-0.8c-0.1-0.4,0.1-1,0-1.4
			c-0.2-0.7-0.7-1.5-1.2-2c0.4-1.2,0.3-2.8-0.3-3.9c-0.7-1.2-1.2-1.3-1.4-0.6c-0.2,0.2-0.3,0.4-0.5,0.8c-0.6,1.1-0.7,2.6-0.3,3.8
			c0,0.1-0.1,0.1-0.1,0.2c-0.1,0.2-0.3,0.4-0.4,0.7c-0.3,0.4-0.6,0.9-0.7,1.4c-0.1,0.4,0.1,1,0,1.4c-0.2,0.6-0.8,0.4-0.9,0.8
			c-0.2,0.4-0.1,0.9-0.1,1.3c-0.6,0.8-1.2,1.6-1.2,2.5c0,0.2,0,0.4,0.1,0.5c-0.2,0.1-0.3,0.3-0.4,0.6c-0.2,0.6,0.2,1.1,0.2,1.5
			c0,0.6,0.1,0.5,0,0.6c-0.3,0.3-0.6,0.6-0.7,0.8c-0.1,0.3-0.2,0.5-0.3,0.8c-0.4,0.4-0.7,0.9-0.8,1.5c0,0.4,0.3,1.1,0.2,1.4
			c-0.1,0.5-0.6,0.6-0.7,0.8c-0.2,0.4-0.2,0.9-0.2,1.4c-0.1,0.3-0.1,0.5-0.1,0.9c-1.3,0-1.1,1.1-0.7,2.2c-0.1,0.3-0.2,0.5-0.3,0.9
			c-0.2,1,0.2,1.4,0.6,1.9c-0.1,0.2-0.3,0.4-0.3,0.8c-0.1,0.9,0.6,1.4,0.5,2.2c-1.3,0.1-1.1,1.5-1,2.8
			c-12.1-10.5-25.2-25.9-35.8-44.9c-13.9-24.8-31-38.2-50.4-46.2c-1-2.2,1.4-7.2-1.7-7.4c-0.2-1.4,0.9-2.1,0.7-3.5
			c-0.3-2.2-1.9-1.1-1.1-3.3c0.5-1.4,3.3-5.7-0.2-5.7c0-1.3,0.1-2.5-0.4-3.5c-0.1-0.3-0.9-0.4-1.1-1.2c-0.1-0.5,0.4-1.5,0.3-2.1
			c-0.2-2-2.1-2.8-2.6-4.5c-0.4-1.1-0.2-0.4-0.2-1.6c0-0.7,0.6-1.5,0.4-2.4c-0.5-1.6-2.2-1.1-2.6-3c-0.3-1.4,0.7-3.3,0.1-4.7
			c-0.2-0.6-1.1-0.3-1.4-1.2c-0.2-0.6,0.1-1.5,0-2.1c-0.3-1.1-1.1-2.4-1.8-3.2c0.7-2,0.5-4.5-0.4-6.2c-1.1-1.9-1.8-2.1-2.3-0.9
			c-0.3,0.3-0.5,0.7-0.8,1.2c-0.9,1.7-1.1,4-0.5,6c-0.1,0.1-0.1,0.2-0.2,0.3c-0.2,0.4-0.4,0.7-0.6,1c-0.5,0.7-0.9,1.4-1,2.1
			c-0.1,0.6,0.2,1.6,0,2.1c-0.4,0.9-1.2,0.7-1.4,1.2c-0.3,0.6-0.2,1.4-0.1,2.1c-0.9,1.2-1.9,2.4-1.9,3.9c0,0.3,0.1,0.6,0.1,0.8
			c-0.3,0.2-0.5,0.5-0.6,0.9c-0.3,0.9,0.4,1.7,0.4,2.4c0,0.9,0.1,0.7,0,1c-0.4,0.5-0.9,1-1.1,1.3c-0.2,0.4-0.4,0.9-0.5,1.3
			c-0.6,0.7-1.2,1.4-1.3,2.4c-0.1,0.6,0.4,1.7,0.3,2.1c-0.2,0.8-0.9,0.9-1.1,1.2c-0.3,0.6-0.4,1.4-0.4,2.2c-0.2,0.4-0.2,0.8-0.2,1.4
			c-2.1,0.1-1.8,1.8-1.1,3.4c-0.2,0.4-0.4,0.9-0.5,1.4c-0.3,1.6,0.4,2.2,1,2.9c-0.2,0.2-0.4,0.6-0.5,1.3c-0.2,1.2,0.7,2,0.7,3.1
			c-1.7-0.3-3.3-0.7-5-1c-8.2-1.5-18.1-4.7-28.8-9.3c0.2-0.2,0.3-0.5,0.6-0.8c0.2-0.3-0.2-1,0-1.2c0.3-0.4,0.9-0.1,1.3-0.4
			c0.6-0.6,1.6-1.1,1.1-2.5c0.9,0,2.5-0.4,3.3-0.6c2.4-0.7,1.4-1.8,2.1-3.7c1.9,0.1,4,2.1,4.3-1.3c0.1-1.1-0.2-2.3-0.7-3.2
			c-0.6-0.9-1.6-1.1-2.1-1.9c-1.3-2,1.5-7.5-1.8-7.7c-0.2-1.4,0.9-2.1,0.7-3.5c-0.3-2.2-1.9-1.1-1.1-3.3c0.5-1.4,3.3-5.7-0.2-5.7
			c0-1.3,0.1-2.5-0.4-3.5c-0.1-0.3-0.9-0.4-1.1-1.2c-0.1-0.5,0.4-1.5,0.3-2.1c-0.2-2-2.1-2.8-2.6-4.5c-0.4-1.1-0.2-0.4-0.2-1.6
			c0-0.7,0.6-1.5,0.4-2.4c-0.5-1.6-2.2-1.1-2.6-3c-0.3-1.4,0.7-3.3,0.1-4.7c-0.2-0.6-1.1-0.3-1.4-1.2c-0.2-0.6,0.1-1.5,0-2.1
			c-0.3-1.1-1.1-2.4-1.8-3.2c0.7-2,0.5-4.5-0.4-6.2c-1.1-1.9-1.8-2.1-2.3-0.9c-0.3,0.3-0.5,0.7-0.8,1.2c-0.9,1.7-1.1,4-0.5,6
			c-0.1,0.1-0.1,0.2-0.2,0.3c-0.2,0.4-0.4,0.7-0.6,1c-0.5,0.7-0.9,1.4-1,2.1c-0.1,0.6,0.2,1.6,0,2.1c-0.4,0.9-1.2,0.7-1.4,1.2
			c-0.3,0.6-0.2,1.4-0.1,2.1c-0.9,1.2-1.9,2.4-1.9,3.9c0,0.3,0.1,0.6,0.1,0.8c-0.3,0.2-0.5,0.5-0.6,0.9c-0.3,0.9,0.4,1.7,0.4,2.4
			c0,0.9,0.1,0.7,0,1c-0.4,0.5-0.9,1-1.1,1.3c-0.2,0.4-0.4,0.9-0.5,1.3c-0.6,0.7-1.2,1.4-1.3,2.4c-0.1,0.6,0.4,1.7,0.3,2.1
			c-0.2,0.8-0.9,0.9-1.1,1.2c-0.3,0.6-0.4,1.4-0.4,2.2c-0.2,0.4-0.2,0.8-0.2,1.4c-2.1,0.1-1.8,1.8-1.1,3.4c-0.2,0.4-0.4,0.9-0.5,1.4
			c-0.3,1.6,0.4,2.2,1,2.9c-0.2,0.2-0.4,0.6-0.5,1.3c-0.2,1.4,1,2.1,0.7,3.5c-3.3,0.2-0.5,5.7-1.8,7.7c-0.5,0.8-1.5,1-2.1,1.9
			s-0.8,2.1-0.7,3.2c0,0.1,0,0.2,0.1,0.3c-15.4-8.5-31.2-19.2-45-31.5c0.2-0.2,0.4-0.4,0.6-0.7c0.4-0.4-0.4-1.5,0.1-1.9
			c0.7-0.6,1.8-0.1,2.5-0.6c1.3-0.9,3.2-1.6,2.3-3.7c1.8-0.1,4.9-0.6,6.6-1c4.7-1.1,2.8-2.8,4.2-5.6c3.7,0.1,7.9,3.2,8.5-1.9
			c0.2-1.6-0.4-3.4-1.5-4.8c-1.1-1.4-3.1-1.6-4.1-2.8c-2.6-3,2.9-11.3-3.7-11.6c-0.5-2.1,1.8-3.2,1.4-5.3c-0.6-3.4-3.8-1.6-2.1-5
			c1.1-2.1,6.7-8.6-0.5-8.5c-0.1-2,0.1-3.8-0.8-5.3c-0.3-0.5-1.8-0.6-2.2-1.9c-0.2-0.7,0.8-2.3,0.7-3.2c-0.4-2.9-4.1-4.3-5.2-6.7
			c-0.7-1.7-0.4-0.6-0.4-2.4c0-1.1,1.3-2.3,0.7-3.6c-0.9-2.4-4.3-1.7-5.2-4.5c-0.7-2.2,1.5-4.9,0.2-7.1c-0.5-0.8-2.1-0.4-2.9-1.8
			c-0.5-0.9,0.2-2.3,0-3.2c-0.5-1.7-2.3-3.6-3.6-4.9c1.3-3,1.1-6.8-0.8-9.3c-2.1-2.9-3.7-3.1-4.5-1.4c-0.5,0.4-1.1,1-1.6,1.8
			c-1.8,2.5-2.1,6.1-0.9,9c-0.1,0.1-0.2,0.3-0.3,0.4c-0.5,0.5-0.8,1.1-1.1,1.6c-0.9,1-1.7,2.2-2,3.2s0.4,2.4,0,3.2
			c-0.8,1.4-2.4,1-2.9,1.8c-0.5,1-0.4,2-0.2,3.1c-1.8,1.9-3.8,3.7-3.8,5.8c0,0.4,0.1,0.8,0.3,1.2c-0.5,0.3-1,0.7-1.2,1.4
			c-0.5,1.3,0.7,2.5,0.7,3.6c0,1.3,0.2,1.1,0,1.5c-0.9,0.7-1.7,1.4-2.1,2c-0.4,0.6-0.8,1.3-1,1.9c-1.2,1-2.3,2.1-2.5,3.7
			c-0.1,0.9,0.9,2.6,0.7,3.2c-0.4,1.2-1.9,1.4-2.2,1.9c-0.6,0.9-0.7,2.1-0.7,3.3c-0.3,0.7-0.3,1.3-0.4,2.1c-4.2,0.1-3.5,2.7-2.2,5.1
			c-0.4,0.6-0.7,1.3-0.9,2.1c-0.7,2.4,0.7,3.4,1.9,4.5c-0.4,0.4-0.8,0.9-1,1.9c-0.1,0.7,0.1,1.3,0.4,1.9c-12-13.8-26.4-21.8-39-26.4
			V1080h1920V510.6H1920z M119.2,705.1c0.6-0.2,1.1-0.4,1.7-0.4c0.2,0.6,0.3,1.1,0.3,1.5C120.6,705.9,119.9,705.5,119.2,705.1z
			 M787.9,977.6c0.3-0.1,0.7-0.2,1-0.3c0.1,0.4,0.2,0.7,0.2,1C788.7,978.1,788.3,977.8,787.9,977.6z M791.9,980
			c-0.2-0.1-0.3-0.2-0.5-0.3c0.2,0,0.4,0.1,0.5,0.1C791.9,979.8,791.9,979.9,791.9,980z M1210,986.8c0.1-0.1,0.1-0.3,0-0.5
			c0.4,0,1.1-0.2,1.5-0.3c0.2,0,0.2-0.1,0.3-0.2C1211.2,986.1,1210.6,986.5,1210,986.8z M1278.7,957
			C1278.7,957,1278.7,956.9,1278.7,957c0.1-0.1,0.2-0.1,0.3-0.1C1278.9,956.9,1278.8,957,1278.7,957z M1310.7,947.4
			c0-0.2-0.1-0.5,0-0.6c0.2-0.2,0.6,0,0.8-0.3c0.4-0.4,1-0.7,0.7-1.6c0.6,0,1.6-0.2,2.1-0.4c0,0,0.1,0,0.1-0.1
			C1313.3,945.6,1312,946.5,1310.7,947.4z M1315.5,943.6c0.1-0.4,0.1-0.8,0.3-1.4c0.3,0,0.6,0.1,0.9,0.2
			C1316.3,942.8,1315.9,943.2,1315.5,943.6z M1446.2,804.8c1.2-0.9,0.6-2.3,1.3-4.2c0.9,0,1.8,0.4,2.6,0.7c0.1,0.4,0.5,0.7,1.3,0.9
			c0.7,0.2,1.9,0.5,2.6,0.5c-0.4,1.1,0.4,1.5,0.9,1.9c0.3,0.3,0.7,0,1,0.3v0.1C1452.7,804.8,1449.5,804.8,1446.2,804.8z"/>
		
			<linearGradient id="SVGID_5_" gradientUnits="userSpaceOnUse" x1="960" y1="-9.094947e-13" x2="960" y2="230.8954" gradientTransform="matrix(1 0 0 -1 0 1080)">
			<stop  offset="0" style="stop-color:#41305E"/>
			<stop  offset="0.602" style="stop-color:#594181"/>
			<stop  offset="1" style="stop-color:#664A94"/>
		</linearGradient>
		<path class="st4" d="M1626.4,862.5c-231.5,41.2-336.4,146.1-499.7,102c-163.2-44.1-195.3-5.6-373.5,40.6
			C603,1044.1,177.8,951.9,0,952.8V1080h1920V864.9C1858.1,850.6,1758,839.1,1626.4,862.5z"/>
	</g>
	<g>
		<g>
			<defs>
				<rect id="SVGID_6_" width="1920" height="1080"/>
			</defs>
			<clipPath id="SVGID_7_">
				<use xlink:href="#SVGID_6_"  style="overflow:visible;"/>
			</clipPath>
			<g class="st5">
				<path class="st6" d="M1583,205.9c-6.8,12.2-49.5,106.6-50.1,81.2c-0.6-25.4-8.4-146.9-8.4-146.9s-3.4,1.2-10.8,7.2
					c1.6,19.1,8.4,160,6.9,171.5s-11.4,58.7-27.5,90.8s-37.3,97-46.2,86.8c-8.9-10.2-3.3-104.7-2-123.3c1.3-18.5,3.1-48.9,3.4-97.7
					c0.1-17.6,8-107.6,8-107.6l-22.3,23.3c0,0-11,138.5-20.6,190.6s-7.1,108.2-8.5,162.7c-2.9,109.9,66.9,403.9,0.8,576.2l66.1-16.1
					c59.8-128.2-1.9-390.8,0.6-460c1.1-29-0.7-78.4,4.2-103.4c4.9-25,23.2-94.9,42.7-122.8s21.6-104.7,32.3-127.3
					c10.7-22.6,44.8-95.3,44.8-95.3S1590.7,200.9,1583,205.9z"/>
				<path class="st6" d="M1360.6,206.7c0,0,18.5,156.6,54.6,176.3c3.1,36.1-3.2,47.7-3.2,47.7s-39.5-65.7-45-113.2
					c-14.1-4.9-53.2-20.7-55.1-50.7c-17.4-6.1-26.1-22.7-28.2-41.7c3.1-6.2,3.4-7.2,3.4-7.2s1.8,21.4,6.7,28.6
					c4.9,7.2,14.9,11.7,18.6,10.3c0-12,0.3-34.4,0.3-34.4l4.2-3.5c0,0-0.7,37.3-0.3,45.4c0.5,8.1,25.3,38,48,37.3
					c-3.7-19.1-5.8-38.9-8.1-43.6c-2.3-4.8-32.8-22.5-26.1-40.9c2.9,0.4,5.4,0.2,5.4,0.2s0.7,14.2,20,28.1c-1-9.5-2.9-36-2.9-36
					L1360.6,206.7z"/>
				<g>
					<path class="st6" d="M1520.2,503c0,0-7.1,228.3-48.3,231.2c-0.7,36.2,6.4,47.4,6.4,47.4s35-68.2,37.3-116
						c13.8-5.8,51.6-24.2,51.6-54.3c17-7.3,25.3-11.1,24.2-75.3c-1.4-2.2-2.6-2.3-2.6-2.3s-0.6,48.6-5,56.1s-14.1,12.7-17.9,11.5
						c-0.8-12-2.6-34.3-2.6-34.3l-4.4-3.3c0,0,3.2,37.2,3.3,45.2c0.1,8.1-22.7,39.7-45.4,40.4c2.4-19.3,3.2-39.2,5.1-44.1
						c2-4.9,23.1-20.4,19.2-97.1c-2.8,0.6-3.1,2.9-3.1,2.9s2.1,66.3-16.3,81.5c0.4-9.6,2-83.9,2-83.9L1520.2,503z"/>
					<path class="st6" d="M1581.3,447.7c0,0-20.5,117.6-45.9,115.9c-3,18.7-1,8.2-1,8.2s20.7-5.6,30.1-40.3
						c8.9-2,35.8-8.6,37.9-24.2c10.9-2.5,16.3-3.8,20.1-37.1c-0.7-1.2-1.4-1.4-1.4-1.4s-3.8,25.1-7,28.7c-3.2,3.5-9.5,5.5-11.8,4.6
						c0.4-6.3,0.8-18,0.8-18l-2.5-2c0,0-0.6,19.5-1.2,23.6c-1.2,10.1-18.8,20.5-32.7,19.1c2.8-9.8,6.8-21.7,8.3-24.1
						c1.6-2.4,15.6-8.8,18.6-48.7c-1.8,0.1-2.1,1.3-2.1,1.3s-3.4,34.5-15.7,40.9c0.9-4.9,7.1-43.2,7.1-43.2L1581.3,447.7z"/>
				</g>
				<g>
					<path class="st6" d="M1351.6,342c0,0,22.5,227.3,63.7,227.4c3.1,36.1-3.2,47.7-3.2,47.7s-39.5-65.7-45.1-113.2
						c-14.1-4.9-53.2-20.7-55.1-50.7c-17.4-6.1-26-9.3-29.2-73.5c1.2-2.3,2.4-2.5,2.4-2.5s3.8,48.5,8.8,55.7
						c4.9,7.2,14.9,11.7,18.6,10.3c0-12,0.3-34.4,0.3-34.4l4.2-3.5c0,0-0.7,37.3-0.3,45.4c0.5,8,25.3,38,48,37.3
						c-3.7-19.1-5.8-38.9-8.1-43.6c-2.3-4.8-24.4-18.8-25.7-95.6c2.9,0.4,3.3,2.7,3.3,2.7s2.4,66.3,21.7,80.2
						c-1-9.5-7.6-83.6-7.6-83.6L1351.6,342z"/>
					<path class="st6" d="M1282.9,289.8c0,0,28.3,115.9,53.6,112.5c4.2,18.4,1.5,8.1,1.5,8.1s-21.1-4.1-32.8-38.2
						c-9-1.4-36.3-6.2-39.4-21.6c-11-1.7-16.5-2.7-22.6-35.7c0.6-1.3,1.3-1.5,1.3-1.5s5.5,24.8,8.9,28.1c3.5,3.3,9.9,4.8,12.1,3.8
						c-0.8-6.2-2-17.9-2-17.9l2.3-2.2c0,0,2,19.4,2.7,23.5c1.9,10,20.1,19.2,34,16.9c-3.5-9.6-8.2-21.2-9.9-23.5
						c-1.7-2.3-16.1-7.7-21.9-47.4c1.8,0,2.2,1.1,2.2,1.1s5.7,34.2,18.4,39.8c-1.2-4.8-10-42.7-10-42.7L1282.9,289.8z"/>
				</g>
				<g>
					<path class="st6" d="M1618.9,224.9c0,0-54.7,121.7-88.8,111c-8.3,19.4-5,27.6-5,27.6s43.1-26.6,55.2-51.8
						c12.5,0.9,47.2,2.2,53.6-14.2c15.4,1.1,23,1.5,35.8-33.7c-0.6-1.6-1.6-2-1.6-2s-10.9,26.2-16.1,29s-14.2,2.7-17,1
						c1.9-6.7,5.2-19.4,5.2-19.4l-2.9-3.1c0,0-5.3,21.1-7,25.5s-26.9,14.8-45.6,8.5c6.1-9.7,11-20.3,13.6-22.4
						c2.7-2.1,23.1-4.2,36.4-46.9c-2.4-0.5-3.1,0.7-3.1,0.7s-12.5,36.6-30.7,39.4c2.4-5.1,19.6-44.9,19.6-44.9L1618.9,224.9z"/>
					<path class="st6" d="M1680.4,213c0,0-41.8,57.7-62.1,49.2c-6.4,9.2-2.6,4.2-2.6,4.2s18.1,3.1,33.2-12.9
						c7.6,1.5,30.9,5.9,36-1.9c9.4,1.9,14.1,2.8,24.3-14.2c-0.3-0.9-0.9-1.2-0.9-1.2s-8.5,12.5-11.8,13.5c-3.4,1-8.9,0.1-10.6-1
						c1.6-3.3,4.5-9.5,4.5-9.5l-1.6-1.8c0,0-4.7,10.4-6,12.5c-3.2,5.1-19.6,5.6-30.7,0.7c4.4-4.5,10.2-9.8,11.9-10.6
						c1.8-0.8,14.5-0.2,25.6-20.9c-1.5-0.5-2,0.1-2,0.1s-10.1,17.7-21.5,17.5c1.8-2.4,15.1-21.3,15.1-21.3L1680.4,213z"/>
				</g>
				<g>
					<path class="st6" d="M1668.3,104.6c0,0-54.7,121.7-88.8,111c-8.3,19.4-1.5,12.5-1.5,12.5s29.3,1.2,51.7-36.8
						c12.5,0.9,47.2,2.2,53.6-14.2c15.4,1.1,23,1.5,35.8-33.7c-0.6-1.6-1.6-2-1.6-2s-10.9,26.2-16.1,29s-14.2,2.7-17,1
						c1.9-6.7,5.2-19.4,5.2-19.4l-2.9-3.1c0,0-5.3,21.1-7,25.5s-26.9,14.8-45.6,8.5c6.1-9.7,11-20.3,13.6-22.4
						c2.7-2.1,23.1-4.3,36.4-46.9c-2.5-0.5-3.1,0.7-3.1,0.7s-12.5,36.6-30.7,39.4c2.4-5.1,19.6-44.9,19.6-44.9L1668.3,104.6z"/>
					<path class="st6" d="M1729.8,92.7c0,0-41.8,57.7-62.1,49.2c-6.4,9.2-2.6,4.2-2.6,4.2s18.1,3.1,33.2-12.9
						c7.6,1.5,30.9,5.9,36-1.9c9.4,1.9,14.1,2.8,24.3-14.2c-0.3-0.9-0.9-1.2-0.9-1.2s-8.4,12.5-11.8,13.5s-8.9,0.1-10.6-1
						c1.6-3.3,4.5-9.5,4.5-9.5l-1.6-1.8c0,0-4.7,10.4-6,12.5c-3.2,5.1-19.6,5.6-30.7,0.7c4.4-4.5,10.2-9.8,11.9-10.6
						c1.8-0.8,14.6-0.2,25.6-20.9c-1.5-0.5-2,0.1-2,0.1s-10.1,17.7-21.5,17.5c1.8-2.4,15.1-21.3,15.1-21.3L1729.8,92.7z"/>
				</g>
			</g>
		</g>
		<g>
			<defs>
				<rect id="SVGID_8_" width="1920" height="1080"/>
			</defs>
			<clipPath id="SVGID_9_">
				<use xlink:href="#SVGID_8_"  style="overflow:visible;"/>
			</clipPath>
			<g class="st7">
				<path class="st6" d="M649.5-29.6c-7.4,13.4-54.3,117-55,89.2c-0.7-27.9,2.9-140.2,2.9-140.2s-3.7,1.4-11.9,7.9
					c1.8,20.9-2.8,154.5-4.5,167.2s-12.5,64.5-30.2,99.7s-40.9,106.5-50.8,95.3c-9.8-11.2-3.6-115-2.2-135.4
					c1.4-20.3,4.5-53.7,3.7-107.3c-0.2-16.9,2.3-51.8,5.9-91.7L479.6-24c-5.5,82-11.7,162.5-16.4,187.8
					c-10.5,57.2-7.8,118.8-9.3,178.6c-3.2,120.7,45,570.9-27.6,760.1l72.5-17.7C564.5,944,525.2,528.3,528,452.2
					c1.2-31.9-0.8-86.1,4.6-113.5c5.4-27.5,25.5-104.3,46.9-134.9s23.7-115,35.4-139.8c11.8-24.8,49.2-104.7,49.2-104.7
					S658-35.1,649.5-29.6z"/>
				<path class="st6" d="M405.2-28.8c0,0,20.3,172,59.9,193.6c3.4,39.6-3.5,52.4-3.5,52.4S418.2,145,412.1,92.9
					c-15.5-5.4-58.4-22.7-60.5-55.7c-19.1-6.7-28.7-25-30.9-45.8c3.4-6.8,3.7-8,3.7-8s2,23.6,7.4,31.4c5.4,7.9,16.4,12.8,20.5,11.3
					c-0.1-13.2,0.3-37.8,0.3-37.8l4.6-3.9c0,0-0.8,41-0.3,49.8s27.8,41.8,52.8,40.9c-4.1-20.9-6.4-42.7-8.9-47.9
					s-36.1-24.8-28.7-44.9c3.2,0.5,5.9,0.2,5.9,0.2s0.7,15.6,22,30.9c-1.1-10.5-3.2-39.5-3.2-39.5L405.2-28.8z"/>
				<g>
					<path class="st6" d="M572.3,543c0,0-7.8,250.8-53,253.9c-0.8,39.7,7,52.1,7,52.1s38.4-74.9,41-127.4
						c15.1-6.4,56.7-26.6,56.6-59.6c18.6-8,27.8-12.2,26.6-82.7c-1.5-2.4-2.8-2.5-2.8-2.5s-0.6,53.4-5.5,61.7
						c-4.8,8.2-15.5,13.9-19.6,12.7c-0.8-13.2-2.8-37.7-2.8-37.7l-4.8-3.6c0,0,3.5,40.8,3.6,49.7s-24.9,43.6-49.9,44.4
						c2.6-21.2,3.5-43,5.7-48.4s25.3-22.4,21.1-106.6c-3.1,0.7-3.4,3.2-3.4,3.2s2.3,72.8-17.9,89.5c0.4-10.5,2.2-92.1,2.2-92.1
						L572.3,543z"/>
					<path class="st6" d="M605.3,639.4c0,0-22.5,129.1-50.4,127.3c-3.3,20.5-1.1,9-1.1,9s22.8-6.1,33.1-44.3
						c9.7-2.2,39.3-9.4,41.6-26.6c12-2.7,17.9-4.2,22.1-40.8c-0.8-1.4-1.6-1.5-1.6-1.5s-4.1,27.6-7.7,31.5c-3.5,3.9-10.5,6-12.9,5.1
						c0.4-6.9,0.9-19.7,0.9-19.7l-2.7-2.2c0,0-0.7,21.4-1.3,26c-1.3,11.1-20.6,22.5-36,21c3.1-10.7,7.4-23.9,9.1-26.5
						c1.7-2.6,17.1-9.7,20.4-53.5c-2,0.1-2.3,1.4-2.3,1.4s-3.7,37.8-17.3,44.9c1-5.4,7.8-47.5,7.8-47.5L605.3,639.4z"/>
				</g>
				<g>
					<path class="st6" d="M392.2,145.6c0,0,24.7,249.7,70,249.7c3.4,39.6-3.5,52.4-3.5,52.4s-43.4-72.2-49.5-124.3
						c-15.5-5.4-58.4-22.7-60.5-55.7c-19.1-6.7-28.6-10.3-32.1-80.7c1.3-2.5,2.7-2.7,2.7-2.7s4.2,53.3,9.6,61.1
						c5.4,7.9,16.4,12.8,20.5,11.3c0-13.2,0.3-37.8,0.3-37.8l4.6-3.9c0,0-0.8,41-0.3,49.8c0.5,8.8,27.8,41.8,52.8,40.9
						c-4.1-20.9-6.4-42.7-8.9-47.9c-2.5-5.2-26.8-20.7-28.2-104.9c3.2,0.5,3.6,3,3.6,3s2.6,72.8,23.9,88.1
						c-1.1-10.5-8.4-91.8-8.4-91.8L392.2,145.6z"/>
				</g>
				<g>
					<path class="st6" d="M688.8-8.7c0,0-60.1,133.6-97.5,121.9c-9.1,21.3-5.5,30.3-5.5,30.3s47.3-29.2,60.6-56.9
						c13.7,1,51.8,2.4,58.8-15.6c16.9,1.2,25.2,1.6,39.4-37c-0.7-1.7-1.8-2.2-1.8-2.2s-12,28.8-17.7,31.8s-15.6,3-18.7,1.1
						c2.1-7.4,5.8-21.3,5.8-21.3L709,40c0,0-5.9,23.2-7.7,28s-29.6,16.2-50.1,9.3c6.7-10.7,12-22.3,15-24.6
						c2.9-2.3,25.4-4.7,40-51.5c-2.7-0.6-3.4,0.8-3.4,0.8s-13.7,40.2-33.7,43.2C671.8,39.7,690.7-4,690.7-4L688.8-8.7z"/>
					<path class="st6" d="M756.4-21.7c0,0-45.9,63.3-68.2,54.1c-7,10.1-2.8,4.6-2.8,4.6s19.8,3.4,36.4-14.2c8.4,1.7,34,6.5,39.5-2.1
						c10.3,2.1,15.4,3,26.7-15.5c-0.3-1-0.9-1.3-0.9-1.3s-9.3,13.7-13,14.8s-9.8,0.2-11.6-1.1c1.8-3.6,5-10.4,5-10.4l-1.7-2
						c0,0-5.2,11.4-6.6,13.7c-3.5,5.6-21.6,6.1-33.7,0.8c4.8-4.9,11.1-10.7,13.1-11.6s16-0.2,28.1-23c-1.6-0.5-2.2,0.1-2.2,0.1
						S753.3,4.4,740.7,4.3c2-2.6,16.5-23.4,16.5-23.4L756.4-21.7z"/>
				</g>
				<g>
					<path class="st6" d="M743.1-140.9c0,0-60.1,133.6-97.5,121.9C636.5,2.4,644-5.2,644-5.2s32.2,1.3,56.8-40.4
						c13.7,1,51.8,2.4,58.8-15.6c16.9,1.2,25.2,1.6,39.4-37c-0.7-1.7-1.8-2.2-1.8-2.2s-12,28.8-17.7,31.8s-15.6,3-18.7,1
						c2.1-7.4,5.8-21.3,5.8-21.3l-3.2-3.4c0,0-5.9,23.2-7.7,28s-29.6,16.2-50.1,9.3c6.7-10.7,12-22.3,15-24.6
						c2.9-2.3,25.4-4.7,40-51.5c-2.7-0.5-3.4,0.8-3.4,0.8S743.5-90,723.5-86.9c2.6-5.6,21.5-49.3,21.5-49.3L743.1-140.9z"/>
					<path class="st6" d="M810.7-153.9c0,0-45.9,63.3-68.2,54.1c-7,10.1-2.8,4.6-2.8,4.6s19.8,3.4,36.4-14.2
						c8.4,1.7,34,6.5,39.5-2.1c10.3,2.1,15.4,3,26.7-15.5c-0.3-1-1-1.3-1-1.3s-9.3,13.7-13,14.8c-3.7,1.1-9.8,0.2-11.6-1.1
						c1.8-3.6,5-10.4,5-10.4l-1.7-2c0,0-5.2,11.4-6.6,13.7c-3.5,5.6-21.6,6.1-33.7,0.8c4.8-4.9,11.2-10.7,13.1-11.6
						c2-0.9,16-0.2,28.1-23c-1.6-0.5-2.2,0.1-2.2,0.1s-11.1,19.4-23.7,19.3c2-2.6,16.5-23.4,16.5-23.4L810.7-153.9z"/>
				</g>
			</g>
		</g>
		<g>
			<defs>
				<rect id="SVGID_10_" width="1920" height="1080"/>
			</defs>
			<clipPath id="SVGID_11_">
				<use xlink:href="#SVGID_10_"  style="overflow:visible;"/>
			</clipPath>
			<g class="st8">
				<g>
					<g>
						<g>
							<path class="st9" d="M1416.6-64.5c7.8,11.4,58.7,100.3,56.9,75.3c-1.8-25.1-5.5-145.5-5.5-145.5s3.5,0.9,11.3,6.1
								c0.2,18.9,6.6,158.3,9.2,169.5s16.7,56.7,35.6,86.8s45.8,92,53.6,81.1c7.9-10.9-6.6-103.4-9.6-121.6
								c-3-18.1-8.6-47.8-12.5-95.8s-48-255.1-48-255.1l32.4,3c0,0,45.5,303.3,59.9,353.7c14.3,50.4,17.1,105.9,23.6,159.4
								c13.1,108,29.3,726.3,110.5,889.7l-80.9,26.6c-70.9-120.6-77.6-743.6-86.6-811.6c-3.8-28.5-6.6-77.2-13.8-101.4
								c-7.2-24.2-31.8-91.3-53.5-117c-21.8-25.7-31-101.1-43.7-122.3s-53.1-89.7-53.1-89.7S1408.6-68.8,1416.6-64.5z"/>
						</g>
						<path class="st9" d="M1635.7-84.6c0,0-3.6,155.9-37.2,178.7c0.3,35.8,7.6,46.7,7.6,46.7s32.8-68.4,33.8-115.7
							c13.5-6.1,50.4-25.3,49.5-55.1c16.6-7.6,23.6-24.8,23.8-43.7c-3.7-5.8-4-6.8-4-6.8s0.2,21.3-3.9,28.8
							c-4.2,7.5-13.6,12.9-17.4,11.9c-1.1-11.8-3.5-33.9-3.5-33.9l-4.4-3.1c0,0,4.2,36.7,4.5,44.6c0.3,8-21.4,39.8-43.8,41.2
							c1.9-19.1,2.1-38.8,3.9-43.7s30.2-25.3,21.9-42.7c-2.8,0.7-5.3,0.7-5.3,0.7s0.7,14-17.1,29.6c0.1-9.5-0.5-35.7-0.5-35.7
							L1635.7-84.6z"/>
						<g>
							<path class="st9" d="M1506.3,222.2c0,0,28.4,224.2,69.1,223.1c4.1,35.6-1.8,47.3-1.8,47.3s-40.8-63.9-47.6-110.7
								c-14.1-4.5-53.1-19-55.9-48.7c-17.4-5.6-26-8.5-30.9-71.9c1.1-2.3,2.3-2.5,2.3-2.5s5.1,47.8,10.2,54.8
								c5,7,15.1,11.2,18.7,9.7c-0.4-11.9-0.7-34-0.7-34l4-3.6c0,0,0.3,36.9,1,44.9c0.7,7.9,26,36.9,48.5,35.6
								c-4.2-18.7-6.8-38.3-9.2-42.9c-2.4-4.6-24.6-18-28-93.8c2.9,0.4,3.3,2.6,3.3,2.6s4.1,65.5,23.7,78.8
								c-1.3-9.4-9.8-82.4-9.8-82.4L1506.3,222.2z"/>
							<path class="st9" d="M1399.5,9.7c0,0,96.9,204.1,135.3,190.4c15,32.5,13,45.5,13,45.5s-58.7-48-79.8-90.3
								c-14.8,0.2-56.4-1.5-68.3-28.8c-18.2,0.1-27.3,0-51.8-58.7c0.4-2.5,1.4-3.1,1.4-3.1s19.8,43.9,26.8,48.9s17.8,5.9,20.8,3.4
								c-4.1-11.2-11.2-32.1-11.2-32.1l2.7-4.7c0,0,11.8,35,14.9,42.3s36.3,27,57.2,18.7c-9.8-16.5-18.4-34.3-22.1-37.9
								c-3.7-3.7-29-9.4-55.9-80.4c2.8-0.6,3.9,1.5,3.9,1.5s24.4,60.9,47,67.4c-4.1-8.5-35-75.3-35-75.3L1399.5,9.7z"/>
							<path class="st9" d="M1440.9,173.4c0,0,31.1,113.8,56,109.8c4.7,18.1,1.7,8,1.7,8s-20.9-3.5-33.5-36.9
								c-8.9-1.1-36-5.1-39.5-20.3c-11-1.4-16.4-2.2-23.3-34.7c0.6-1.3,1.3-1.5,1.3-1.5s6.1,24.4,9.6,27.6c3.5,3.2,9.9,4.5,12,3.4
								c-1-6.1-2.5-17.6-2.5-17.6l2.2-2.2c0,0,2.5,19.1,3.3,23.2c2.1,9.8,20.4,18.4,34,15.8c-3.7-9.4-8.7-20.8-10.4-23
								c-1.8-2.2-16.2-7.2-22.9-46.3c1.8-0.1,2.2,1.1,2.2,1.1s6.6,33.6,19.3,38.8c-1.4-4.8-11.1-41.9-11.1-41.9L1440.9,173.4z"/>
						</g>
						<g>
							<path class="st9" d="M1479.7-46.1c0,0,65.3,114.7,97.8,101c10,18.3,7.5,26.7,7.5,26.7s-44.9-22.2-59.2-45.9
								c-12.2,2.1-46.3,6.5-54.1-8.9c-15,2.5-22.5,3.6-38.4-29.8c0.5-1.6,1.4-2.1,1.4-2.1s13.2,24.8,18.5,27
								c5.4,2.2,14.2,1.3,16.9-0.6c-2.5-6.4-7-18.6-7-18.6l2.6-3.3c0,0,7.2,20.3,9.3,24.5c2,4.2,27.9,12,45.7,4.1
								c-6.9-9-12.7-19-15.5-20.8s-23.2-2-40.3-42.8c2.4-0.7,3.1,0.4,3.1,0.4s15.7,34.8,33.9,35.9c-2.8-4.8-23.5-42.4-23.5-42.4
								L1479.7-46.1z"/>
							<path class="st9" d="M1321.4-48.4c0,0,46.6,52.9,65.8,42.7c7.2,8.5,2.9,3.9,2.9,3.9s-17.5,4.8-33.9-9.6
								c-7.4,2.2-29.9,8.7-35.6,1.5c-9.1,2.7-13.6,4-25.3-11.7c0.2-0.9,0.7-1.2,0.7-1.2s9.5,11.5,12.9,12.1s8.8-0.7,10.3-2
								c-1.9-3.1-5.3-8.9-5.3-8.9l1.4-1.9c0,0,5.6,9.8,7.1,11.7c3.6,4.7,19.9,3.6,30.3-2.2c-4.7-4-10.9-8.7-12.7-9.3
								c-1.8-0.7-14.3,1.2-27.1-18.2c1.4-0.6,1.9-0.1,1.9-0.1s11.6,16.5,22.9,15.3c-2-2.2-16.8-19.6-16.8-19.6L1321.4-48.4z"/>
						</g>
						<g>
							<path class="st9" d="M1323.2-156.3c0,0,65.3,114.7,97.8,101c10,18.3,2.7,12.2,2.7,12.2s-28.7,3.9-54.4-31.3
								c-12.2,2.1-46.3,6.5-54.1-9c-15,2.5-22.5,3.6-38.4-29.8c0.5-1.6,1.4-2.1,1.4-2.1s13.2,24.8,18.5,27
								c5.4,2.2,14.2,1.3,16.9-0.7c-2.5-6.4-7-18.6-7-18.6l2.6-3.3c0,0,7.2,20.3,9.3,24.5c2,4.2,27.9,12,45.7,4.1
								c-6.9-9-12.7-19-15.5-20.8c-2.8-1.8-23.2-2-40.3-42.8c2.4-0.7,3.1,0.4,3.1,0.4s15.7,34.8,33.9,35.9
								c-2.8-4.8-23.5-42.4-23.5-42.4L1323.2-156.3z"/>
							<path class="st9" d="M1261.5-162.3c0,0,46.6,52.9,65.8,42.7c7.2,8.5,2.9,3.9,2.9,3.9s-17.5,4.8-33.9-9.6
								c-7.4,2.2-29.9,8.7-35.6,1.5c-9.1,2.7-13.6,4-25.3-11.7c0.2-0.9,0.7-1.2,0.7-1.2s9.5,11.5,12.9,12.1s8.8-0.7,10.3-2
								c-1.9-3.1-5.3-8.9-5.3-8.9l1.4-1.9c0,0,5.6,9.8,7.1,11.7c3.6,4.7,19.9,3.6,30.3-2.2c-4.7-4-10.9-8.7-12.7-9.3
								c-1.8-0.6-14.3,1.2-27.1-18.2c1.4-0.6,1.9-0.1,1.9-0.1s11.6,16.5,22.9,15.3c-2-2.2-16.8-19.6-16.8-19.6L1261.5-162.3z"/>
						</g>
					</g>
					<g>
						<path class="st9" d="M1473.2,860.9c0,0,123.5,205.4,170.2,182.5c19.1,32.8,17,47.5,17,47.5s-73-41-99.8-83.4
							c-18.1,3.2-69.1,9.8-84.3-17.9c-22.3,3.9-33.5,5.5-64.8-54.2c0.4-2.9,1.7-3.7,1.7-3.7s25.3,44.3,33.9,48.5
							c8.7,4.1,21.9,2.9,25.5-0.5c-5.2-11.5-14.5-33.2-14.5-33.2l3.2-5.7c0,0,15.3,36.2,19.2,43.6c4,7.5,45,22.4,70.5,8.9
							c-12.4-16.2-23.3-34-28-37.3s-35.7-4.4-70.3-77.3c3.5-1.2,4.9,0.8,4.9,0.8s31.3,62.3,59.2,64.8c-5.3-8.6-44.6-75.9-44.6-75.9
							L1473.2,860.9z"/>
						<path class="st9" d="M1378,848c0,0,82,95.3,109.1,78c12.7,15.3,5.2,6.9,5.2,6.9s-25.6,7.8-53.6-18.3
							c-10.7,3.7-43.7,14.3-53.9,1.3c-13.2,4.5-19.8,6.6-41-21.6c0.1-1.6,0.9-2.2,0.9-2.2s16.9,20.7,22.2,22
							c5.3,1.3,13.3-0.9,15.3-3.1c-3.6-5.5-10-16-10-16l1.7-3.4c0,0,10.6,17.5,13.2,21c6.4,8.5,31,7.2,45.7-2.7
							c-8.1-7.2-18.4-15.8-21.4-17c-2.9-1.2-21.6,1.6-45.2-33.2c2-1,2.9-0.1,2.9-0.1s21.2,29.6,38,27.8c-3.5-4-29.7-35.3-29.7-35.3
							L1378,848z"/>
					</g>
					<g>
						<path class="st9" d="M1676.5,422.7c0,0-36.4,236.9-88.3,233.3c-5.2,37.6,2.3,50.4,2.3,50.4s52.1-65.6,60.7-115
							c18-3.9,67.7-17.1,71.2-48.5c22.1-4.9,33.1-7.6,39.4-74.7c-1.5-2.5-3-2.8-3-2.8s-6.6,50.6-13,57.7c-6.4,7.1-19.2,11-23.8,9.2
							c0.5-12.6,0.9-36.2,0.9-36.2l-5.1-4.1c0,0-0.4,39.3-1.3,47.7c-0.9,8.4-33.2,37.8-61.8,35c5.3-19.7,8.7-40.3,11.7-45.1
							c3.1-4.8,31.4-17.7,35.8-98.2c-3.6,0.2-4.2,2.6-4.2,2.6s-5.4,69.5-30.2,82.4c1.6-9.9,12.6-87.1,12.6-87.1L1676.5,422.7z"/>
						<path class="st9" d="M1759.8,374.7c0,0-39.8,119.3-71.4,113.6c-6,19-2.2,8.4-2.2,8.4s26.7-2.5,42.7-37.3
							c11.3-0.7,45.9-3.3,50.4-19.2c14-0.9,20.9-1.4,29.7-35.5c-0.7-1.4-1.6-1.7-1.6-1.7s-7.8,25.6-12.2,28.8
							c-4.5,3.2-12.6,4.2-15.3,2.9c1.2-6.5,3.2-18.6,3.2-18.6l-2.9-2.5c0,0-3.2,20.2-4.3,24.5c-2.7,10.3-26,18.4-43.3,14.8
							c4.7-9.7,11.1-21.6,13.3-23.8c2.2-2.2,20.6-6.7,29.2-47.9c-2.2-0.2-2.8,1-2.8,1s-8.4,35.4-24.6,40.2
							c1.7-5,14.1-43.9,14.1-43.9L1759.8,374.7z"/>
					</g>
				</g>
			</g>
		</g>
		<g>
			<defs>
				<rect id="SVGID_12_" width="1920" height="1080"/>
			</defs>
			<clipPath id="SVGID_13_">
				<use xlink:href="#SVGID_12_"  style="overflow:visible;"/>
			</clipPath>
			<g class="st10">
				<g>
					<g>
						<g>
							<path class="st11" d="M2040,47.7c-13.3,22.2-98.6,195-98.2,147.7c0.4-47.2,0-136.4,0-136.4s-10.7,6.4-24.9,17.1
								c1.8,35.5,3.6,156.3,0,177.7c-3.6,21.3-24.9,108.4-56.9,167s-56.8,87.1-72.8,67.5c-16-19.5-10.7-133.2-7.1-167.6
								c3.6-34.3,16-54.5,17.8-145.1s18.4-196.4,18.4-196.4l-90.7-22.4c0,0-18.3,307.6-39.4,403.8s5.1,204,1.6,305.3
								c-2.5,71.2-1.5,317.8-0.7,429.9h131.5c-3-37.4-3.5-189.7-11.8-239.8c-8.9-53.3,3.6-145.7,14.2-191.9
								c10.7-46.2,49.1-175,87.1-225.6c37.9-50.6,46.6-193.2,68-234.5c21.3-41.3,89.3-174.4,89.3-174.4S2054.6,38.8,2040,47.7z"/>
						</g>
						<path class="st11" d="M1646.1-115.2c0,0,24.6,292.2,90.3,331c3.6,67.2-8.9,88.5-8.9,88.5s-69.3-124.6-76.6-213.2
							c-26-10-97.5-41.7-99.3-97.7c-32-12.4-47.1-43.9-49.7-79.2c6.2-11.4,6.8-13.3,6.8-13.3s2,40,10.7,53.6s27,22.7,34,20.3
							c0.7-22.3,2.7-64,2.7-64l8-6.3c0,0-3.7,69.3-3.3,84.3c0.3,15,44.6,72.3,86.9,72.3c-5.7-35.6-8.3-72.6-12.3-81.6
							s-59.6-44-46-77.6c5.3,1,10,0.7,10,0.7s0.3,26.4,35.4,53.5c-1.3-17.8-3.1-67.1-3.1-67.1L1646.1-115.2z"/>
					</g>
					<g>
						<path class="st11" d="M1837.3,200c0,0-34.8,197.6-78.2,193.7c-5.1,31.4,1,42.3,1,42.3s44.8-54,52.9-95.2
							c15.1-2.9,56.9-13.1,60.5-39.3c18.6-3.7,27.8-5.7,34.4-61.8c-1.2-2.1-2.4-2.4-2.4-2.4s-6.4,42.2-11.9,48.1
							c-5.5,5.8-16.3,8.8-20.1,7.3c0.6-10.6,1.4-30.3,1.4-30.3l-4.2-3.5c0,0-1.1,32.9-1.9,39.9c-0.9,7-28.5,31-52.4,28.2
							c4.8-16.4,8-33.6,10.7-37.6s26.6-14.2,31.7-81.5c-3.1,0.1-3.6,2.1-3.6,2.1s-5.8,58-26.8,68.4c1.6-8.3,12.1-72.7,12.1-72.7
							L1837.3,200z"/>
						<path class="st11" d="M1907.8,161.3c0,0-35.5,99.1-61.9,93.7c-5.3,15.8-2,7-2,7s22.4-1.6,36.4-30.4
							c9.5-0.3,38.5-1.9,42.5-15.2c11.7-0.5,17.5-0.8,25.5-29.2c-0.6-1.2-1.3-1.4-1.3-1.4s-7,21.3-10.8,23.9
							c-3.8,2.6-10.6,3.3-12.9,2.2c1.1-5.4,3-15.5,3-15.5l-2.3-2.1c0,0-3,16.8-4,20.4c-2.5,8.6-22.1,14.9-36.5,11.6
							c4.1-8.1,9.7-17.9,11.6-19.7s17.3-5.3,25.3-39.5c-1.9-0.2-2.3,0.8-2.3,0.8s-7.7,29.5-21.3,33.2c1.5-4.1,12.6-36.5,12.6-36.5
							L1907.8,161.3z"/>
					</g>
				</g>
			</g>
		</g>
		<g>
			<defs>
				<rect id="SVGID_14_" width="1920" height="1080"/>
			</defs>
			<clipPath id="SVGID_15_">
				<use xlink:href="#SVGID_14_"  style="overflow:visible;"/>
			</clipPath>
			<g class="st12">
				<g>
					<g>
						<path class="st9" d="M515.6,206.3c-8.6,12.5-64.4,110.2-62.5,82.7s14.3-163.7,14.3-163.7s-3.8,1-12.5,6.7
							c-0.2,20.8-15.5,177.9-18.4,190.2c-2.8,12.3-18.4,62.3-39.1,95.4c-20.7,33-50.3,101-58.9,89.1c-8.6-12,7.2-113.6,10.5-133.5
							s9.5-52.5,13.7-105.3c4.3-52.8,52.7-280.2,52.7-280.2L379.8-9c0,0-50,333.1-65.7,388.4c-15.7,55.4-18.8,116.3-25.9,175
							C273.8,673,319,998.1,229.8,1177.6l73.1-10.7c77.9-132.5,38.1-422.8,47.9-497.5c4.1-31.3,7.3-84.8,15.1-111.4
							c7.9-26.6,34.9-100.3,58.8-128.5s34.1-111,48-134.3s58.3-98.5,58.3-98.5S524.5,201.6,515.6,206.3z"/>
					</g>
					<path class="st9" d="M275,184.2c0,0,3.9,171.3,40.9,196.2c-0.3,39.3-8.3,51.3-8.3,51.3s-36-75.1-37.1-127
						c-14.8-6.7-55.4-27.8-54.4-60.5c-18.2-8.4-25.9-27.3-26.2-48c4-6.4,4.4-7.5,4.4-7.5s-0.3,23.4,4.3,31.7s14.9,14.2,19.1,13.1
						c1.2-13,3.8-37.2,3.8-37.2l4.9-3.4c0,0-4.6,40.3-4.9,49c-0.3,8.8,23.5,43.7,48.1,45.2c-2-21-2.3-42.6-4.3-48
						s-33.2-27.8-24-46.9c3.1,0.8,5.8,0.7,5.8,0.7s-0.7,15.4,18.8,32.5c-0.1-10.4,0.6-39.2,0.6-39.2L275,184.2z"/>
					<g>
						<path class="st9" d="M417.2,521.1c0,0-31.2,246.2-75.9,245c-4.5,39.1,2,51.9,2,51.9s44.8-70.2,52.3-121.6
							c15.5-4.9,58.3-20.9,61.4-53.4c19.1-6.1,28.5-9.4,33.9-79c-1.3-2.5-2.6-2.7-2.6-2.7s-5.6,52.5-11.2,60.2
							c-5.5,7.7-16.5,12.2-20.5,10.6c0.4-13,0.7-37.4,0.7-37.4l-4.4-4c0,0-0.3,40.5-1.1,49.3c-0.7,8.7-28.6,40.6-53.3,39.1
							c4.6-20.6,7.4-42,10.1-47.2c2.6-5.1,27-19.7,30.7-103c-3.1,0.4-3.6,2.9-3.6,2.9s-4.6,71.9-26,86.5
							c1.4-10.3,10.8-90.5,10.8-90.5L417.2,521.1z"/>
						<path class="st9" d="M488.9,467.6c0,0-34.2,125-61.5,120.6c-5.1,19.9-1.9,8.8-1.9,8.8s23-3.9,36.7-40.5
							c9.8-1.2,39.6-5.6,43.4-22.3c12-1.5,18-2.4,25.6-38.1c-0.6-1.4-1.4-1.6-1.4-1.6s-6.7,26.8-10.5,30.3
							c-3.9,3.5-10.9,4.9-13.2,3.8c1.1-6.7,2.7-19.3,2.7-19.3l-2.5-2.4c0,0-2.7,21-3.7,25.5c-2.4,10.8-22.4,20.2-37.4,17.3
							c4.1-10.3,9.5-22.8,11.5-25.2c1.9-2.4,17.7-7.9,25.1-50.8c-1.9-0.1-2.4,1.2-2.4,1.2s-7.2,36.9-21.2,42.6
							c1.5-5.2,12.1-46,12.1-46L488.9,467.6z"/>
					</g>
					<g>
						<path class="st9" d="M257.6,795.3c0,0,1,248.2,45.6,252.5c-0.3,39.3-8.3,51.3-8.3,51.3s-36-75.1-37.1-127
							c-14.8-6.8-55.4-27.8-54.4-60.5c-18.2-8.4-27.2-12.8-24.1-82.5c1.6-2.3,2.9-2.4,2.9-2.4s-0.8,52.8,3.7,61.1
							c4.6,8.3,14.9,14.2,19.1,13.1c1.2-13,3.8-37.2,3.8-37.2l4.9-3.4c0,0-4.6,40.3-4.9,49c-0.3,8.8,23.5,43.7,48.1,45.2
							c-2-21-2.3-42.6-4.3-48s-24.4-22.9-18-106c3.1,0.8,3.2,3.3,3.2,3.3s-4.2,72,15.3,89c-0.1-10.4,0.3-91.2,0.3-91.2L257.6,795.3z
							"/>
					</g>
					<g>
						<path class="st9" d="M552.4,230.5c0,0-71.7,125.9-107.4,111c-11,20.1-8.2,29.3-8.2,29.3s49.3-24.4,65-50.4
							c13.4,2.3,50.8,7.2,59.4-9.8c16.5,2.7,24.7,4,42.2-32.7c-0.5-1.8-1.5-2.3-1.5-2.3s-14.5,27.2-20.4,29.7
							c-5.9,2.4-15.6,1.5-18.5-0.7c2.8-7.1,7.7-20.4,7.7-20.4l-2.8-3.6c0,0-7.9,22.3-10.2,26.9c-2.2,4.6-30.7,13.2-50.2,4.5
							c7.6-9.9,13.9-20.8,17-22.8s25.5-2.2,44.2-47c-2.6-0.8-3.4,0.4-3.4,0.4S548,280.9,528,282c3.1-5.2,25.8-46.5,25.8-46.5
							L552.4,230.5z"/>
						<path class="st9" d="M620.2,224c0,0-51.2,58.1-72.2,46.9c-7.9,9.3-3.2,4.2-3.2,4.2s19.2,5.2,37.2-10.6
							c8.1,2.5,32.8,9.6,39.1,1.6c10,3,14.9,4.4,27.8-12.8c-0.2-1-0.8-1.3-0.8-1.3s-10.4,12.6-14.2,13.3c-3.8,0.7-9.7-0.8-11.3-2.2
							c2.1-3.4,5.9-9.8,5.9-9.8l-1.5-2.1c0,0-6.1,10.7-7.8,12.9c-3.9,5.2-21.8,4-33.3-2.4c5.2-4.4,12-9.5,14-10.2s15.7,1.3,29.8-20
							c-1.6-0.7-2.1-0.1-2.1-0.1s-12.8,18.1-25.1,16.7c2.2-2.4,18.5-21.5,18.5-21.5L620.2,224z"/>
					</g>
				</g>
			</g>
		</g>
		<g>
			<defs>
				<rect id="SVGID_16_" width="1920" height="1080"/>
			</defs>
			<clipPath id="SVGID_17_">
				<use xlink:href="#SVGID_16_"  style="overflow:visible;"/>
			</clipPath>
			<g class="st13">
				<g>
					<g>
						<path class="st11" d="M350.5-43.4c-11.1,18.5-81.9,162-81.5,122.7c0.4-39.2,0-113.3,0-113.3s-8.9,5.3-20.7,14.2
							c1.5,29.5,3,129.9,0,147.6s-20.7,90-47.2,138.7c-26.6,48.7-47.2,72.3-60.5,56.1c-13.3-16.2-8.9-110.7-5.9-139.2
							s13.3-45.3,14.8-120.5c1.5-75.3,20.7-106.3,20.7-106.3l-82.6-15c0,0-13.3,195-30.8,275c-17.5,79.9,6.4,169.6,1.3,253.6
							c-18.8,313.1,26.3,598.8,27,692h109.3c-2.5-31.1-44.9-427.3-37.4-534.1c3.2-44.8,3-121,11.8-159.4
							c8.9-38.4,40.8-145.4,72.3-187.4s38.7-160.5,56.5-194.8c17.7-34.3,74.2-144.9,74.2-144.9S362.7-50.8,350.5-43.4z"/>
					</g>
					<path class="st11" d="M-8.2-58.4c0,0,20.4,242.7,75,275c3,55.8-7.4,73.5-7.4,73.5S1.9,186.7-4.2,113.1
						c-21.6-8.3-81-34.7-82.5-81.2c-26.6-10.3-39.1-36.4-41.3-65.8c5.2-9.5,5.6-11,5.6-11s1.7,33.2,8.9,44.6
						c7.2,11.3,22.4,18.8,28.2,16.9c0.6-18.5,2.2-53.1,2.2-53.1l6.6-5.3c0,0-3,57.6-2.8,70c0.3,12.5,37.1,60,72.2,60
						c-4.7-29.6-6.9-60.3-10.2-67.8s-49.5-36.5-38.2-64.5c4.4,0.8,8.3,0.6,8.3,0.6s0.3,22,29.4,44.5c-1.1-14.8-2.6-55.7-2.6-55.7
						L-8.2-58.4z"/>
					<g>
						<path class="st11" d="M238.1,412c0,0-22.9,352.2-86.6,354.4c-3,55.8,7.4,73.5,7.4,73.5s57.6-103.5,63.6-177.1
							c21.6-8.3,81-34.7,82.5-81.2c26.6-10.3,39.7-15.8,41.3-115c-2-3.4-3.9-3.7-3.9-3.7s-3.4,75.1-10.6,86.4
							c-7.2,11.3-22.4,18.8-28.2,16.9c-0.6-18.5-2.2-53.1-2.2-53.1l-6.6-5.3c0,0,3,57.6,2.8,70c-0.3,12.5-37.1,60-72.2,60
							c4.7-29.6,6.9-60.3,10.2-67.8s36.7-30.3,34.7-148.9c-4.4,0.8-4.9,4.4-4.9,4.4s-0.2,102.5-29.4,125
							c1.1-14.8,7.4-129.4,7.4-129.4L238.1,412z"/>
						<path class="st11" d="M335.3,329.9c0,0-37.7,180.4-76.8,176.5c-5.6,28.7-1.9,12.6-1.9,12.6s32.3-7.5,48.6-60.7
							c13.8-2.6,55.7-11.4,59.7-35.4c17-3.2,25.3-5,33-56.2c-1-1.9-2.1-2.2-2.1-2.2s-7.1,38.6-12.3,43.9c-5.2,5.3-15,8-18.4,6.5
							c0.9-9.6,2.2-27.7,2.2-27.7l-3.7-3.2c0,0-2,30-3,36.4c-2.4,15.5-30,30.6-51.5,27.8c4.9-14.9,11.6-33.2,14.1-36.8
							c2.5-3.6,24.5-12.8,31.3-74.3c-2.8,0.1-3.3,1.9-3.3,1.9s-7,53-26.4,62.4c1.7-7.6,13.3-66.4,13.3-66.4L335.3,329.9z"/>
					</g>
					<g>
						<path class="st11" d="M-19.5,190.6c0,0,22.9,352.2,86.6,354.4c3,55.8-7.4,73.5-7.4,73.5S2.1,515-4,441.4
							c-21.6-8.3-81-34.7-82.5-81.2c-26.6-10.3-39.7-15.8-41.3-115c2-3.4,3.9-3.7,3.9-3.7s3.4,75.1,10.6,86.4
							c7.2,11.3,22.4,18.8,28.2,16.9c0.6-18.5,2.2-53.1,2.2-53.1l6.6-5.3c0,0-3,57.6-2.8,70c0.3,12.5,37.1,60,72.2,60
							c-4.7-29.6-6.9-60.3-10.2-67.8s-36.7-30.3-34.7-148.9c4.4,0.8,4.9,4.4,4.9,4.4s0.2,102.5,29.4,125
							c-1.1-14.8-7.4-129.4-7.4-129.4L-19.5,190.6z"/>
						<path class="st11" d="M-116.7,108.4c0,0,37.7,180.4,76.8,176.5c5.6,28.7,1.9,12.6,1.9,12.6s-32.3-7.5-48.6-60.7
							c-13.8-2.6-55.7-11.4-59.7-35.4c-17-3.2-25.3-5-33-56.2c1-1.9,2.1-2.2,2.1-2.2s7.1,38.6,12.3,43.9c5.2,5.3,15,8,18.4,6.5
							c-0.9-9.6-2.2-27.7-2.2-27.7l3.7-3.2c0,0,2,30,3,36.4c2.4,15.5,30,30.6,51.5,27.8c-4.9-14.9-11.6-33.2-14.1-36.8
							s-24.5-12.8-31.3-74.3c2.8,0.1,3.3,1.9,3.3,1.9s7,53,26.4,62.4c-1.7-7.6-13.3-66.4-13.3-66.4L-116.7,108.4z"/>
					</g>
					<g>
						<path class="st11" d="M191.5-8.8c0,0-14.1,205.6-69.2,208.4c-1.7,32.6,7.6,42.6,7.6,42.6s48.1-61.6,52.2-104.6
							c18.5-5.4,69.5-22.1,70-49.2c22.8-6.7,34.1-10.1,33.9-68c-1.8-2-3.4-2-3.4-2s-1.7,43.8-7.8,50.6c-6,6.8-19.1,11.5-24.2,10.5
							C250,68.7,248,48.6,248,48.6l-5.8-2.9c0,0,3.6,33.4,3.5,40.7c0,7.3-31.1,35.9-61.5,36.7c3.6-17.4,5-35.3,7.8-39.7
							c2.8-4.4,31.2-18.5,27.6-87.5c-3.8,0.6-4.2,2.7-4.2,2.7S216.8,58.2,192,72c0.7-8.6,4.3-75.5,4.3-75.5L191.5-8.8z"/>
						<path class="st11" d="M500.5-27.3c0,0-67.6,86.8-98.5,72.8c-10.4,13.9-4.2,6.3-4.2,6.3s27.7,5.8,51.9-18.2
							c11.7,2.8,47.4,10.8,55.6-1.1c14.4,3.4,21.6,5,38.3-20.6c-0.4-1.4-1.3-1.8-1.3-1.8s-13.7,18.8-19,20.2
							c-5.3,1.3-13.8-0.2-16.3-2.1c2.7-5,7.5-14.4,7.5-14.4l-2.3-2.9c0,0-7.8,15.8-9.9,18.9c-5.1,7.7-30.6,7.5-47.5-0.5
							c7-6.7,16.2-14.6,19-15.8s22.5,0.5,40.6-31c-2.3-0.8-3,0-3,0s-16.6,26.8-34.2,26c2.9-3.6,24.4-32.1,24.4-32.1L500.5-27.3z"/>
					</g>
				</g>
			</g>
		</g>
	</g>
</g>
</svg>
