<?xml version="1.0" encoding="utf-8"?>
<!-- Generator: Adobe Illustrator 25.2.1, SVG Export Plug-In . SVG Version: 6.00 Build 0)  -->
<svg version="1.1" id="Layer_1" xmlns="http://www.w3.org/2000/svg" xmlns:xlink="http://www.w3.org/1999/xlink" x="0px" y="0px"
	 viewBox="0 0 1920 1080" style="enable-background:new 0 0 1920 1080;" xml:space="preserve">
<style type="text/css">
	.st0{fill:url(#SVGID_1_);}
	.st1{opacity:0.15;clip-path:url(#SVGID_3_);fill:#F26F31;}
	.st2{opacity:0.15;clip-path:url(#SVGID_5_);fill:#F26F31;}
	.st3{fill:url(#SVGID_6_);}
	.st4{fill:url(#SVGID_7_);}
	.st5{opacity:0.8;fill:url(#SVGID_8_);}
	.st6{fill:url(#SVGID_9_);}
	.st7{opacity:0.8;fill:url(#SVGID_10_);}
	.st8{fill:url(#SVGID_11_);}
	.st9{opacity:0.6;fill:url(#SVGID_12_);}
	.st10{opacity:0.6;fill:url(#SVGID_13_);}
	.st11{opacity:0.13;fill:url(#SVGID_14_);}
	.st12{opacity:0.7;}
	.st13{fill:#FFFFFF;}
</style>
<g>
	
		<radialGradient id="SVGID_1_" cx="1031.7474" cy="431.2587" r="484.1281" fx="815.7886" fy="428.7279" gradientUnits="userSpaceOnUse">
		<stop  offset="0" style="stop-color:#C40F47"/>
		<stop  offset="0.1467" style="stop-color:#C91A43"/>
		<stop  offset="0.4038" style="stop-color:#D63737"/>
		<stop  offset="0.7383" style="stop-color:#EC6625"/>
		<stop  offset="0.9986" style="stop-color:#FF8F15"/>
	</radialGradient>
	<rect x="1.5" y="0.4" class="st0" width="1919.5" height="1079.7"/>
	<g>
		<g>
			<defs>
				<rect id="SVGID_2_" x="459.9" y="13.1" width="944.8" height="757"/>
			</defs>
			<clipPath id="SVGID_3_">
				<use xlink:href="#SVGID_2_"  style="overflow:visible;"/>
			</clipPath>
			
				<ellipse transform="matrix(0.7071 -0.7071 0.7071 0.7071 -55.9686 794.6429)" class="st1" cx="931.2" cy="464.9" rx="426.8" ry="426.8"/>
		</g>
		<g>
			<defs>
				<rect id="SVGID_4_" x="459.9" y="13.1" width="944.8" height="757"/>
			</defs>
			<clipPath id="SVGID_5_">
				<use xlink:href="#SVGID_4_"  style="overflow:visible;"/>
			</clipPath>
			<circle class="st2" cx="931.2" cy="464.9" r="325.8"/>
		</g>
		<linearGradient id="SVGID_6_" gradientUnits="userSpaceOnUse" x1="931.2346" y1="689.6795" x2="931.2346" y2="240.0838">
			<stop  offset="0" style="stop-color:#C40F47"/>
			<stop  offset="0.2778" style="stop-color:#CC1F43"/>
			<stop  offset="0.8205" style="stop-color:#E04A38"/>
			<stop  offset="1" style="stop-color:#E75934"/>
		</linearGradient>
		<circle class="st3" cx="931.2" cy="464.9" r="224.8"/>
	</g>
	<linearGradient id="SVGID_7_" gradientUnits="userSpaceOnUse" x1="961.2289" y1="1080.0991" x2="961.2289" y2="774.8815">
		<stop  offset="1.322750e-03" style="stop-color:#A6065C"/>
		<stop  offset="8.552027e-02" style="stop-color:#AC0958"/>
		<stop  offset="0.6905" style="stop-color:#D7203E"/>
		<stop  offset="1" style="stop-color:#E72934"/>
	</linearGradient>
	<polygon class="st4" points="1.5,774.9 1921,774.9 1921,1080.1 1.5,1080.1 	"/>
	<g>
		<linearGradient id="SVGID_8_" gradientUnits="userSpaceOnUse" x1="206.0824" y1="791.1736" x2="206.0824" y2="518.453">
			<stop  offset="0" style="stop-color:#88065C"/>
			<stop  offset="1" style="stop-color:#6D1F5F"/>
		</linearGradient>
		<path class="st5" d="M1.5,592.1c8.4-29,25.3-52.3,52.9-64.7c27.5-12.4,60.5-12,87.8,0.9c23.8,11.3,43.2,31.5,68.4,38.9
			c25,7.3,52.4,1.1,77.5,8c31.2,8.7,53.1,35.8,72.9,61.4c17.5,22.6,35.2,45.8,44.3,72.9c9.1,27.1,7.9,59.3-10.1,81.5H1.5L1.5,592.1z
			"/>
		<linearGradient id="SVGID_9_" gradientUnits="userSpaceOnUse" x1="272.2094" y1="867.1596" x2="272.2094" y2="576.0928">
			<stop  offset="0" style="stop-color:#6D1F5F"/>
			<stop  offset="0.9986" style="stop-color:#E72934"/>
		</linearGradient>
		<path class="st6" d="M1.5,867.2H543c-1.2-48.9-13.8-61.5-28.1-79.6c-41-51.8-88.6-70.6-154.1-79.4c-48.1-6.4-102.3-0.9-139.6-32.1
			c-21.9-18.3-33.4-46.2-53.2-66.7c-26.9-27.8-69.2-39.7-106.6-29.9c-23.9,6.3-45.2,21.2-60,41L1.5,867.2z"/>
	</g>
	<g>
		<linearGradient id="SVGID_10_" gradientUnits="userSpaceOnUse" x1="1669.7473" y1="703.7375" x2="1669.7473" y2="413.0396">
			<stop  offset="0" style="stop-color:#88065C"/>
			<stop  offset="1" style="stop-color:#6D1F5F"/>
		</linearGradient>
		<path class="st7" d="M1921,458.1c-5.8-11.1-16.5-25.5-26.9-32.5c-20.8-14-48.9-16.5-71.9-6.6c-30,12.9-50.6,44.6-82.7,50.8
			c-41,7.9-78.5-29.6-120.2-28.8c-36.3,0.7-65.2,29.8-87.6,58.4c-48.2,61.5-86.6,130.8-113.1,204.3H1921V458.1z"/>
		<linearGradient id="SVGID_11_" gradientUnits="userSpaceOnUse" x1="1591.3567" y1="811.4507" x2="1591.3567" y2="507.6104">
			<stop  offset="0" style="stop-color:#6D1F5F"/>
			<stop  offset="0.9986" style="stop-color:#E72934"/>
		</linearGradient>
		<path class="st8" d="M1921,811.5h-658.2c-6.5-38.3,17.6-76.6,49.5-98.8c31.9-22.3,70.6-32,108-42.6s75.8-23,104.6-49.2
			c23.9-21.7,41.1-52.6,71-64.8c39.3-16.1,83.9,6.3,126.1,1.5c28.1-3.2,53.3-18.3,78.6-30.9s53.8-23.4,81.5-17.1
			c16.6,3.8,31.7,16.1,38.9,31.1L1921,811.5z"/>
	</g>
	<g>
		
			<linearGradient id="SVGID_12_" gradientUnits="userSpaceOnUse" x1="272.2094" y1="950.8047" x2="272.2094" y2="760.3949" gradientTransform="matrix(1 0 0 -1 0 1817.9644)">
			<stop  offset="0" style="stop-color:#6D1F5F"/>
			<stop  offset="1" style="stop-color:#A6065C"/>
		</linearGradient>
		<path class="st9" d="M1.5,867.2H543c-1.2,32-13.8,40.2-28.1,52.1c-41,33.9-88.6,46.2-154.1,51.9c-48.1,4.2-102.3,0.6-139.6,21
			c-21.9,12-33.4,30.2-53.2,43.7c-26.9,18.2-69.2,26-106.6,19.6c-23.9-4.1-45.2-13.9-60-26.8L1.5,867.2z"/>
		
			<linearGradient id="SVGID_13_" gradientUnits="userSpaceOnUse" x1="1591.3567" y1="1066.5491" x2="1591.3567" y2="852.0922" gradientTransform="matrix(1 0 0 -1 0 1878)">
			<stop  offset="0" style="stop-color:#6D1F5F"/>
			<stop  offset="1" style="stop-color:#A6065C"/>
		</linearGradient>
		<path class="st10" d="M1921,811.5h-658.2c-6.5,27.1,17.6,54.1,49.5,69.8c31.9,15.7,70.6,22.6,108,30.1s75.8,16.3,104.6,34.7
			c23.9,15.3,41.1,37.1,71,45.8c39.3,11.4,83.9-4.4,126.1-1.1c28.1,2.3,53.3,12.9,78.6,21.8c25.3,8.9,53.8,16.5,81.5,12.1
			c16.6-2.7,31.7-11.4,38.9-21.9L1921,811.5z"/>
		<linearGradient id="SVGID_14_" gradientUnits="userSpaceOnUse" x1="961.2346" y1="940.6531" x2="961.2346" y2="774.8815">
			<stop  offset="0" style="stop-color:#6D1F5F"/>
			<stop  offset="1" style="stop-color:#A6065C"/>
		</linearGradient>
		<path class="st11" d="M736.4,774.9c0,91.6,100.6,165.8,224.8,165.8c124.2,0,224.8-74.2,224.8-165.8H736.4z"/>
	</g>
	<g class="st12">
		<polygon class="st13" points="316.9,918.4 287.5,918.3 228.6,918.2 169.7,918.3 140.3,918.4 110.8,918.7 140.3,918.9 169.7,919.1 
			228.6,919.2 287.5,919.1 316.9,918.9 346.3,918.7 		"/>
		<polygon class="st13" points="962.6,1027.6 903.8,1027.4 844.9,1027.6 815.4,1027.7 786,1027.9 815.4,1028.2 844.9,1028.3 
			903.8,1028.4 962.6,1028.3 992.1,1028.2 1021.5,1027.9 992.1,1027.7 		"/>
		<polygon class="st13" points="1762.3,866.9 1732.8,866.8 1673.9,866.7 1615,866.8 1585.6,866.9 1556.2,867.2 1585.6,867.4 
			1615,867.5 1673.9,867.7 1732.8,867.5 1762.3,867.4 1791.7,867.2 		"/>
		<polygon class="st13" points="760.5,927.2 734.2,927.1 681.6,927 628.9,927.1 602.6,927.2 576.3,927.5 602.6,927.7 628.9,927.9 
			681.6,928 734.2,927.9 760.5,927.7 786.8,927.5 		"/>
		<polygon class="st13" points="1467.4,1015.3 1414.8,1015.2 1362.1,1015.3 1335.8,1015.5 1309.5,1015.7 1335.8,1015.9 
			1362.1,1016.1 1414.8,1016.2 1467.4,1016.1 1493.7,1015.9 1520,1015.7 1493.7,1015.4 		"/>
		<polygon class="st13" points="448.7,1015.3 407.5,1015.2 366.3,1015.3 345.7,1015.5 325,1015.7 345.7,1015.9 366.3,1016.1 
			407.5,1016.2 448.7,1016.1 469.3,1015.9 489.9,1015.7 469.3,1015.4 		"/>
		<polygon class="st13" points="1202.2,909.7 1161,909.6 1119.8,909.7 1099.2,909.8 1078.6,910.1 1099.2,910.3 1119.8,910.5 
			1161,910.6 1202.2,910.5 1222.9,910.3 1243.5,910.1 1222.9,909.8 		"/>
		<polygon class="st13" points="834.5,819.5 875.7,819.6 916.9,819.5 937.5,819.3 958.1,819.1 937.5,818.9 916.9,818.7 875.7,818.6 
			834.5,818.7 813.9,818.9 793.3,819.1 813.9,819.3 		"/>
	</g>
</g>
</svg>
